<svg xmlns="http://www.w3.org/2000/svg" xmlns:xlink="http://www.w3.org/1999/xlink" width="200" zoomAndPan="magnify" viewBox="0 0 150 37.5" height="50" preserveAspectRatio="xMidYMid meet" version="1.0"><defs><filter x="0%" y="0%" width="100%" height="100%" id="df354ec928"><feColorMatrix values="0 0 0 0 1 0 0 0 0 1 0 0 0 0 1 0 0 0 1 0" color-interpolation-filters="sRGB"/></filter><g/><clipPath id="3e79f5b74f"><path d="M 0.988281 0 L 148 0 L 148 37 L 0.988281 37 Z M 0.988281 0 " clip-rule="nonzero"/></clipPath><mask id="e6508e43dc"><g filter="url(#df354ec928)"><rect x="-15" width="180" fill="#000000" y="-3.75" height="45" fill-opacity="0.75"/></g></mask><clipPath id="3211595841"><rect x="0" width="148" y="0" height="37"/></clipPath></defs><g clip-path="url(#3e79f5b74f)"><g mask="url(#e6508e43dc)"><g transform="matrix(1, 0, 0, 1, 0.000000000000000222, -0.000000000000001478)"><g clip-path="url(#3211595841)"><g fill="#212529" fill-opacity="0.302"><g transform="translate(2.295225, 28.495884)"><g><path d="M 10.015625 0.359375 C 8.492188 0.359375 7.117188 0.0546875 5.890625 -0.546875 C 4.671875 -1.148438 3.695312 -2.0625 2.96875 -3.28125 C 2.25 -4.507812 1.890625 -6.0625 1.890625 -7.9375 L 1.890625 -20.734375 L 5.6875 -20.734375 L 5.6875 -7.90625 C 5.6875 -6.289062 6.078125 -5.085938 6.859375 -4.296875 C 7.640625 -3.503906 8.71875 -3.109375 10.09375 -3.109375 C 11.457031 -3.109375 12.535156 -3.503906 13.328125 -4.296875 C 14.117188 -5.085938 14.515625 -6.289062 14.515625 -7.90625 L 14.515625 -20.734375 L 18.296875 -20.734375 L 18.296875 -7.9375 C 18.296875 -6.0625 17.921875 -4.507812 17.171875 -3.28125 C 16.421875 -2.0625 15.414062 -1.148438 14.15625 -0.546875 C 12.90625 0.0546875 11.523438 0.359375 10.015625 0.359375 Z M 10.015625 0.359375 "/></g></g></g><g fill="#212529" fill-opacity="0.302"><g transform="translate(23.344546, 28.495884)"><g><path d="M 1.921875 0 L 1.921875 -14.6875 L 5.265625 -14.6875 L 5.5625 -12.203125 C 6.019531 -13.066406 6.675781 -13.753906 7.53125 -14.265625 C 8.394531 -14.785156 9.410156 -15.046875 10.578125 -15.046875 C 12.390625 -15.046875 13.796875 -14.472656 14.796875 -13.328125 C 15.804688 -12.179688 16.3125 -10.503906 16.3125 -8.296875 L 16.3125 0 L 12.53125 0 L 12.53125 -7.9375 C 12.53125 -9.195312 12.269531 -10.160156 11.75 -10.828125 C 11.238281 -11.503906 10.441406 -11.84375 9.359375 -11.84375 C 8.285156 -11.84375 7.410156 -11.46875 6.734375 -10.71875 C 6.054688 -9.96875 5.71875 -8.921875 5.71875 -7.578125 L 5.71875 0 Z M 1.921875 0 "/></g></g></g><g fill="#212529" fill-opacity="0.302"><g transform="translate(42.232684, 28.495884)"><g><path d="M 1.921875 0 L 1.921875 -14.6875 L 5.265625 -14.6875 L 5.59375 -12.703125 C 6.070312 -13.410156 6.695312 -13.976562 7.46875 -14.40625 C 8.25 -14.832031 9.15625 -15.046875 10.1875 -15.046875 C 12.457031 -15.046875 14.066406 -14.164062 15.015625 -12.40625 C 15.546875 -13.21875 16.257812 -13.859375 17.15625 -14.328125 C 18.050781 -14.804688 19.035156 -15.046875 20.109375 -15.046875 C 22.023438 -15.046875 23.492188 -14.472656 24.515625 -13.328125 C 25.546875 -12.179688 26.0625 -10.503906 26.0625 -8.296875 L 26.0625 0 L 22.265625 0 L 22.265625 -7.9375 C 22.265625 -9.195312 22.019531 -10.160156 21.53125 -10.828125 C 21.050781 -11.503906 20.3125 -11.84375 19.3125 -11.84375 C 18.28125 -11.84375 17.453125 -11.46875 16.828125 -10.71875 C 16.210938 -9.96875 15.90625 -8.921875 15.90625 -7.578125 L 15.90625 0 L 12.109375 0 L 12.109375 -7.9375 C 12.109375 -9.195312 11.859375 -10.160156 11.359375 -10.828125 C 10.867188 -11.503906 10.113281 -11.84375 9.09375 -11.84375 C 8.082031 -11.84375 7.265625 -11.46875 6.640625 -10.71875 C 6.023438 -9.96875 5.71875 -8.921875 5.71875 -7.578125 L 5.71875 0 Z M 1.921875 0 "/></g></g></g><g fill="#212529" fill-opacity="0.302"><g transform="translate(70.860944, 28.495884)"><g><path d="M 6.984375 0.359375 C 5.722656 0.359375 4.6875 0.15625 3.875 -0.25 C 3.070312 -0.65625 2.472656 -1.191406 2.078125 -1.859375 C 1.679688 -2.535156 1.484375 -3.28125 1.484375 -4.09375 C 1.484375 -5.445312 2.015625 -6.546875 3.078125 -7.390625 C 4.140625 -8.242188 5.738281 -8.671875 7.875 -8.671875 L 11.609375 -8.671875 L 11.609375 -9.03125 C 11.609375 -10.039062 11.320312 -10.78125 10.75 -11.25 C 10.175781 -11.726562 9.460938 -11.96875 8.609375 -11.96875 C 7.847656 -11.96875 7.179688 -11.78125 6.609375 -11.40625 C 6.035156 -11.039062 5.675781 -10.503906 5.53125 -9.796875 L 1.828125 -9.796875 C 1.929688 -10.867188 2.289062 -11.796875 2.90625 -12.578125 C 3.53125 -13.367188 4.335938 -13.976562 5.328125 -14.40625 C 6.316406 -14.832031 7.421875 -15.046875 8.640625 -15.046875 C 10.734375 -15.046875 12.378906 -14.519531 13.578125 -13.46875 C 14.785156 -12.425781 15.390625 -10.945312 15.390625 -9.03125 L 15.390625 0 L 12.171875 0 L 11.8125 -2.375 C 11.375 -1.582031 10.765625 -0.925781 9.984375 -0.40625 C 9.210938 0.101562 8.210938 0.359375 6.984375 0.359375 Z M 7.84375 -2.609375 C 8.925781 -2.609375 9.769531 -2.960938 10.375 -3.671875 C 10.976562 -4.378906 11.359375 -5.257812 11.515625 -6.3125 L 8.296875 -6.3125 C 7.285156 -6.3125 6.5625 -6.128906 6.125 -5.765625 C 5.695312 -5.398438 5.484375 -4.945312 5.484375 -4.40625 C 5.484375 -3.832031 5.695312 -3.390625 6.125 -3.078125 C 6.5625 -2.765625 7.132812 -2.609375 7.84375 -2.609375 Z M 7.84375 -2.609375 "/></g></g></g><g fill="#212529" fill-opacity="0.302"><g transform="translate(88.831314, 28.495884)"><g><path d="M 1.921875 0 L 1.921875 -14.6875 L 5.296875 -14.6875 L 5.65625 -11.9375 C 6.1875 -12.882812 6.910156 -13.640625 7.828125 -14.203125 C 8.742188 -14.765625 9.828125 -15.046875 11.078125 -15.046875 L 11.078125 -11.046875 L 10.015625 -11.046875 C 9.179688 -11.046875 8.4375 -10.914062 7.78125 -10.65625 C 7.132812 -10.40625 6.628906 -9.960938 6.265625 -9.328125 C 5.898438 -8.691406 5.71875 -7.8125 5.71875 -6.6875 L 5.71875 0 Z M 1.921875 0 "/></g></g></g><g fill="#212529" fill-opacity="0.302"><g transform="translate(101.44314, 28.495884)"><g><path d="M 10.625 0.359375 C 9.519531 0.359375 8.550781 0.148438 7.71875 -0.265625 C 6.894531 -0.679688 6.226562 -1.265625 5.71875 -2.015625 L 5.296875 0 L 1.921875 0 L 1.921875 -21.3125 L 5.71875 -21.3125 L 5.71875 -12.578125 C 6.1875 -13.234375 6.8125 -13.804688 7.59375 -14.296875 C 8.375 -14.796875 9.382812 -15.046875 10.625 -15.046875 C 12.007812 -15.046875 13.242188 -14.707031 14.328125 -14.03125 C 15.410156 -13.363281 16.269531 -12.445312 16.90625 -11.28125 C 17.539062 -10.113281 17.859375 -8.789062 17.859375 -7.3125 C 17.859375 -5.832031 17.539062 -4.515625 16.90625 -3.359375 C 16.269531 -2.203125 15.410156 -1.289062 14.328125 -0.625 C 13.242188 0.03125 12.007812 0.359375 10.625 0.359375 Z M 9.828125 -2.96875 C 11.035156 -2.96875 12.03125 -3.367188 12.8125 -4.171875 C 13.601562 -4.984375 14 -6.03125 14 -7.3125 C 14 -8.59375 13.601562 -9.644531 12.8125 -10.46875 C 12.03125 -11.300781 11.035156 -11.71875 9.828125 -11.71875 C 8.609375 -11.71875 7.609375 -11.304688 6.828125 -10.484375 C 6.046875 -9.671875 5.65625 -8.625 5.65625 -7.34375 C 5.65625 -6.0625 6.046875 -5.007812 6.828125 -4.1875 C 7.609375 -3.375 8.609375 -2.96875 9.828125 -2.96875 Z M 9.828125 -2.96875 "/></g></g></g><g fill="#212529" fill-opacity="0.302"><g transform="translate(121.633904, 28.495884)"><g><path d="M 1.921875 0 L 1.921875 -21.3125 L 5.71875 -21.3125 L 5.71875 0 Z M 1.921875 0 "/></g></g></g><g fill="#212529" fill-opacity="0.302"><g transform="translate(130.189812, 28.495884)"><g><path d="M 9.0625 0.359375 C 7.582031 0.359375 6.269531 0.0390625 5.125 -0.59375 C 3.976562 -1.226562 3.078125 -2.113281 2.421875 -3.25 C 1.773438 -4.394531 1.453125 -5.71875 1.453125 -7.21875 C 1.453125 -8.738281 1.769531 -10.09375 2.40625 -11.28125 C 3.050781 -12.46875 3.941406 -13.390625 5.078125 -14.046875 C 6.210938 -14.710938 7.550781 -15.046875 9.09375 -15.046875 C 10.53125 -15.046875 11.800781 -14.726562 12.90625 -14.09375 C 14.007812 -13.457031 14.875 -12.59375 15.5 -11.5 C 16.125 -10.40625 16.4375 -9.1875 16.4375 -7.84375 C 16.4375 -7.625 16.429688 -7.394531 16.421875 -7.15625 C 16.410156 -6.925781 16.394531 -6.679688 16.375 -6.421875 L 5.21875 -6.421875 C 5.289062 -5.273438 5.6875 -4.375 6.40625 -3.71875 C 7.125 -3.070312 8 -2.75 9.03125 -2.75 C 9.800781 -2.75 10.445312 -2.921875 10.96875 -3.265625 C 11.488281 -3.617188 11.878906 -4.070312 12.140625 -4.625 L 15.984375 -4.625 C 15.710938 -3.695312 15.253906 -2.851562 14.609375 -2.09375 C 13.972656 -1.332031 13.1875 -0.734375 12.25 -0.296875 C 11.3125 0.140625 10.25 0.359375 9.0625 0.359375 Z M 9.09375 -11.96875 C 8.164062 -11.96875 7.34375 -11.703125 6.625 -11.171875 C 5.914062 -10.648438 5.460938 -9.859375 5.265625 -8.796875 L 12.578125 -8.796875 C 12.523438 -9.765625 12.171875 -10.535156 11.515625 -11.109375 C 10.867188 -11.679688 10.0625 -11.96875 9.09375 -11.96875 Z M 9.09375 -11.96875 "/></g></g></g><g fill="#212529" fill-opacity="1"><g transform="translate(0.986842, 27.187501)"><g><path d="M 10.015625 0.359375 C 8.492188 0.359375 7.117188 0.0546875 5.890625 -0.546875 C 4.671875 -1.148438 3.695312 -2.0625 2.96875 -3.28125 C 2.25 -4.507812 1.890625 -6.0625 1.890625 -7.9375 L 1.890625 -20.734375 L 5.6875 -20.734375 L 5.6875 -7.90625 C 5.6875 -6.289062 6.078125 -5.085938 6.859375 -4.296875 C 7.640625 -3.503906 8.71875 -3.109375 10.09375 -3.109375 C 11.457031 -3.109375 12.535156 -3.503906 13.328125 -4.296875 C 14.117188 -5.085938 14.515625 -6.289062 14.515625 -7.90625 L 14.515625 -20.734375 L 18.296875 -20.734375 L 18.296875 -7.9375 C 18.296875 -6.0625 17.921875 -4.507812 17.171875 -3.28125 C 16.421875 -2.0625 15.414062 -1.148438 14.15625 -0.546875 C 12.90625 0.0546875 11.523438 0.359375 10.015625 0.359375 Z M 10.015625 0.359375 "/></g></g></g><g fill="#212529" fill-opacity="1"><g transform="translate(22.036163, 27.187501)"><g><path d="M 1.921875 0 L 1.921875 -14.6875 L 5.265625 -14.6875 L 5.5625 -12.203125 C 6.019531 -13.066406 6.675781 -13.753906 7.53125 -14.265625 C 8.394531 -14.785156 9.410156 -15.046875 10.578125 -15.046875 C 12.390625 -15.046875 13.796875 -14.472656 14.796875 -13.328125 C 15.804688 -12.179688 16.3125 -10.503906 16.3125 -8.296875 L 16.3125 0 L 12.53125 0 L 12.53125 -7.9375 C 12.53125 -9.195312 12.269531 -10.160156 11.75 -10.828125 C 11.238281 -11.503906 10.441406 -11.84375 9.359375 -11.84375 C 8.285156 -11.84375 7.410156 -11.46875 6.734375 -10.71875 C 6.054688 -9.96875 5.71875 -8.921875 5.71875 -7.578125 L 5.71875 0 Z M 1.921875 0 "/></g></g></g><g fill="#212529" fill-opacity="1"><g transform="translate(40.9243, 27.187501)"><g><path d="M 1.921875 0 L 1.921875 -14.6875 L 5.265625 -14.6875 L 5.59375 -12.703125 C 6.070312 -13.410156 6.695312 -13.976562 7.46875 -14.40625 C 8.25 -14.832031 9.15625 -15.046875 10.1875 -15.046875 C 12.457031 -15.046875 14.066406 -14.164062 15.015625 -12.40625 C 15.546875 -13.21875 16.257812 -13.859375 17.15625 -14.328125 C 18.050781 -14.804688 19.035156 -15.046875 20.109375 -15.046875 C 22.023438 -15.046875 23.492188 -14.472656 24.515625 -13.328125 C 25.546875 -12.179688 26.0625 -10.503906 26.0625 -8.296875 L 26.0625 0 L 22.265625 0 L 22.265625 -7.9375 C 22.265625 -9.195312 22.019531 -10.160156 21.53125 -10.828125 C 21.050781 -11.503906 20.3125 -11.84375 19.3125 -11.84375 C 18.28125 -11.84375 17.453125 -11.46875 16.828125 -10.71875 C 16.210938 -9.96875 15.90625 -8.921875 15.90625 -7.578125 L 15.90625 0 L 12.109375 0 L 12.109375 -7.9375 C 12.109375 -9.195312 11.859375 -10.160156 11.359375 -10.828125 C 10.867188 -11.503906 10.113281 -11.84375 9.09375 -11.84375 C 8.082031 -11.84375 7.265625 -11.46875 6.640625 -10.71875 C 6.023438 -9.96875 5.71875 -8.921875 5.71875 -7.578125 L 5.71875 0 Z M 1.921875 0 "/></g></g></g><g fill="#212529" fill-opacity="1"><g transform="translate(69.552561, 27.187501)"><g><path d="M 6.984375 0.359375 C 5.722656 0.359375 4.6875 0.15625 3.875 -0.25 C 3.070312 -0.65625 2.472656 -1.191406 2.078125 -1.859375 C 1.679688 -2.535156 1.484375 -3.28125 1.484375 -4.09375 C 1.484375 -5.445312 2.015625 -6.546875 3.078125 -7.390625 C 4.140625 -8.242188 5.738281 -8.671875 7.875 -8.671875 L 11.609375 -8.671875 L 11.609375 -9.03125 C 11.609375 -10.039062 11.320312 -10.78125 10.75 -11.25 C 10.175781 -11.726562 9.460938 -11.96875 8.609375 -11.96875 C 7.847656 -11.96875 7.179688 -11.78125 6.609375 -11.40625 C 6.035156 -11.039062 5.675781 -10.503906 5.53125 -9.796875 L 1.828125 -9.796875 C 1.929688 -10.867188 2.289062 -11.796875 2.90625 -12.578125 C 3.53125 -13.367188 4.335938 -13.976562 5.328125 -14.40625 C 6.316406 -14.832031 7.421875 -15.046875 8.640625 -15.046875 C 10.734375 -15.046875 12.378906 -14.519531 13.578125 -13.46875 C 14.785156 -12.425781 15.390625 -10.945312 15.390625 -9.03125 L 15.390625 0 L 12.171875 0 L 11.8125 -2.375 C 11.375 -1.582031 10.765625 -0.925781 9.984375 -0.40625 C 9.210938 0.101562 8.210938 0.359375 6.984375 0.359375 Z M 7.84375 -2.609375 C 8.925781 -2.609375 9.769531 -2.960938 10.375 -3.671875 C 10.976562 -4.378906 11.359375 -5.257812 11.515625 -6.3125 L 8.296875 -6.3125 C 7.285156 -6.3125 6.5625 -6.128906 6.125 -5.765625 C 5.695312 -5.398438 5.484375 -4.945312 5.484375 -4.40625 C 5.484375 -3.832031 5.695312 -3.390625 6.125 -3.078125 C 6.5625 -2.765625 7.132812 -2.609375 7.84375 -2.609375 Z M 7.84375 -2.609375 "/></g></g></g><g fill="#212529" fill-opacity="1"><g transform="translate(87.522931, 27.187501)"><g><path d="M 1.921875 0 L 1.921875 -14.6875 L 5.296875 -14.6875 L 5.65625 -11.9375 C 6.1875 -12.882812 6.910156 -13.640625 7.828125 -14.203125 C 8.742188 -14.765625 9.828125 -15.046875 11.078125 -15.046875 L 11.078125 -11.046875 L 10.015625 -11.046875 C 9.179688 -11.046875 8.4375 -10.914062 7.78125 -10.65625 C 7.132812 -10.40625 6.628906 -9.960938 6.265625 -9.328125 C 5.898438 -8.691406 5.71875 -7.8125 5.71875 -6.6875 L 5.71875 0 Z M 1.921875 0 "/></g></g></g><g fill="#212529" fill-opacity="1"><g transform="translate(100.134756, 27.187501)"><g><path d="M 10.625 0.359375 C 9.519531 0.359375 8.550781 0.148438 7.71875 -0.265625 C 6.894531 -0.679688 6.226562 -1.265625 5.71875 -2.015625 L 5.296875 0 L 1.921875 0 L 1.921875 -21.3125 L 5.71875 -21.3125 L 5.71875 -12.578125 C 6.1875 -13.234375 6.8125 -13.804688 7.59375 -14.296875 C 8.375 -14.796875 9.382812 -15.046875 10.625 -15.046875 C 12.007812 -15.046875 13.242188 -14.707031 14.328125 -14.03125 C 15.410156 -13.363281 16.269531 -12.445312 16.90625 -11.28125 C 17.539062 -10.113281 17.859375 -8.789062 17.859375 -7.3125 C 17.859375 -5.832031 17.539062 -4.515625 16.90625 -3.359375 C 16.269531 -2.203125 15.410156 -1.289062 14.328125 -0.625 C 13.242188 0.03125 12.007812 0.359375 10.625 0.359375 Z M 9.828125 -2.96875 C 11.035156 -2.96875 12.03125 -3.367188 12.8125 -4.171875 C 13.601562 -4.984375 14 -6.03125 14 -7.3125 C 14 -8.59375 13.601562 -9.644531 12.8125 -10.46875 C 12.03125 -11.300781 11.035156 -11.71875 9.828125 -11.71875 C 8.609375 -11.71875 7.609375 -11.304688 6.828125 -10.484375 C 6.046875 -9.671875 5.65625 -8.625 5.65625 -7.34375 C 5.65625 -6.0625 6.046875 -5.007812 6.828125 -4.1875 C 7.609375 -3.375 8.609375 -2.96875 9.828125 -2.96875 Z M 9.828125 -2.96875 "/></g></g></g><g fill="#212529" fill-opacity="1"><g transform="translate(120.325521, 27.187501)"><g><path d="M 1.921875 0 L 1.921875 -21.3125 L 5.71875 -21.3125 L 5.71875 0 Z M 1.921875 0 "/></g></g></g><g fill="#212529" fill-opacity="1"><g transform="translate(128.881429, 27.187501)"><g><path d="M 9.0625 0.359375 C 7.582031 0.359375 6.269531 0.0390625 5.125 -0.59375 C 3.976562 -1.226562 3.078125 -2.113281 2.421875 -3.25 C 1.773438 -4.394531 1.453125 -5.71875 1.453125 -7.21875 C 1.453125 -8.738281 1.769531 -10.09375 2.40625 -11.28125 C 3.050781 -12.46875 3.941406 -13.390625 5.078125 -14.046875 C 6.210938 -14.710938 7.550781 -15.046875 9.09375 -15.046875 C 10.53125 -15.046875 11.800781 -14.726562 12.90625 -14.09375 C 14.007812 -13.457031 14.875 -12.59375 15.5 -11.5 C 16.125 -10.40625 16.4375 -9.1875 16.4375 -7.84375 C 16.4375 -7.625 16.429688 -7.394531 16.421875 -7.15625 C 16.410156 -6.925781 16.394531 -6.679688 16.375 -6.421875 L 5.21875 -6.421875 C 5.289062 -5.273438 5.6875 -4.375 6.40625 -3.71875 C 7.125 -3.070312 8 -2.75 9.03125 -2.75 C 9.800781 -2.75 10.445312 -2.921875 10.96875 -3.265625 C 11.488281 -3.617188 11.878906 -4.070312 12.140625 -4.625 L 15.984375 -4.625 C 15.710938 -3.695312 15.253906 -2.851562 14.609375 -2.09375 C 13.972656 -1.332031 13.1875 -0.734375 12.25 -0.296875 C 11.3125 0.140625 10.25 0.359375 9.0625 0.359375 Z M 9.09375 -11.96875 C 8.164062 -11.96875 7.34375 -11.703125 6.625 -11.171875 C 5.914062 -10.648438 5.460938 -9.859375 5.265625 -8.796875 L 12.578125 -8.796875 C 12.523438 -9.765625 12.171875 -10.535156 11.515625 -11.109375 C 10.867188 -11.679688 10.0625 -11.96875 9.09375 -11.96875 Z M 9.09375 -11.96875 "/></g></g></g></g></g></g></g></svg>