<svg xmlns="http://www.w3.org/2000/svg" xmlns:xlink="http://www.w3.org/1999/xlink" width="210" zoomAndPan="magnify" viewBox="0 0 157.5 127.500001" height="170" preserveAspectRatio="xMidYMid meet" version="1.0"><defs><clipPath id="77e2a21213"><path d="M 0.0585938 0 L 133.785156 0 L 133.785156 127 L 0.0585938 127 Z M 0.0585938 0 " clip-rule="nonzero"/></clipPath></defs><path fill="#f4d7d3" d="M 22.136719 19.347656 C 21.898438 21.664062 21.175781 24.988281 20 29.230469 L 19.941406 29.441406 L 19.730469 29.492188 L 7.417969 32.625 L 7.191406 32.683594 L 7.039062 32.503906 C 6.101562 31.394531 5.203125 30.242188 4.367188 29.074219 C 3.460938 27.8125 2.59375 26.484375 1.785156 25.128906 L 1.667969 24.929688 L 1.789062 24.734375 C 2.683594 23.316406 3.789062 22.050781 5.078125 20.972656 C 6.566406 19.722656 8.257812 18.765625 10.09375 18.117188 C 10.242188 18.066406 10.363281 17.953125 10.425781 17.8125 C 10.488281 17.667969 10.488281 17.503906 10.425781 17.359375 L 4.632812 4.023438 L 4.582031 3.90625 L 4.613281 3.777344 C 4.734375 3.320312 5.0625 2.476562 5.910156 1.945312 C 6.367188 1.660156 6.90625 1.507812 7.460938 1.507812 C 7.914062 1.507812 8.359375 1.605469 8.785156 1.800781 L 8.917969 1.863281 L 8.976562 2 L 15.917969 19.050781 C 15.992188 19.230469 16.152344 19.359375 16.34375 19.394531 C 16.375 19.398438 16.410156 19.402344 16.441406 19.402344 C 16.601562 19.402344 16.753906 19.335938 16.859375 19.21875 C 19.710938 16.078125 20.960938 15.609375 21.449219 15.609375 C 21.601562 15.609375 21.675781 15.652344 21.699219 15.664062 C 21.941406 15.808594 22.441406 16.453125 22.136719 19.347656 Z M 93.109375 61.484375 L 93.183594 61.382812 L 93.175781 61.253906 C 93.175781 61.238281 93.175781 61.226562 93.175781 61.207031 C 93.175781 61.195312 93.175781 61.183594 93.171875 61.171875 L 93.152344 60.503906 L 92.59375 60.867188 C 91.3125 61.699219 90.054688 62.417969 88.855469 63.011719 C 86.125 64.367188 83.722656 65.050781 81.714844 65.050781 C 81.597656 65.050781 81.480469 65.046875 81.367188 65.042969 L 80.664062 65.007812 L 81.023438 65.609375 C 82.375 67.871094 84.628906 69.332031 86.773438 69.332031 C 86.878906 69.332031 86.984375 69.328125 87.101562 69.320312 C 88.730469 69.207031 90.398438 68.207031 91.5625 66.644531 C 92.476562 65.417969 93.027344 63.9375 93.15625 62.367188 L 93.167969 62.238281 L 93.09375 62.128906 C 93.003906 61.988281 92.976562 61.816406 93.023438 61.65625 C 93.039062 61.597656 93.070312 61.539062 93.109375 61.484375 Z M 104.410156 55.890625 C 104.40625 55.898438 104.402344 55.902344 104.402344 55.90625 L 104.402344 55.910156 C 104.402344 55.910156 104.398438 55.910156 104.398438 55.910156 C 104.160156 56.375 103.863281 56.820312 103.523438 57.238281 C 102.535156 58.453125 101.25 59.300781 99.910156 59.625 C 99.53125 59.714844 99.15625 59.761719 98.792969 59.761719 C 97.949219 59.761719 97.1875 59.507812 96.597656 59.023438 C 96.257812 58.746094 95.984375 58.40625 95.78125 58.011719 L 95.777344 58.003906 L 95.777344 58 C 95.769531 57.984375 95.757812 57.964844 95.75 57.953125 C 95.742188 57.945312 95.730469 57.929688 95.71875 57.914062 L 95.710938 57.902344 L 95.707031 57.898438 C 95.6875 57.875 95.667969 57.855469 95.644531 57.835938 L 95.636719 57.828125 L 95.617188 57.8125 C 95.609375 57.804688 95.601562 57.800781 95.589844 57.792969 C 95.585938 57.789062 95.574219 57.78125 95.558594 57.773438 L 95.546875 57.765625 L 95.535156 57.761719 C 95.527344 57.757812 95.519531 57.753906 95.511719 57.75 L 95.5 57.742188 L 95.492188 57.738281 C 95.484375 57.738281 95.472656 57.734375 95.460938 57.730469 C 95.453125 57.726562 95.449219 57.726562 95.445312 57.722656 C 95.4375 57.722656 95.429688 57.71875 95.425781 57.71875 L 95.414062 57.714844 L 95.410156 57.714844 C 95.410156 57.714844 95.40625 57.714844 95.40625 57.714844 L 95.394531 57.710938 C 95.382812 57.707031 95.371094 57.707031 95.363281 57.707031 L 95.355469 57.707031 C 95.355469 57.707031 95.351562 57.703125 95.351562 57.703125 L 95.347656 57.703125 C 95.347656 57.703125 95.34375 57.703125 95.34375 57.703125 L 95.335938 57.703125 C 95.332031 57.703125 95.324219 57.699219 95.320312 57.699219 L 95.3125 57.699219 C 95.3125 57.699219 95.308594 57.699219 95.308594 57.699219 C 95.304688 57.699219 95.296875 57.699219 95.292969 57.699219 C 95.28125 57.699219 95.273438 57.699219 95.265625 57.699219 C 95.257812 57.699219 95.253906 57.699219 95.25 57.699219 C 95.246094 57.699219 95.242188 57.699219 95.238281 57.699219 C 95.238281 57.699219 95.230469 57.699219 95.230469 57.699219 L 95.21875 57.699219 C 95.21875 57.699219 95.210938 57.703125 95.210938 57.703125 C 95.199219 57.703125 95.1875 57.703125 95.179688 57.707031 C 95.140625 57.714844 95.101562 57.726562 95.066406 57.738281 L 94.929688 57.824219 L 94.917969 57.835938 L 94.894531 57.84375 C 94.65625 58.035156 94.050781 58.503906 93.191406 59.101562 L 93.171875 59.121094 C 92.042969 59.90625 90.300781 61.039062 88.363281 61.996094 C 85.796875 63.269531 83.558594 63.914062 81.71875 63.914062 C 80.617188 63.914062 79.65625 63.675781 78.867188 63.207031 C 77.675781 62.5 76.753906 61.203125 76.132812 59.347656 C 75.527344 57.542969 75.234375 55.3125 75.269531 52.714844 C 75.3125 49.628906 75.800781 46.277344 76.683594 43.019531 L 76.691406 42.996094 C 76.703125 42.960938 76.710938 42.9375 76.714844 42.914062 L 76.722656 42.882812 C 77.160156 41.296875 77.679688 39.78125 78.265625 38.375 L 78.367188 38.132812 L 78.632812 38.144531 C 78.875 38.15625 79.121094 38.160156 79.359375 38.160156 C 80.113281 38.160156 80.871094 38.109375 81.609375 38.003906 C 83.078125 37.796875 84.519531 37.382812 85.886719 36.777344 L 86.203125 36.640625 L 86.371094 36.9375 C 87.207031 38.445312 88.742188 40.597656 91.320312 42.300781 C 94.097656 44.140625 96.921875 44.679688 98.800781 44.808594 L 99.246094 44.839844 L 99.144531 45.273438 L 97.0625 53.890625 C 97.007812 54.128906 97.109375 54.378906 97.320312 54.507812 C 97.40625 54.5625 97.507812 54.589844 97.613281 54.589844 C 97.746094 54.589844 97.878906 54.542969 97.980469 54.457031 L 103.25 49.976562 L 103.472656 49.789062 L 103.710938 49.957031 C 103.785156 50.007812 103.839844 50.050781 103.890625 50.09375 C 104.425781 50.527344 104.796875 51.113281 104.992188 51.832031 C 105.332031 53.066406 105.128906 54.507812 104.417969 55.890625 Z M 88.375 48.054688 C 88.503906 48.101562 88.636719 48.128906 88.773438 48.128906 C 89.3125 48.128906 89.816406 47.753906 90.027344 47.199219 C 90.160156 46.847656 90.160156 46.472656 90.027344 46.140625 C 89.898438 45.820312 89.660156 45.582031 89.355469 45.464844 C 89.226562 45.417969 89.09375 45.394531 88.957031 45.394531 C 88.417969 45.394531 87.914062 45.765625 87.707031 46.324219 C 87.574219 46.675781 87.574219 47.050781 87.707031 47.378906 C 87.835938 47.699219 88.074219 47.941406 88.378906 48.054688 Z M 89.015625 54.035156 C 89.179688 53.769531 89.097656 53.421875 88.832031 53.257812 C 88.742188 53.199219 88.640625 53.171875 88.535156 53.171875 C 88.339844 53.171875 88.15625 53.273438 88.054688 53.4375 C 87.984375 53.550781 86.3125 56.210938 83.382812 56.210938 L 83.359375 56.210938 C 81.847656 56.203125 80.703125 55.484375 80.15625 55.058594 C 80.054688 54.980469 79.933594 54.9375 79.808594 54.9375 C 79.632812 54.9375 79.46875 55.019531 79.363281 55.15625 C 79.167969 55.402344 79.210938 55.757812 79.457031 55.949219 C 80.121094 56.464844 81.503906 57.335938 83.351562 57.339844 L 83.382812 57.339844 C 86.867188 57.339844 88.804688 54.371094 89.015625 54.035156 Z M 84.300781 46.847656 C 84.246094 46.832031 84.191406 46.824219 84.136719 46.824219 C 83.890625 46.824219 83.667969 46.992188 83.597656 47.230469 C 83.492188 47.582031 83.230469 48.25 82.648438 48.816406 C 81.886719 49.554688 81.042969 49.65625 80.71875 49.667969 C 80.480469 49.671875 80.269531 49.832031 80.195312 50.058594 C 80.125 50.289062 80.203125 50.539062 80.394531 50.683594 L 83.394531 52.941406 C 83.496094 53.015625 83.609375 53.054688 83.734375 53.054688 C 83.914062 53.054688 84.078125 52.972656 84.1875 52.832031 C 84.277344 52.710938 84.316406 52.5625 84.292969 52.414062 C 84.273438 52.261719 84.195312 52.128906 84.074219 52.039062 L 82.554688 50.890625 L 82.097656 50.546875 L 82.59375 50.261719 C 82.894531 50.089844 83.179688 49.875 83.4375 49.628906 C 84.160156 48.925781 84.511719 48.113281 84.679688 47.554688 C 84.769531 47.253906 84.597656 46.941406 84.300781 46.851562 Z M 82.925781 43.464844 C 82.796875 43.144531 82.558594 42.902344 82.257812 42.789062 C 82.128906 42.742188 81.996094 42.714844 81.859375 42.714844 C 81.320312 42.714844 80.816406 43.089844 80.605469 43.644531 C 80.472656 43.996094 80.472656 44.371094 80.605469 44.703125 C 80.734375 45.023438 80.972656 45.261719 81.277344 45.378906 C 81.40625 45.425781 81.539062 45.449219 81.675781 45.449219 C 82.214844 45.449219 82.71875 45.078125 82.929688 44.519531 C 83.0625 44.167969 83.0625 43.792969 82.929688 43.464844 Z M 82.925781 43.464844 " fill-opacity="1" fill-rule="nonzero"/><path fill="#2a4dcc" d="M 131.976562 125.015625 L 131.945312 125.359375 L 113.609375 125.359375 L 113.664062 124.9375 C 114.320312 119.589844 114.316406 114.183594 113.652344 108.871094 C 113.179688 105.089844 112.363281 101.320312 111.234375 97.671875 C 111.160156 97.433594 110.945312 97.273438 110.695312 97.273438 C 110.636719 97.273438 110.582031 97.285156 110.527344 97.300781 C 110.382812 97.34375 110.265625 97.445312 110.195312 97.578125 C 110.125 97.710938 110.109375 97.863281 110.15625 98.007812 C 111.265625 101.59375 112.066406 105.296875 112.53125 109.011719 C 113.191406 114.308594 113.1875 119.695312 112.511719 125.03125 L 112.46875 125.359375 L 75.875 125.359375 L 75.828125 125.039062 C 74.90625 118.800781 74.144531 112.453125 73.5625 106.175781 C 73.019531 100.300781 72.617188 94.328125 72.371094 88.421875 C 72.371094 88.414062 72.371094 88.410156 72.371094 88.402344 L 72.367188 88.386719 L 72.367188 88.375 C 72.367188 88.371094 72.367188 88.367188 72.367188 88.363281 C 72.363281 88.351562 72.363281 88.339844 72.359375 88.328125 L 72.359375 88.324219 C 72.359375 88.324219 72.359375 88.316406 72.359375 88.316406 L 72.359375 88.308594 C 72.355469 88.296875 72.351562 88.289062 72.347656 88.28125 L 72.347656 88.273438 C 72.34375 88.269531 72.34375 88.261719 72.339844 88.257812 C 72.265625 88.046875 72.078125 87.898438 71.855469 87.878906 C 71.851562 87.878906 71.84375 87.878906 71.835938 87.878906 C 71.832031 87.878906 71.828125 87.878906 71.824219 87.878906 C 71.820312 87.878906 71.816406 87.878906 71.8125 87.878906 C 71.804688 87.878906 71.800781 87.878906 71.792969 87.878906 L 71.789062 87.878906 C 71.085938 87.898438 70.367188 87.910156 69.660156 87.910156 C 64.515625 87.910156 59.386719 87.363281 54.417969 86.292969 C 48.066406 84.921875 42 82.6875 36.382812 79.648438 C 26.355469 74.226562 17.988281 66.472656 11.511719 56.609375 C 6.179688 48.488281 3.300781 40.714844 1.820312 35.617188 L 1.710938 35.246094 L 2.089844 35.148438 L 7.101562 33.875 C 7.101562 33.875 7.144531 33.863281 7.144531 33.863281 L 25.1875 29.277344 L 25.527344 29.191406 L 25.636719 29.527344 C 26.40625 31.863281 28.660156 38 32.976562 44.449219 C 35.828125 48.703125 39.101562 52.410156 42.710938 55.460938 C 47.144531 59.210938 52.117188 61.996094 57.488281 63.730469 C 61.859375 65.140625 66.4375 65.859375 71.101562 65.859375 C 73.761719 65.859375 76.488281 65.625 79.210938 65.164062 L 79.492188 65.117188 L 79.613281 65.375 C 81.058594 68.421875 83.933594 70.46875 86.769531 70.46875 C 86.914062 70.46875 87.046875 70.460938 87.183594 70.453125 C 89.167969 70.316406 91.09375 69.175781 92.472656 67.324219 C 93.394531 66.089844 93.996094 64.617188 94.21875 63.0625 L 94.28125 62.621094 L 94.707031 62.757812 C 102.222656 65.128906 108.847656 68.894531 114.40625 73.949219 C 118.851562 77.992188 122.539062 82.832031 125.367188 88.332031 C 127.71875 92.90625 129.496094 97.980469 130.65625 103.414062 C 131.554688 107.628906 132.078125 112.042969 132.214844 116.527344 C 132.328125 120.238281 132.148438 123.195312 131.980469 125.019531 Z M 131.976562 125.015625 " fill-opacity="1" fill-rule="nonzero"/><path fill="#fc7f74" d="M 111.574219 46.769531 C 111.175781 49.910156 109.421875 52.742188 106.753906 54.546875 L 106.019531 55.042969 L 106.171875 54.167969 C 106.328125 53.25 106.296875 52.339844 106.074219 51.535156 C 105.816406 50.597656 105.304688 49.796875 104.597656 49.21875 C 104.3125 48.984375 103.992188 48.785156 103.648438 48.632812 L 103.625 48.621094 L 103.621094 48.617188 C 103.613281 48.617188 103.605469 48.613281 103.597656 48.609375 C 103.585938 48.605469 103.574219 48.601562 103.5625 48.597656 L 103.558594 48.597656 C 103.558594 48.597656 103.554688 48.59375 103.554688 48.59375 C 103.550781 48.59375 103.546875 48.589844 103.539062 48.589844 L 103.535156 48.585938 L 103.527344 48.582031 C 103.523438 48.582031 103.515625 48.582031 103.511719 48.578125 C 103.5 48.578125 103.492188 48.574219 103.480469 48.574219 L 103.457031 48.570312 C 103.449219 48.570312 103.441406 48.566406 103.441406 48.566406 L 103.429688 48.566406 C 103.429688 48.566406 103.421875 48.566406 103.421875 48.566406 L 103.417969 48.566406 C 103.417969 48.566406 103.410156 48.566406 103.410156 48.566406 L 103.390625 48.5625 C 103.382812 48.5625 103.378906 48.5625 103.371094 48.5625 L 103.363281 48.5625 C 103.363281 48.5625 103.359375 48.5625 103.359375 48.5625 L 103.355469 48.5625 C 103.355469 48.5625 103.328125 48.5625 103.328125 48.5625 C 103.328125 48.5625 103.324219 48.5625 103.320312 48.5625 L 103.296875 48.566406 C 103.289062 48.570312 103.28125 48.570312 103.269531 48.570312 L 103.265625 48.570312 C 103.265625 48.570312 103.238281 48.578125 103.238281 48.578125 C 103.230469 48.578125 103.226562 48.582031 103.222656 48.582031 L 103.210938 48.582031 C 103.210938 48.582031 103.203125 48.585938 103.203125 48.585938 L 103.1875 48.59375 C 103.179688 48.597656 103.175781 48.597656 103.171875 48.601562 L 103.164062 48.601562 L 103.160156 48.605469 L 103.15625 48.605469 C 103.148438 48.609375 103.140625 48.613281 103.128906 48.621094 C 103.125 48.621094 103.117188 48.625 103.113281 48.628906 L 103.101562 48.632812 C 103.097656 48.636719 103.089844 48.640625 103.085938 48.640625 C 103.082031 48.644531 103.078125 48.648438 103.074219 48.648438 C 103.070312 48.652344 103.070312 48.652344 103.066406 48.652344 C 103.058594 48.660156 103.046875 48.667969 103.039062 48.671875 C 103.035156 48.675781 103.027344 48.679688 103.023438 48.683594 L 103.015625 48.691406 L 103.003906 48.699219 L 99.445312 51.722656 L 98.5625 52.472656 L 98.835938 51.347656 L 100.507812 44.410156 C 100.550781 44.238281 100.511719 44.0625 100.402344 43.925781 C 100.292969 43.789062 100.132812 43.714844 99.957031 43.714844 L 99.953125 43.714844 C 99.910156 43.714844 99.867188 43.714844 99.820312 43.714844 C 98.207031 43.714844 95.035156 43.40625 91.9375 41.359375 C 89.234375 39.570312 87.742188 37.261719 86.960938 35.636719 C 86.898438 35.5 86.777344 35.394531 86.632812 35.347656 C 86.574219 35.328125 86.511719 35.316406 86.453125 35.316406 C 86.363281 35.316406 86.273438 35.339844 86.195312 35.378906 C 84.691406 36.144531 83.09375 36.652344 81.445312 36.882812 C 80.753906 36.980469 80.050781 37.03125 79.351562 37.03125 C 78.925781 37.03125 78.5 37.011719 78.078125 36.976562 L 78.074219 36.976562 C 78.074219 36.976562 78.070312 36.976562 78.070312 36.976562 C 78.046875 36.972656 78.027344 36.972656 78.007812 36.972656 C 77.984375 36.972656 77.964844 36.972656 77.941406 36.976562 L 77.929688 36.976562 C 77.929688 36.976562 77.921875 36.976562 77.921875 36.976562 C 77.910156 36.980469 77.902344 36.980469 77.890625 36.984375 L 77.882812 36.984375 C 77.882812 36.984375 77.875 36.988281 77.871094 36.988281 C 77.863281 36.992188 77.855469 36.992188 77.847656 36.996094 L 77.835938 37 C 77.835938 37 77.828125 37 77.824219 37.003906 L 77.8125 37.007812 L 77.804688 37.011719 C 77.796875 37.011719 77.792969 37.015625 77.785156 37.019531 L 77.777344 37.019531 C 77.773438 37.023438 77.769531 37.023438 77.761719 37.027344 C 77.757812 37.03125 77.75 37.035156 77.742188 37.039062 L 77.738281 37.039062 L 77.703125 37.0625 C 77.703125 37.0625 77.695312 37.066406 77.695312 37.066406 L 77.679688 37.074219 L 77.671875 37.082031 C 77.664062 37.085938 77.65625 37.09375 77.648438 37.097656 L 77.632812 37.113281 C 77.628906 37.117188 77.621094 37.121094 77.617188 37.125 L 77.609375 37.132812 C 77.609375 37.132812 77.605469 37.140625 77.605469 37.140625 L 77.601562 37.144531 C 77.601562 37.144531 77.59375 37.152344 77.589844 37.15625 L 77.585938 37.160156 C 77.585938 37.160156 77.578125 37.171875 77.574219 37.175781 L 77.566406 37.183594 C 77.5625 37.1875 77.558594 37.195312 77.554688 37.199219 C 77.550781 37.203125 77.546875 37.207031 77.542969 37.214844 L 77.535156 37.222656 C 77.53125 37.230469 77.53125 37.234375 77.527344 37.242188 L 77.523438 37.246094 L 77.507812 37.292969 L 77.488281 37.3125 C 77.140625 38.09375 76.808594 38.9375 76.496094 39.816406 L 76.050781 41.074219 L 75.773438 39.765625 C 75.390625 37.957031 75.382812 36.191406 75.753906 34.507812 C 77.175781 28.070312 83.894531 24.058594 89.496094 23.550781 C 89.921875 23.511719 90.351562 23.492188 90.78125 23.492188 L 90.78125 23.679688 L 90.78125 23.492188 C 92.558594 23.492188 94.34375 23.820312 96.09375 24.46875 C 97.796875 25.101562 99.425781 26.023438 100.933594 27.207031 C 102.441406 28.390625 103.785156 29.8125 104.933594 31.425781 C 106.109375 33.082031 107.050781 34.90625 107.730469 36.847656 C 107.761719 36.9375 107.816406 37.019531 107.886719 37.085938 C 108.339844 37.488281 112.28125 41.171875 111.578125 46.765625 Z M 111.574219 46.769531 " fill-opacity="1" fill-rule="nonzero"/><g clip-path="url(#77e2a21213)"><path fill="#000000" d="M 89.488281 45.117188 C 88.652344 44.800781 87.695312 45.28125 87.351562 46.191406 C 87.007812 47.101562 87.410156 48.09375 88.242188 48.410156 C 89.078125 48.722656 90.035156 48.242188 90.378906 47.332031 C 90.722656 46.421875 90.324219 45.429688 89.488281 45.117188 Z M 89.03125 52.9375 C 88.585938 52.664062 88.007812 52.800781 87.734375 53.242188 C 87.667969 53.347656 86.097656 55.835938 83.382812 55.835938 L 83.363281 55.835938 C 81.960938 55.828125 80.894531 55.160156 80.386719 54.761719 C 79.976562 54.441406 79.382812 54.515625 79.066406 54.925781 C 78.746094 55.335938 78.816406 55.925781 79.226562 56.246094 C 79.925781 56.792969 81.390625 57.710938 83.351562 57.71875 L 83.382812 57.71875 C 87.070312 57.71875 89.113281 54.589844 89.335938 54.234375 C 89.609375 53.789062 89.472656 53.210938 89.03125 52.9375 Z M 85.039062 47.660156 C 85.191406 47.164062 84.90625 46.636719 84.40625 46.488281 C 83.910156 46.339844 83.386719 46.621094 83.234375 47.121094 C 83.140625 47.4375 82.90625 48.042969 82.386719 48.542969 C 81.71875 49.191406 80.992188 49.28125 80.707031 49.289062 C 80.308594 49.300781 79.960938 49.5625 79.839844 49.945312 C 79.714844 50.324219 79.847656 50.742188 80.167969 50.980469 L 83.167969 53.242188 C 83.335938 53.371094 83.535156 53.429688 83.734375 53.429688 C 84.019531 53.429688 84.300781 53.300781 84.488281 53.054688 C 84.800781 52.640625 84.71875 52.050781 84.300781 51.738281 L 82.777344 50.589844 C 83.085938 50.414062 83.398438 50.1875 83.699219 49.898438 C 84.484375 49.136719 84.859375 48.261719 85.039062 47.660156 Z M 82.390625 42.4375 C 81.554688 42.121094 80.597656 42.601562 80.253906 43.511719 C 79.910156 44.421875 80.308594 45.414062 81.144531 45.730469 C 81.980469 46.046875 82.9375 45.5625 83.28125 44.652344 C 83.625 43.746094 83.226562 42.75 82.390625 42.4375 Z M 82.390625 42.4375 C 81.554688 42.121094 80.597656 42.601562 80.253906 43.511719 C 79.910156 44.421875 80.308594 45.414062 81.144531 45.730469 C 81.980469 46.046875 82.9375 45.5625 83.28125 44.652344 C 83.625 43.746094 83.226562 42.75 82.390625 42.4375 Z M 85.039062 47.660156 C 85.191406 47.164062 84.90625 46.636719 84.40625 46.488281 C 83.910156 46.339844 83.386719 46.621094 83.234375 47.121094 C 83.140625 47.4375 82.90625 48.042969 82.386719 48.542969 C 81.71875 49.191406 80.992188 49.28125 80.707031 49.289062 C 80.308594 49.300781 79.960938 49.5625 79.839844 49.945312 C 79.714844 50.324219 79.847656 50.742188 80.167969 50.980469 L 83.167969 53.242188 C 83.335938 53.371094 83.535156 53.429688 83.734375 53.429688 C 84.019531 53.429688 84.300781 53.300781 84.488281 53.054688 C 84.800781 52.640625 84.71875 52.050781 84.300781 51.738281 L 82.777344 50.589844 C 83.085938 50.414062 83.398438 50.1875 83.699219 49.898438 C 84.484375 49.136719 84.859375 48.261719 85.039062 47.660156 Z M 89.03125 52.9375 C 88.585938 52.664062 88.007812 52.800781 87.734375 53.242188 C 87.667969 53.347656 86.097656 55.835938 83.382812 55.835938 L 83.363281 55.835938 C 81.960938 55.828125 80.894531 55.160156 80.386719 54.761719 C 79.976562 54.441406 79.382812 54.515625 79.066406 54.925781 C 78.746094 55.335938 78.816406 55.925781 79.226562 56.246094 C 79.925781 56.792969 81.390625 57.710938 83.351562 57.71875 L 83.382812 57.71875 C 87.070312 57.71875 89.113281 54.589844 89.335938 54.234375 C 89.609375 53.789062 89.472656 53.210938 89.03125 52.9375 Z M 89.488281 45.117188 C 88.652344 44.800781 87.695312 45.28125 87.351562 46.191406 C 87.007812 47.101562 87.410156 48.09375 88.242188 48.410156 C 89.078125 48.722656 90.035156 48.242188 90.378906 47.332031 C 90.722656 46.421875 90.324219 45.429688 89.488281 45.117188 Z M 89.488281 45.117188 C 88.652344 44.800781 87.695312 45.28125 87.351562 46.191406 C 87.007812 47.101562 87.410156 48.09375 88.242188 48.410156 C 89.078125 48.722656 90.035156 48.242188 90.378906 47.332031 C 90.722656 46.421875 90.324219 45.429688 89.488281 45.117188 Z M 89.03125 52.9375 C 88.585938 52.664062 88.007812 52.800781 87.734375 53.242188 C 87.667969 53.347656 86.097656 55.835938 83.382812 55.835938 L 83.363281 55.835938 C 81.960938 55.828125 80.894531 55.160156 80.386719 54.761719 C 79.976562 54.441406 79.382812 54.515625 79.066406 54.925781 C 78.746094 55.335938 78.816406 55.925781 79.226562 56.246094 C 79.925781 56.792969 81.390625 57.710938 83.351562 57.71875 L 83.382812 57.71875 C 87.070312 57.71875 89.113281 54.589844 89.335938 54.234375 C 89.609375 53.789062 89.472656 53.210938 89.03125 52.9375 Z M 85.039062 47.660156 C 85.191406 47.164062 84.90625 46.636719 84.40625 46.488281 C 83.910156 46.339844 83.386719 46.621094 83.234375 47.121094 C 83.140625 47.4375 82.90625 48.042969 82.386719 48.542969 C 81.71875 49.191406 80.992188 49.28125 80.707031 49.289062 C 80.308594 49.300781 79.960938 49.5625 79.839844 49.945312 C 79.714844 50.324219 79.847656 50.742188 80.167969 50.980469 L 83.167969 53.242188 C 83.335938 53.371094 83.535156 53.429688 83.734375 53.429688 C 84.019531 53.429688 84.300781 53.300781 84.488281 53.054688 C 84.800781 52.640625 84.71875 52.050781 84.300781 51.738281 L 82.777344 50.589844 C 83.085938 50.414062 83.398438 50.1875 83.699219 49.898438 C 84.484375 49.136719 84.859375 48.261719 85.039062 47.660156 Z M 82.390625 42.4375 C 81.554688 42.121094 80.597656 42.601562 80.253906 43.511719 C 79.910156 44.421875 80.308594 45.414062 81.144531 45.730469 C 81.980469 46.046875 82.9375 45.5625 83.28125 44.652344 C 83.625 43.746094 83.226562 42.75 82.390625 42.4375 Z M 82.390625 42.4375 C 81.554688 42.121094 80.597656 42.601562 80.253906 43.511719 C 79.910156 44.421875 80.308594 45.414062 81.144531 45.730469 C 81.980469 46.046875 82.9375 45.5625 83.28125 44.652344 C 83.625 43.746094 83.226562 42.75 82.390625 42.4375 Z M 85.039062 47.660156 C 85.191406 47.164062 84.90625 46.636719 84.40625 46.488281 C 83.910156 46.339844 83.386719 46.621094 83.234375 47.121094 C 83.140625 47.4375 82.90625 48.042969 82.386719 48.542969 C 81.71875 49.191406 80.992188 49.28125 80.707031 49.289062 C 80.308594 49.300781 79.960938 49.5625 79.839844 49.945312 C 79.714844 50.324219 79.847656 50.742188 80.167969 50.980469 L 83.167969 53.242188 C 83.335938 53.371094 83.535156 53.429688 83.734375 53.429688 C 84.019531 53.429688 84.300781 53.300781 84.488281 53.054688 C 84.800781 52.640625 84.71875 52.050781 84.300781 51.738281 L 82.777344 50.589844 C 83.085938 50.414062 83.398438 50.1875 83.699219 49.898438 C 84.484375 49.136719 84.859375 48.261719 85.039062 47.660156 Z M 89.03125 52.9375 C 88.585938 52.664062 88.007812 52.800781 87.734375 53.242188 C 87.667969 53.347656 86.097656 55.835938 83.382812 55.835938 L 83.363281 55.835938 C 81.960938 55.828125 80.894531 55.160156 80.386719 54.761719 C 79.976562 54.441406 79.382812 54.515625 79.066406 54.925781 C 78.746094 55.335938 78.816406 55.925781 79.226562 56.246094 C 79.925781 56.792969 81.390625 57.710938 83.351562 57.71875 L 83.382812 57.71875 C 87.070312 57.71875 89.113281 54.589844 89.335938 54.234375 C 89.609375 53.789062 89.472656 53.210938 89.03125 52.9375 Z M 89.488281 45.117188 C 88.652344 44.800781 87.695312 45.28125 87.351562 46.191406 C 87.007812 47.101562 87.410156 48.09375 88.242188 48.410156 C 89.078125 48.722656 90.035156 48.242188 90.378906 47.332031 C 90.722656 46.421875 90.324219 45.429688 89.488281 45.117188 Z M 89.488281 45.117188 C 88.652344 44.800781 87.695312 45.28125 87.351562 46.191406 C 87.007812 47.101562 87.410156 48.09375 88.242188 48.410156 C 89.078125 48.722656 90.035156 48.242188 90.378906 47.332031 C 90.722656 46.421875 90.324219 45.429688 89.488281 45.117188 Z M 89.03125 52.9375 C 88.585938 52.664062 88.007812 52.800781 87.734375 53.242188 C 87.667969 53.347656 86.097656 55.835938 83.382812 55.835938 L 83.363281 55.835938 C 81.960938 55.828125 80.894531 55.160156 80.386719 54.761719 C 79.976562 54.441406 79.382812 54.515625 79.066406 54.925781 C 78.746094 55.335938 78.816406 55.925781 79.226562 56.246094 C 79.925781 56.792969 81.390625 57.710938 83.351562 57.71875 L 83.382812 57.71875 C 87.070312 57.71875 89.113281 54.589844 89.335938 54.234375 C 89.609375 53.789062 89.472656 53.210938 89.03125 52.9375 Z M 80.167969 50.980469 L 83.167969 53.242188 C 83.335938 53.371094 83.535156 53.429688 83.734375 53.429688 C 84.019531 53.429688 84.300781 53.300781 84.488281 53.054688 C 84.800781 52.640625 84.71875 52.050781 84.300781 51.738281 L 82.777344 50.589844 C 83.085938 50.414062 83.398438 50.1875 83.699219 49.898438 C 84.484375 49.136719 84.859375 48.261719 85.039062 47.660156 C 85.191406 47.164062 84.90625 46.636719 84.40625 46.488281 C 83.910156 46.339844 83.386719 46.621094 83.234375 47.121094 C 83.140625 47.4375 82.90625 48.042969 82.386719 48.542969 C 81.71875 49.191406 80.992188 49.28125 80.707031 49.289062 C 80.308594 49.300781 79.960938 49.5625 79.839844 49.945312 C 79.714844 50.324219 79.847656 50.742188 80.167969 50.980469 Z M 81.144531 45.730469 C 81.980469 46.046875 82.9375 45.5625 83.28125 44.652344 C 83.625 43.746094 83.226562 42.75 82.390625 42.4375 C 81.554688 42.121094 80.597656 42.601562 80.253906 43.511719 C 79.910156 44.421875 80.308594 45.414062 81.144531 45.730469 Z M 132.554688 105.199219 C 131.480469 99.289062 129.707031 93.757812 127.277344 88.769531 C 124.296875 82.640625 120.308594 77.277344 115.417969 72.832031 C 109.578125 67.519531 102.605469 63.597656 94.679688 61.167969 C 94.664062 60.773438 94.621094 60.375 94.558594 59.980469 C 94.742188 59.851562 94.910156 59.726562 95.058594 59.617188 C 95.234375 59.824219 95.429688 60.015625 95.644531 60.191406 C 96.519531 60.90625 97.601562 61.269531 98.785156 61.269531 C 99.261719 61.269531 99.757812 61.210938 100.265625 61.089844 C 101.921875 60.6875 103.496094 59.660156 104.691406 58.191406 C 105.023438 57.785156 105.316406 57.355469 105.566406 56.914062 C 109.65625 55.117188 112.519531 51.332031 113.066406 46.957031 C 113.808594 41.085938 110.054688 37.074219 109.066406 36.132812 C 107.507812 31.792969 104.699219 28.011719 101.144531 25.46875 C 97.558594 22.898438 93.371094 21.6875 89.355469 22.050781 C 86.183594 22.339844 82.820312 23.636719 80.136719 25.605469 C 77.042969 27.875 75.019531 30.839844 74.277344 34.183594 C 73.664062 36.960938 73.96875 39.957031 75.160156 42.875 C 74.296875 46.121094 73.796875 49.542969 73.757812 52.695312 C 73.683594 58.023438 74.929688 61.957031 77.28125 63.929688 C 70.585938 64.824219 64.09375 64.28125 57.949219 62.292969 C 35.953125 55.183594 28.152344 32.675781 26.808594 28.234375 C 26.664062 27.75 26.164062 27.46875 25.675781 27.59375 L 21.734375 28.597656 C 22.769531 24.765625 23.40625 21.710938 23.636719 19.503906 C 23.949219 16.5 23.550781 14.898438 22.347656 14.304688 C 21.03125 13.65625 19.328125 14.503906 16.761719 17.125 L 10.242188 1.113281 C 10.164062 0.921875 10.023438 0.761719 9.84375 0.65625 C 8.339844 -0.222656 6.527344 -0.21875 5.109375 0.667969 C 3.511719 1.671875 3.140625 3.34375 3.066406 3.832031 C 3.039062 4.007812 3.0625 4.1875 3.132812 4.351562 L 8.652344 17.058594 C 7.003906 17.742188 5.480469 18.667969 4.109375 19.816406 C 2.542969 21.128906 1.226562 22.6875 0.199219 24.453125 C 0.0273438 24.746094 0.0273438 25.105469 0.199219 25.398438 C 1.101562 26.957031 2.09375 28.492188 3.144531 29.953125 C 3.832031 30.910156 4.554688 31.855469 5.304688 32.773438 L 0.78125 33.921875 C 0.535156 33.984375 0.324219 34.144531 0.199219 34.363281 C 0.0703125 34.582031 0.0390625 34.839844 0.105469 35.085938 C 1.378906 39.722656 3.882812 46.890625 8.589844 54.722656 C 11.652344 59.820312 15.230469 64.476562 19.230469 68.5625 C 24.085938 73.523438 29.617188 77.699219 35.664062 80.96875 C 48.328125 87.820312 60.800781 89.414062 69.660156 89.414062 C 70.082031 89.414062 70.5 89.410156 70.90625 89.402344 C 71.15625 95.027344 71.542969 100.714844 72.0625 106.3125 C 72.671875 112.890625 73.476562 119.535156 74.457031 126.066406 C 74.527344 126.527344 74.921875 126.867188 75.390625 126.867188 L 112.964844 126.867188 C 112.964844 126.867188 112.96875 126.867188 112.96875 126.867188 L 132.453125 126.867188 C 132.933594 126.867188 133.335938 126.503906 133.390625 126.027344 C 133.726562 123 134.320312 114.910156 132.554688 105.199219 Z M 76.117188 34.589844 C 77.503906 28.332031 84.058594 24.425781 89.527344 23.925781 C 96.992188 23.25 104.496094 28.738281 107.367188 36.976562 C 107.421875 37.125 107.511719 37.261719 107.632812 37.371094 C 108.070312 37.757812 111.878906 41.316406 111.199219 46.722656 C 110.8125 49.785156 109.089844 52.511719 106.542969 54.234375 C 106.707031 53.269531 106.679688 52.3125 106.4375 51.433594 C 106.160156 50.421875 105.605469 49.554688 104.835938 48.925781 C 104.523438 48.671875 104.175781 48.457031 103.804688 48.289062 C 103.796875 48.285156 103.789062 48.28125 103.78125 48.277344 C 103.769531 48.273438 103.761719 48.269531 103.75 48.261719 C 103.746094 48.261719 103.738281 48.257812 103.734375 48.257812 C 103.71875 48.25 103.699219 48.246094 103.683594 48.238281 C 103.671875 48.234375 103.65625 48.230469 103.644531 48.226562 C 103.628906 48.222656 103.613281 48.21875 103.601562 48.214844 C 103.582031 48.210938 103.566406 48.207031 103.550781 48.203125 C 103.539062 48.199219 103.527344 48.199219 103.515625 48.195312 C 103.496094 48.195312 103.476562 48.191406 103.460938 48.191406 C 103.449219 48.1875 103.4375 48.1875 103.425781 48.1875 C 103.40625 48.1875 103.386719 48.183594 103.367188 48.183594 C 103.355469 48.183594 103.34375 48.1875 103.335938 48.1875 C 103.316406 48.1875 103.296875 48.1875 103.28125 48.191406 C 103.265625 48.191406 103.253906 48.195312 103.238281 48.195312 C 103.222656 48.199219 103.207031 48.199219 103.191406 48.203125 C 103.175781 48.207031 103.160156 48.210938 103.144531 48.214844 C 103.128906 48.21875 103.117188 48.222656 103.105469 48.226562 C 103.089844 48.230469 103.070312 48.234375 103.054688 48.242188 C 103.042969 48.246094 103.03125 48.25 103.019531 48.253906 C 103.003906 48.261719 102.988281 48.269531 102.972656 48.277344 C 102.960938 48.28125 102.949219 48.289062 102.9375 48.292969 C 102.921875 48.300781 102.910156 48.308594 102.894531 48.316406 C 102.882812 48.324219 102.867188 48.332031 102.855469 48.34375 C 102.84375 48.351562 102.832031 48.359375 102.820312 48.363281 C 102.804688 48.375 102.789062 48.386719 102.777344 48.398438 C 102.773438 48.402344 102.769531 48.40625 102.765625 48.410156 L 99.199219 51.4375 L 100.871094 44.5 C 100.941406 44.21875 100.875 43.917969 100.695312 43.691406 C 100.511719 43.464844 100.242188 43.335938 99.945312 43.335938 C 98.351562 43.355469 95.214844 43.078125 92.144531 41.046875 C 89.515625 39.308594 88.058594 37.058594 87.300781 35.476562 C 87.191406 35.246094 86.992188 35.074219 86.753906 34.992188 C 86.511719 34.910156 86.25 34.929688 86.023438 35.042969 C 84.558594 35.792969 83 36.285156 81.390625 36.511719 C 80.308594 36.664062 79.203125 36.695312 78.109375 36.601562 C 78.039062 36.59375 77.96875 36.59375 77.898438 36.605469 C 77.890625 36.605469 77.882812 36.605469 77.875 36.605469 C 77.851562 36.609375 77.832031 36.613281 77.8125 36.617188 C 77.796875 36.621094 77.785156 36.625 77.773438 36.625 C 77.757812 36.632812 77.742188 36.636719 77.726562 36.640625 C 77.710938 36.644531 77.695312 36.648438 77.683594 36.65625 C 77.667969 36.660156 77.652344 36.664062 77.640625 36.671875 C 77.625 36.675781 77.613281 36.683594 77.601562 36.6875 C 77.585938 36.695312 77.570312 36.703125 77.554688 36.710938 L 77.523438 36.730469 C 77.507812 36.738281 77.492188 36.75 77.476562 36.757812 C 77.46875 36.765625 77.457031 36.773438 77.449219 36.777344 C 77.433594 36.789062 77.417969 36.800781 77.402344 36.8125 C 77.394531 36.820312 77.386719 36.828125 77.378906 36.835938 C 77.367188 36.847656 77.351562 36.859375 77.335938 36.875 C 77.328125 36.882812 77.320312 36.890625 77.3125 36.902344 C 77.300781 36.914062 77.289062 36.925781 77.277344 36.941406 C 77.265625 36.953125 77.257812 36.964844 77.246094 36.976562 C 77.238281 36.992188 77.230469 37 77.222656 37.015625 C 77.210938 37.03125 77.199219 37.046875 77.1875 37.066406 C 77.183594 37.074219 77.179688 37.082031 77.175781 37.089844 C 77.175781 37.089844 77.175781 37.09375 77.175781 37.09375 C 77.167969 37.101562 77.164062 37.113281 77.15625 37.125 C 77.152344 37.136719 77.148438 37.148438 77.140625 37.15625 C 76.78125 37.96875 76.449219 38.816406 76.140625 39.691406 C 75.820312 38.1875 75.710938 36.4375 76.117188 34.589844 Z M 75.640625 52.722656 C 75.679688 49.640625 76.183594 46.285156 77.042969 43.117188 C 77.054688 43.074219 77.070312 43.03125 77.078125 42.984375 C 77.503906 41.433594 78.019531 39.925781 78.605469 38.523438 C 79.625 38.566406 80.648438 38.519531 81.652344 38.378906 C 83.164062 38.164062 84.632812 37.742188 86.03125 37.125 C 86.976562 38.824219 88.554688 40.929688 91.105469 42.617188 C 93.9375 44.492188 96.816406 45.050781 98.769531 45.1875 L 96.691406 53.804688 C 96.59375 54.203125 96.765625 54.617188 97.113281 54.828125 C 97.265625 54.921875 97.4375 54.96875 97.605469 54.96875 C 97.824219 54.96875 98.042969 54.890625 98.214844 54.746094 L 103.488281 50.265625 C 103.542969 50.304688 103.597656 50.34375 103.648438 50.386719 C 104.117188 50.769531 104.445312 51.289062 104.621094 51.933594 C 104.9375 53.085938 104.726562 54.453125 104.070312 55.726562 C 104.070312 55.730469 104.066406 55.734375 104.066406 55.738281 C 103.839844 56.175781 103.558594 56.601562 103.230469 57 C 102.292969 58.152344 101.082031 58.953125 99.820312 59.257812 C 98.65625 59.539062 97.59375 59.351562 96.835938 58.730469 C 96.539062 58.488281 96.296875 58.1875 96.113281 57.839844 C 96.101562 57.808594 96.082031 57.78125 96.066406 57.753906 C 96.050781 57.730469 96.035156 57.707031 96.015625 57.6875 C 96.015625 57.683594 96.011719 57.679688 96.011719 57.675781 C 95.96875 57.625 95.925781 57.582031 95.878906 57.539062 C 95.871094 57.535156 95.863281 57.53125 95.855469 57.527344 C 95.839844 57.511719 95.824219 57.5 95.804688 57.484375 C 95.78125 57.472656 95.761719 57.457031 95.738281 57.445312 C 95.734375 57.445312 95.730469 57.441406 95.726562 57.4375 C 95.703125 57.425781 95.679688 57.414062 95.65625 57.402344 C 95.652344 57.402344 95.648438 57.398438 95.644531 57.398438 C 95.625 57.390625 95.601562 57.382812 95.578125 57.375 C 95.570312 57.371094 95.566406 57.367188 95.558594 57.367188 C 95.539062 57.363281 95.519531 57.355469 95.503906 57.351562 C 95.492188 57.347656 95.480469 57.347656 95.472656 57.34375 C 95.457031 57.339844 95.441406 57.339844 95.425781 57.335938 C 95.410156 57.332031 95.398438 57.332031 95.382812 57.328125 C 95.371094 57.328125 95.355469 57.328125 95.34375 57.328125 C 95.328125 57.324219 95.308594 57.324219 95.292969 57.324219 C 95.28125 57.324219 95.269531 57.324219 95.261719 57.324219 C 95.238281 57.324219 95.21875 57.324219 95.199219 57.324219 C 95.1875 57.324219 95.175781 57.328125 95.164062 57.332031 C 95.144531 57.332031 95.128906 57.335938 95.109375 57.335938 C 95.019531 57.351562 94.929688 57.382812 94.84375 57.425781 C 94.839844 57.429688 94.835938 57.429688 94.832031 57.433594 C 94.808594 57.445312 94.785156 57.460938 94.761719 57.472656 C 94.738281 57.492188 94.710938 57.507812 94.6875 57.527344 C 94.683594 57.53125 94.683594 57.53125 94.679688 57.535156 C 94.535156 57.648438 93.910156 58.140625 92.972656 58.796875 C 92.96875 58.796875 92.96875 58.800781 92.964844 58.800781 C 91.773438 59.632812 90.070312 60.730469 88.1875 61.660156 C 85.402344 63.039062 81.558594 64.371094 79.054688 62.886719 C 76.816406 61.558594 75.570312 57.855469 75.640625 52.722656 Z M 92.78125 62.339844 C 92.660156 63.820312 92.144531 65.238281 91.261719 66.421875 C 90.164062 67.898438 88.597656 68.84375 87.078125 68.945312 C 86.976562 68.953125 86.875 68.957031 86.773438 68.957031 C 84.722656 68.957031 82.613281 67.539062 81.347656 65.417969 C 81.46875 65.425781 81.589844 65.429688 81.714844 65.429688 C 83.785156 65.429688 86.226562 64.734375 89.023438 63.351562 C 90.414062 62.664062 91.710938 61.886719 92.796875 61.183594 C 92.796875 61.210938 92.800781 61.242188 92.800781 61.269531 C 92.738281 61.351562 92.691406 61.449219 92.660156 61.554688 C 92.582031 61.832031 92.632812 62.117188 92.78125 62.339844 Z M 4.671875 28.855469 C 3.765625 27.589844 2.90625 26.273438 2.109375 24.933594 C 2.984375 23.550781 4.058594 22.316406 5.316406 21.261719 C 6.773438 20.042969 8.421875 19.105469 10.21875 18.472656 C 10.464844 18.386719 10.664062 18.203125 10.769531 17.960938 C 10.875 17.722656 10.875 17.449219 10.769531 17.210938 L 4.980469 3.875 C 5.085938 3.472656 5.371094 2.726562 6.109375 2.265625 C 6.851562 1.804688 7.792969 1.761719 8.628906 2.144531 L 15.570312 19.195312 C 15.691406 19.496094 15.960938 19.710938 16.277344 19.765625 C 16.597656 19.824219 16.921875 19.710938 17.140625 19.472656 C 20.578125 15.6875 21.507812 15.992188 21.515625 15.996094 C 21.519531 15.996094 22.066406 16.402344 21.761719 19.308594 C 21.523438 21.609375 20.808594 24.910156 19.636719 29.128906 L 7.324219 32.257812 C 6.398438 31.160156 5.507812 30.019531 4.671875 28.855469 Z M 131.601562 124.984375 L 114.039062 124.984375 C 114.699219 119.605469 114.695312 114.171875 114.027344 108.824219 C 113.550781 105.023438 112.734375 101.234375 111.59375 97.5625 C 111.441406 97.066406 110.914062 96.785156 110.417969 96.941406 C 109.917969 97.09375 109.640625 97.621094 109.796875 98.117188 C 110.902344 101.683594 111.695312 105.367188 112.15625 109.058594 C 112.816406 114.328125 112.808594 119.683594 112.136719 124.984375 L 76.199219 124.984375 C 75.28125 118.746094 74.519531 112.410156 73.9375 106.140625 C 73.394531 100.265625 72.992188 94.296875 72.746094 88.398438 C 72.746094 88.382812 72.746094 88.367188 72.742188 88.355469 C 72.742188 88.339844 72.742188 88.324219 72.738281 88.308594 C 72.734375 88.289062 72.734375 88.273438 72.730469 88.253906 C 72.726562 88.242188 72.726562 88.230469 72.722656 88.21875 C 72.714844 88.195312 72.710938 88.171875 72.703125 88.148438 C 72.699219 88.144531 72.699219 88.136719 72.695312 88.128906 C 72.574219 87.78125 72.257812 87.53125 71.882812 87.5 C 71.878906 87.5 71.875 87.5 71.875 87.5 C 71.851562 87.496094 71.832031 87.496094 71.808594 87.496094 C 71.800781 87.496094 71.789062 87.496094 71.777344 87.496094 C 63.09375 87.753906 49.933594 86.542969 36.558594 79.3125 C 13.621094 66.910156 4.996094 45.214844 2.183594 35.511719 L 7.230469 34.226562 C 7.230469 34.226562 7.234375 34.226562 7.238281 34.226562 L 25.277344 29.640625 C 26.140625 32.265625 28.390625 38.277344 32.664062 44.652344 C 35.535156 48.941406 38.832031 52.671875 42.464844 55.746094 C 46.9375 59.527344 51.953125 62.335938 57.371094 64.085938 C 64.320312 66.332031 71.683594 66.816406 79.273438 65.53125 C 80.777344 68.710938 83.753906 70.839844 86.769531 70.839844 C 86.914062 70.839844 87.0625 70.835938 87.207031 70.824219 C 89.300781 70.683594 91.328125 69.488281 92.773438 67.546875 C 93.746094 66.242188 94.359375 64.71875 94.589844 63.113281 C 102.054688 65.46875 108.628906 69.203125 114.148438 74.226562 C 133.253906 91.601562 132.253906 117.964844 131.601562 124.984375 Z M 88.242188 48.410156 C 89.078125 48.722656 90.035156 48.242188 90.378906 47.332031 C 90.722656 46.421875 90.324219 45.429688 89.488281 45.117188 C 88.652344 44.800781 87.695312 45.28125 87.351562 46.191406 C 87.007812 47.101562 87.410156 48.09375 88.242188 48.410156 Z M 79.226562 56.246094 C 79.925781 56.792969 81.390625 57.710938 83.351562 57.71875 L 83.382812 57.71875 C 87.070312 57.71875 89.113281 54.589844 89.335938 54.234375 C 89.609375 53.789062 89.472656 53.210938 89.03125 52.9375 C 88.585938 52.664062 88.007812 52.800781 87.734375 53.242188 C 87.667969 53.347656 86.097656 55.835938 83.382812 55.835938 L 83.363281 55.835938 C 81.960938 55.828125 80.894531 55.160156 80.386719 54.761719 C 79.976562 54.441406 79.382812 54.515625 79.066406 54.925781 C 78.746094 55.335938 78.816406 55.925781 79.226562 56.246094 Z M 80.167969 50.980469 L 83.167969 53.242188 C 83.335938 53.371094 83.535156 53.429688 83.734375 53.429688 C 84.019531 53.429688 84.300781 53.300781 84.488281 53.054688 C 84.800781 52.640625 84.71875 52.050781 84.300781 51.738281 L 82.777344 50.589844 C 83.085938 50.414062 83.398438 50.1875 83.699219 49.898438 C 84.484375 49.136719 84.859375 48.261719 85.039062 47.660156 C 85.191406 47.164062 84.90625 46.636719 84.40625 46.488281 C 83.910156 46.339844 83.386719 46.621094 83.234375 47.121094 C 83.140625 47.4375 82.90625 48.042969 82.386719 48.542969 C 81.71875 49.191406 80.992188 49.28125 80.707031 49.289062 C 80.308594 49.300781 79.960938 49.5625 79.839844 49.945312 C 79.714844 50.324219 79.847656 50.742188 80.167969 50.980469 Z M 81.144531 45.730469 C 81.980469 46.046875 82.9375 45.5625 83.28125 44.652344 C 83.625 43.746094 83.226562 42.75 82.390625 42.4375 C 81.554688 42.121094 80.597656 42.601562 80.253906 43.511719 C 79.910156 44.421875 80.308594 45.414062 81.144531 45.730469 Z M 82.390625 42.4375 C 81.554688 42.121094 80.597656 42.601562 80.253906 43.511719 C 79.910156 44.421875 80.308594 45.414062 81.144531 45.730469 C 81.980469 46.046875 82.9375 45.5625 83.28125 44.652344 C 83.625 43.746094 83.226562 42.75 82.390625 42.4375 Z M 85.039062 47.660156 C 85.191406 47.164062 84.90625 46.636719 84.40625 46.488281 C 83.910156 46.339844 83.386719 46.621094 83.234375 47.121094 C 83.140625 47.4375 82.90625 48.042969 82.386719 48.542969 C 81.71875 49.191406 80.992188 49.28125 80.707031 49.289062 C 80.308594 49.300781 79.960938 49.5625 79.839844 49.945312 C 79.714844 50.324219 79.847656 50.742188 80.167969 50.980469 L 83.167969 53.242188 C 83.335938 53.371094 83.535156 53.429688 83.734375 53.429688 C 84.019531 53.429688 84.300781 53.300781 84.488281 53.054688 C 84.800781 52.640625 84.71875 52.050781 84.300781 51.738281 L 82.777344 50.589844 C 83.085938 50.414062 83.398438 50.1875 83.699219 49.898438 C 84.484375 49.136719 84.859375 48.261719 85.039062 47.660156 Z M 89.03125 52.9375 C 88.585938 52.664062 88.007812 52.800781 87.734375 53.242188 C 87.667969 53.347656 86.097656 55.835938 83.382812 55.835938 L 83.363281 55.835938 C 81.960938 55.828125 80.894531 55.160156 80.386719 54.761719 C 79.976562 54.441406 79.382812 54.515625 79.066406 54.925781 C 78.746094 55.335938 78.816406 55.925781 79.226562 56.246094 C 79.925781 56.792969 81.390625 57.710938 83.351562 57.71875 L 83.382812 57.71875 C 87.070312 57.71875 89.113281 54.589844 89.335938 54.234375 C 89.609375 53.789062 89.472656 53.210938 89.03125 52.9375 Z M 89.488281 45.117188 C 88.652344 44.800781 87.695312 45.28125 87.351562 46.191406 C 87.007812 47.101562 87.410156 48.09375 88.242188 48.410156 C 89.078125 48.722656 90.035156 48.242188 90.378906 47.332031 C 90.722656 46.421875 90.324219 45.429688 89.488281 45.117188 Z M 89.488281 45.117188 C 88.652344 44.800781 87.695312 45.28125 87.351562 46.191406 C 87.007812 47.101562 87.410156 48.09375 88.242188 48.410156 C 89.078125 48.722656 90.035156 48.242188 90.378906 47.332031 C 90.722656 46.421875 90.324219 45.429688 89.488281 45.117188 Z M 89.03125 52.9375 C 88.585938 52.664062 88.007812 52.800781 87.734375 53.242188 C 87.667969 53.347656 86.097656 55.835938 83.382812 55.835938 L 83.363281 55.835938 C 81.960938 55.828125 80.894531 55.160156 80.386719 54.761719 C 79.976562 54.441406 79.382812 54.515625 79.066406 54.925781 C 78.746094 55.335938 78.816406 55.925781 79.226562 56.246094 C 79.925781 56.792969 81.390625 57.710938 83.351562 57.71875 L 83.382812 57.71875 C 87.070312 57.71875 89.113281 54.589844 89.335938 54.234375 C 89.609375 53.789062 89.472656 53.210938 89.03125 52.9375 Z M 85.039062 47.660156 C 85.191406 47.164062 84.90625 46.636719 84.40625 46.488281 C 83.910156 46.339844 83.386719 46.621094 83.234375 47.121094 C 83.140625 47.4375 82.90625 48.042969 82.386719 48.542969 C 81.71875 49.191406 80.992188 49.28125 80.707031 49.289062 C 80.308594 49.300781 79.960938 49.5625 79.839844 49.945312 C 79.714844 50.324219 79.847656 50.742188 80.167969 50.980469 L 83.167969 53.242188 C 83.335938 53.371094 83.535156 53.429688 83.734375 53.429688 C 84.019531 53.429688 84.300781 53.300781 84.488281 53.054688 C 84.800781 52.640625 84.71875 52.050781 84.300781 51.738281 L 82.777344 50.589844 C 83.085938 50.414062 83.398438 50.1875 83.699219 49.898438 C 84.484375 49.136719 84.859375 48.261719 85.039062 47.660156 Z M 82.390625 42.4375 C 81.554688 42.121094 80.597656 42.601562 80.253906 43.511719 C 79.910156 44.421875 80.308594 45.414062 81.144531 45.730469 C 81.980469 46.046875 82.9375 45.5625 83.28125 44.652344 C 83.625 43.746094 83.226562 42.75 82.390625 42.4375 Z M 82.390625 42.4375 C 81.554688 42.121094 80.597656 42.601562 80.253906 43.511719 C 79.910156 44.421875 80.308594 45.414062 81.144531 45.730469 C 81.980469 46.046875 82.9375 45.5625 83.28125 44.652344 C 83.625 43.746094 83.226562 42.75 82.390625 42.4375 Z M 85.039062 47.660156 C 85.191406 47.164062 84.90625 46.636719 84.40625 46.488281 C 83.910156 46.339844 83.386719 46.621094 83.234375 47.121094 C 83.140625 47.4375 82.90625 48.042969 82.386719 48.542969 C 81.71875 49.191406 80.992188 49.28125 80.707031 49.289062 C 80.308594 49.300781 79.960938 49.5625 79.839844 49.945312 C 79.714844 50.324219 79.847656 50.742188 80.167969 50.980469 L 83.167969 53.242188 C 83.335938 53.371094 83.535156 53.429688 83.734375 53.429688 C 84.019531 53.429688 84.300781 53.300781 84.488281 53.054688 C 84.800781 52.640625 84.71875 52.050781 84.300781 51.738281 L 82.777344 50.589844 C 83.085938 50.414062 83.398438 50.1875 83.699219 49.898438 C 84.484375 49.136719 84.859375 48.261719 85.039062 47.660156 Z M 89.03125 52.9375 C 88.585938 52.664062 88.007812 52.800781 87.734375 53.242188 C 87.667969 53.347656 86.097656 55.835938 83.382812 55.835938 L 83.363281 55.835938 C 81.960938 55.828125 80.894531 55.160156 80.386719 54.761719 C 79.976562 54.441406 79.382812 54.515625 79.066406 54.925781 C 78.746094 55.335938 78.816406 55.925781 79.226562 56.246094 C 79.925781 56.792969 81.390625 57.710938 83.351562 57.71875 L 83.382812 57.71875 C 87.070312 57.71875 89.113281 54.589844 89.335938 54.234375 C 89.609375 53.789062 89.472656 53.210938 89.03125 52.9375 Z M 89.488281 45.117188 C 88.652344 44.800781 87.695312 45.28125 87.351562 46.191406 C 87.007812 47.101562 87.410156 48.09375 88.242188 48.410156 C 89.078125 48.722656 90.035156 48.242188 90.378906 47.332031 C 90.722656 46.421875 90.324219 45.429688 89.488281 45.117188 Z M 89.488281 45.117188 C 88.652344 44.800781 87.695312 45.28125 87.351562 46.191406 C 87.007812 47.101562 87.410156 48.09375 88.242188 48.410156 C 89.078125 48.722656 90.035156 48.242188 90.378906 47.332031 C 90.722656 46.421875 90.324219 45.429688 89.488281 45.117188 Z M 89.03125 52.9375 C 88.585938 52.664062 88.007812 52.800781 87.734375 53.242188 C 87.667969 53.347656 86.097656 55.835938 83.382812 55.835938 L 83.363281 55.835938 C 81.960938 55.828125 80.894531 55.160156 80.386719 54.761719 C 79.976562 54.441406 79.382812 54.515625 79.066406 54.925781 C 78.746094 55.335938 78.816406 55.925781 79.226562 56.246094 C 79.925781 56.792969 81.390625 57.710938 83.351562 57.71875 L 83.382812 57.71875 C 87.070312 57.71875 89.113281 54.589844 89.335938 54.234375 C 89.609375 53.789062 89.472656 53.210938 89.03125 52.9375 Z M 85.039062 47.660156 C 85.191406 47.164062 84.90625 46.636719 84.40625 46.488281 C 83.910156 46.339844 83.386719 46.621094 83.234375 47.121094 C 83.140625 47.4375 82.90625 48.042969 82.386719 48.542969 C 81.71875 49.191406 80.992188 49.28125 80.707031 49.289062 C 80.308594 49.300781 79.960938 49.5625 79.839844 49.945312 C 79.714844 50.324219 79.847656 50.742188 80.167969 50.980469 L 83.167969 53.242188 C 83.335938 53.371094 83.535156 53.429688 83.734375 53.429688 C 84.019531 53.429688 84.300781 53.300781 84.488281 53.054688 C 84.800781 52.640625 84.71875 52.050781 84.300781 51.738281 L 82.777344 50.589844 C 83.085938 50.414062 83.398438 50.1875 83.699219 49.898438 C 84.484375 49.136719 84.859375 48.261719 85.039062 47.660156 Z M 82.390625 42.4375 C 81.554688 42.121094 80.597656 42.601562 80.253906 43.511719 C 79.910156 44.421875 80.308594 45.414062 81.144531 45.730469 C 81.980469 46.046875 82.9375 45.5625 83.28125 44.652344 C 83.625 43.746094 83.226562 42.75 82.390625 42.4375 Z M 85.039062 47.660156 C 85.191406 47.164062 84.90625 46.636719 84.40625 46.488281 C 83.910156 46.339844 83.386719 46.621094 83.234375 47.121094 C 83.140625 47.4375 82.90625 48.042969 82.386719 48.542969 C 81.71875 49.191406 80.992188 49.28125 80.707031 49.289062 C 80.308594 49.300781 79.960938 49.5625 79.839844 49.945312 C 79.714844 50.324219 79.847656 50.742188 80.167969 50.980469 L 83.167969 53.242188 C 83.335938 53.371094 83.535156 53.429688 83.734375 53.429688 C 84.019531 53.429688 84.300781 53.300781 84.488281 53.054688 C 84.800781 52.640625 84.71875 52.050781 84.300781 51.738281 L 82.777344 50.589844 C 83.085938 50.414062 83.398438 50.1875 83.699219 49.898438 C 84.484375 49.136719 84.859375 48.261719 85.039062 47.660156 Z M 89.03125 52.9375 C 88.585938 52.664062 88.007812 52.800781 87.734375 53.242188 C 87.667969 53.347656 86.097656 55.835938 83.382812 55.835938 L 83.363281 55.835938 C 81.960938 55.828125 80.894531 55.160156 80.386719 54.761719 C 79.976562 54.441406 79.382812 54.515625 79.066406 54.925781 C 78.746094 55.335938 78.816406 55.925781 79.226562 56.246094 C 79.925781 56.792969 81.390625 57.710938 83.351562 57.71875 L 83.382812 57.71875 C 87.070312 57.71875 89.113281 54.589844 89.335938 54.234375 C 89.609375 53.789062 89.472656 53.210938 89.03125 52.9375 Z M 82.390625 42.4375 C 81.554688 42.121094 80.597656 42.601562 80.253906 43.511719 C 79.910156 44.421875 80.308594 45.414062 81.144531 45.730469 C 81.980469 46.046875 82.9375 45.5625 83.28125 44.652344 C 83.625 43.746094 83.226562 42.75 82.390625 42.4375 Z M 89.488281 45.117188 C 88.652344 44.800781 87.695312 45.28125 87.351562 46.191406 C 87.007812 47.101562 87.410156 48.09375 88.242188 48.410156 C 89.078125 48.722656 90.035156 48.242188 90.378906 47.332031 C 90.722656 46.421875 90.324219 45.429688 89.488281 45.117188 Z M 89.488281 45.117188 " fill-opacity="1" fill-rule="nonzero"/></g></svg>