<svg xmlns="http://www.w3.org/2000/svg" xmlns:xlink="http://www.w3.org/1999/xlink" width="205" zoomAndPan="magnify" viewBox="0 0 153.75 124.499996" height="166" preserveAspectRatio="xMidYMid meet" version="1.0"><defs><clipPath id="ec429ffb13"><path d="M 0.183594 0 L 152.570312 0 L 152.570312 124 L 0.183594 124 Z M 0.183594 0 " clip-rule="nonzero"/></clipPath></defs><path fill="#2a4dcc" d="M 143.738281 107.597656 C 143.234375 109.414062 142.378906 111.058594 141.199219 112.480469 C 139.75 114.230469 137.875 115.507812 135.640625 116.285156 C 133.996094 116.851562 132.1875 117.140625 130.261719 117.140625 C 128.921875 117.140625 127.894531 116.996094 127.402344 116.910156 C 122.652344 116.097656 119.769531 113.179688 115.40625 108.757812 C 111.390625 104.691406 108.007812 99.9375 105.347656 94.632812 C 105.238281 94.414062 105.023438 94.277344 104.777344 94.277344 C 104.679688 94.277344 104.585938 94.300781 104.492188 94.347656 C 104.179688 94.503906 104.054688 94.886719 104.210938 95.199219 C 106.929688 100.625 110.390625 105.488281 114.503906 109.652344 C 116.234375 111.40625 117.734375 112.921875 119.253906 114.210938 L 119.40625 114.335938 L 119.40625 122.097656 L 57.246094 122.097656 L 57.28125 121.640625 C 57.84375 114.765625 58.601562 107.808594 59.53125 100.964844 C 60.714844 92.257812 62.214844 83.46875 63.992188 74.847656 L 64.117188 74.25 L 64.632812 74.574219 C 65.683594 75.226562 66.644531 75.8125 67.574219 76.359375 C 67.675781 76.417969 67.78125 76.445312 67.898438 76.445312 C 68.121094 76.445312 68.332031 76.328125 68.445312 76.132812 C 68.53125 75.988281 68.554688 75.816406 68.515625 75.652344 C 68.472656 75.488281 68.367188 75.351562 68.21875 75.265625 C 59.636719 70.207031 51.59375 64.222656 44.324219 57.484375 C 33.84375 47.769531 24.929688 36.488281 17.824219 23.949219 L 17.648438 23.636719 L 17.929688 23.410156 L 22.003906 20.148438 L 22.089844 20.082031 L 22.195312 20.0625 C 22.40625 20.023438 22.582031 19.882812 22.664062 19.683594 L 22.707031 19.585938 L 22.789062 19.519531 L 30.558594 13.296875 L 30.605469 13.261719 L 30.660156 13.238281 C 30.769531 13.195312 30.863281 13.121094 30.929688 13.023438 L 30.964844 12.976562 L 31.007812 12.9375 L 33.667969 10.8125 L 34.039062 10.515625 L 34.292969 10.917969 C 37.675781 16.3125 41.511719 21.378906 45.691406 25.980469 C 51.636719 32.523438 58.363281 38.222656 65.683594 42.910156 C 70.363281 45.90625 75.363281 48.535156 80.539062 50.71875 L 80.617188 50.75 L 80.675781 50.8125 C 82.253906 52.425781 83.890625 53.347656 85.539062 53.546875 L 85.71875 53.570312 L 85.824219 53.714844 C 87.03125 55.300781 88.917969 56.289062 90.757812 56.289062 C 91.5 56.289062 92.195312 56.132812 92.832031 55.828125 C 94.132812 55.199219 95.117188 53.917969 95.523438 52.316406 C 95.820312 51.160156 95.78125 49.945312 95.417969 48.796875 L 95.179688 48.042969 L 95.9375 48.261719 C 101.25 49.78125 106.195312 52.105469 110.640625 55.175781 C 123.664062 64.164062 129.070312 77.269531 131.132812 84.277344 L 131.164062 84.394531 L 131.132812 84.511719 L 127.328125 98.398438 C 127.285156 98.558594 127.308594 98.734375 127.390625 98.882812 C 127.476562 99.03125 127.617188 99.136719 127.78125 99.179688 L 142.378906 102.988281 C 142.433594 103.003906 142.484375 103.007812 142.539062 103.007812 C 142.828125 103.007812 143.078125 102.816406 143.152344 102.539062 L 143.300781 101.984375 L 143.863281 99.878906 L 144.132812 102.042969 C 144.367188 103.941406 144.234375 105.808594 143.738281 107.601562 Z M 143.738281 107.597656 " fill-opacity="1" fill-rule="nonzero"/><path fill="#fc7f74" d="M 104.664062 25.285156 C 104.394531 26.523438 103.933594 27.761719 103.289062 28.960938 L 103.082031 29.347656 L 102.703125 29.125 C 102.261719 28.863281 101.792969 28.6875 101.304688 28.601562 C 101.0625 28.554688 100.808594 28.53125 100.554688 28.53125 C 100.445312 28.53125 100.332031 28.535156 100.21875 28.546875 L 100.203125 28.546875 C 100.203125 28.546875 100.199219 28.546875 100.199219 28.546875 C 100.195312 28.546875 100.191406 28.546875 100.1875 28.546875 C 100.179688 28.546875 100.175781 28.546875 100.167969 28.546875 C 100.167969 28.546875 100.164062 28.546875 100.164062 28.546875 L 100.144531 28.546875 C 100.132812 28.550781 100.121094 28.550781 100.113281 28.554688 C 100.113281 28.554688 100.09375 28.558594 100.09375 28.558594 L 100.085938 28.558594 C 100.085938 28.558594 100.082031 28.558594 100.082031 28.558594 L 100.074219 28.5625 L 100.0625 28.5625 C 100.058594 28.566406 100.050781 28.566406 100.046875 28.570312 C 100.035156 28.570312 100.023438 28.574219 100.011719 28.578125 L 100 28.582031 L 99.996094 28.582031 C 98.636719 29.050781 97.230469 29.285156 95.824219 29.285156 C 95.480469 29.285156 95.128906 29.269531 94.78125 29.242188 C 91.929688 29.007812 89.75 27.851562 88.421875 26.921875 L 88.191406 26.757812 L 88.25 26.484375 C 88.550781 25.121094 88.828125 22.5625 87.328125 20.761719 C 86.390625 19.640625 84.890625 18.953125 83.097656 18.824219 C 82.890625 18.808594 82.683594 18.800781 82.472656 18.800781 C 79.980469 18.800781 77.328125 19.890625 75.203125 21.796875 C 75.074219 21.90625 75 22.0625 74.992188 22.230469 L 74.75 26.605469 L 74.746094 26.679688 L 74.714844 26.75 L 73.167969 30.269531 L 72.941406 30.78125 L 72.507812 30.425781 C 71.070312 29.234375 68.644531 26.660156 68.535156 22.75 C 68.492188 21.140625 68.84375 19.582031 69.578125 18.113281 C 70.804688 15.675781 72.683594 14.3125 72.894531 14.167969 C 72.960938 14.117188 73.019531 14.058594 73.066406 13.988281 C 74.402344 11.882812 76.078125 10.277344 78.042969 9.21875 C 79.847656 8.246094 81.886719 7.75 84.109375 7.75 L 84.109375 7.964844 L 84.109375 7.75 C 89.597656 7.75 94.917969 10.714844 97.597656 12.484375 L 97.722656 12.5625 C 97.84375 12.640625 97.960938 12.722656 98.082031 12.800781 L 98.09375 12.808594 L 98.097656 12.8125 L 98.113281 12.820312 C 101.109375 14.804688 103.664062 16.738281 104.59375 20.316406 C 105.007812 21.894531 105.027344 23.566406 104.660156 25.285156 Z M 104.664062 25.285156 " fill-opacity="1" fill-rule="nonzero"/><path fill="#f4d7d3" d="M 94.207031 49.175781 C 94.5 50.101562 94.527344 51.078125 94.292969 52 C 93.980469 53.21875 93.226562 54.21875 92.277344 54.679688 C 91.835938 54.894531 91.3125 55.003906 90.761719 55.003906 C 89.789062 55.003906 88.789062 54.660156 87.941406 54.039062 L 87.277344 53.546875 L 88.0625 53.292969 C 89.859375 52.71875 91.679688 51.285156 93.46875 49.039062 L 93.964844 48.414062 L 94.203125 49.175781 Z M 102.757812 30.78125 C 103.898438 31.953125 104.378906 33.925781 104.011719 35.929688 C 103.742188 37.394531 103.0625 38.6875 102.097656 39.5625 C 101.34375 40.253906 100.492188 40.617188 99.636719 40.617188 C 99.460938 40.617188 99.28125 40.601562 99.109375 40.570312 C 98.753906 40.507812 98.410156 40.375 98.09375 40.179688 L 98.050781 40.179688 L 97.972656 40.105469 L 97.96875 40.105469 L 97.953125 40.089844 C 97.953125 40.089844 97.941406 40.085938 97.9375 40.082031 L 97.609375 40.082031 L 97.609375 40 C 97.609375 40 97.601562 40 97.601562 40 L 97.582031 40 C 97.574219 40 97.566406 40.003906 97.558594 40.003906 C 97.546875 40.003906 97.535156 40.003906 97.523438 40.007812 L 97.503906 40.011719 L 97.496094 40.011719 C 97.492188 40.011719 97.484375 40.015625 97.480469 40.015625 L 97.476562 40.015625 C 97.476562 40.015625 97.472656 40.019531 97.472656 40.019531 L 97.464844 40.023438 C 97.457031 40.023438 97.449219 40.023438 97.445312 40.027344 C 97.4375 40.027344 97.425781 40.03125 97.417969 40.035156 C 97.410156 40.039062 97.398438 40.042969 97.390625 40.042969 C 97.386719 40.046875 97.378906 40.050781 97.375 40.050781 C 97.363281 40.054688 97.351562 40.0625 97.335938 40.070312 L 97.328125 40.074219 L 97.324219 40.078125 C 97.292969 40.09375 97.265625 40.109375 97.234375 40.132812 C 97.226562 40.140625 97.21875 40.148438 97.207031 40.15625 L 97.195312 40.167969 C 97.1875 40.171875 97.183594 40.179688 97.175781 40.183594 C 97.148438 40.210938 97.125 40.242188 97.101562 40.277344 C 97.097656 40.277344 97.097656 40.285156 97.09375 40.289062 L 97.089844 40.289062 C 97.085938 40.300781 97.078125 40.3125 97.070312 40.324219 L 97.070312 40.652344 L 96.925781 40.652344 C 96.550781 41.519531 95.328125 44.203125 93.550781 46.789062 L 93.53125 46.820312 L 93.503906 46.847656 C 93.453125 46.898438 93.414062 46.953125 93.382812 47.019531 L 93.367188 47.050781 L 93.347656 47.082031 C 91.660156 49.472656 89.054688 52.320312 86.222656 52.320312 C 86.179688 52.320312 86.136719 52.320312 86.089844 52.316406 C 84.769531 52.273438 83.402344 51.609375 82.03125 50.339844 C 80.703125 49.109375 79.4375 47.378906 78.273438 45.195312 C 76.109375 41.132812 74.558594 35.972656 74.125 31.390625 L 74.113281 31.28125 L 74.15625 31.179688 L 75.957031 27.085938 C 75.988281 27.019531 76.007812 26.945312 76.011719 26.871094 L 76.238281 22.753906 L 76.25 22.570312 L 76.390625 22.453125 C 78.242188 20.917969 80.402344 20.074219 82.472656 20.074219 C 82.652344 20.074219 82.832031 20.078125 83.007812 20.09375 C 84.433594 20.199219 85.652344 20.738281 86.351562 21.578125 C 87.808594 23.324219 87.023438 26.25 86.851562 26.820312 C 86.777344 27.074219 86.863281 27.34375 87.070312 27.503906 C 88.625 28.71875 91.207031 30.226562 94.679688 30.511719 C 95.0625 30.542969 95.449219 30.558594 95.828125 30.558594 C 97.328125 30.558594 98.828125 30.316406 100.28125 29.832031 L 100.335938 29.8125 L 100.394531 29.8125 C 100.445312 29.808594 100.5 29.804688 100.554688 29.804688 C 100.730469 29.804688 100.90625 29.820312 101.078125 29.851562 C 101.707031 29.96875 102.273438 30.28125 102.761719 30.78125 Z M 82.6875 39.484375 C 82.703125 39.753906 82.886719 39.988281 83.144531 40.0625 L 86.613281 41.078125 C 86.667969 41.09375 86.730469 41.105469 86.789062 41.105469 C 87.070312 41.105469 87.320312 40.917969 87.398438 40.648438 C 87.445312 40.484375 87.429688 40.3125 87.347656 40.164062 C 87.265625 40.011719 87.128906 39.90625 86.96875 39.855469 L 85.425781 39.40625 L 84.839844 39.234375 L 85.207031 38.746094 C 85.371094 38.527344 85.511719 38.285156 85.632812 38.03125 C 86.054688 37.136719 86.09375 36.269531 86.054688 35.699219 C 86.03125 35.367188 85.753906 35.109375 85.425781 35.109375 C 85.410156 35.109375 85.394531 35.109375 85.375 35.109375 C 85.027344 35.132812 84.761719 35.441406 84.789062 35.789062 C 84.8125 36.132812 84.804688 36.808594 84.480469 37.492188 C 84.058594 38.386719 83.363281 38.75 83.082031 38.867188 C 82.832031 38.96875 82.675781 39.21875 82.691406 39.488281 Z M 84.089844 45.121094 C 84.527344 45.257812 85.21875 45.417969 86.042969 45.417969 C 86.765625 45.417969 87.46875 45.296875 88.128906 45.050781 C 91.332031 43.855469 92.082031 40.464844 92.15625 40.082031 C 92.222656 39.738281 91.996094 39.402344 91.652344 39.335938 C 91.613281 39.328125 91.570312 39.324219 91.53125 39.324219 C 91.226562 39.324219 90.964844 39.539062 90.90625 39.835938 C 90.882812 39.960938 90.285156 42.886719 87.683594 43.859375 C 87.167969 44.050781 86.617188 44.148438 86.042969 44.148438 C 85.378906 44.148438 84.820312 44.015625 84.46875 43.90625 C 84.40625 43.886719 84.34375 43.878906 84.28125 43.878906 C 84 43.878906 83.757812 44.058594 83.671875 44.324219 C 83.570312 44.660156 83.757812 45.019531 84.089844 45.121094 Z M 90.589844 33.570312 C 90.589844 32.871094 90.082031 32.304688 89.460938 32.304688 C 88.835938 32.304688 88.328125 32.871094 88.328125 33.570312 C 88.328125 34.273438 88.835938 34.839844 89.460938 34.839844 C 90.085938 34.839844 90.589844 34.273438 90.589844 33.570312 Z M 82.164062 32.304688 C 81.539062 32.304688 81.03125 32.871094 81.03125 33.570312 C 81.03125 34.273438 81.539062 34.839844 82.164062 34.839844 C 82.789062 34.839844 83.296875 34.273438 83.296875 33.570312 C 83.296875 32.871094 82.789062 32.304688 82.164062 32.304688 Z M 28.761719 6.542969 C 28.046875 3.597656 27.105469 1.789062 26.242188 1.703125 L 26.222656 1.699219 L 26.199219 1.699219 C 25.847656 1.699219 24.546875 2.039062 22.550781 6.421875 C 22.449219 6.648438 22.21875 6.792969 21.96875 6.792969 C 21.957031 6.792969 21.941406 6.792969 21.925781 6.792969 C 20.011719 6.65625 18.082031 6.425781 16.1875 6.105469 C 12.589844 5.5 9.007812 4.550781 5.546875 3.285156 L 5.308594 3.199219 L 5.117188 3.367188 C 4.148438 4.226562 2.863281 5.71875 2.234375 7.949219 C 1.585938 10.25 1.941406 12.25 2.351562 13.519531 L 2.425781 13.742188 L 2.652344 13.800781 L 21.570312 18.652344 L 21.777344 18.707031 L 21.941406 18.574219 L 29.558594 12.476562 L 29.742188 12.328125 L 29.714844 12.09375 C 29.550781 10.683594 29.253906 8.574219 28.761719 6.546875 Z M 150.648438 85.175781 L 147.472656 84.351562 L 147.429688 84.3125 L 147.355469 84.3125 C 147.355469 84.3125 147.308594 84.3125 147.308594 84.3125 L 143.511719 83.328125 L 143.128906 83.230469 L 143.003906 83.601562 C 142.566406 84.886719 142.222656 86.214844 141.992188 87.546875 C 141.765625 88.839844 141.636719 90.164062 141.605469 91.488281 L 141.597656 91.898438 L 142.007812 91.921875 L 145.117188 92.097656 C 145.117188 92.097656 145.160156 92.101562 145.160156 92.101562 L 146.8125 92.191406 C 147.125 92.210938 147.382812 92.457031 147.410156 92.769531 L 147.472656 93.421875 L 146.800781 93.460938 C 146.792969 93.460938 146.78125 93.460938 146.773438 93.460938 C 146.765625 93.460938 146.753906 93.460938 146.742188 93.460938 L 145.941406 93.417969 L 145.597656 93.398438 L 145.507812 93.730469 L 145.203125 94.867188 L 144.875 96.097656 L 145.875 95.308594 C 146.320312 94.957031 146.742188 94.578125 147.128906 94.183594 L 147.503906 93.800781 L 147.507812 93.84375 L 147.695312 93.605469 L 147.898438 93.394531 L 147.855469 93.398438 L 148.167969 92.992188 C 150.191406 90.371094 150.804688 87.539062 150.964844 85.625 L 150.996094 85.269531 L 150.652344 85.179688 Z M 150.648438 85.175781 " fill-opacity="1" fill-rule="nonzero"/><path fill="#00b7ed" d="M 148.84375 76.25 L 148.738281 76.648438 L 147.179688 82.527344 L 147.074219 82.9375 L 146.664062 82.832031 L 142.894531 81.855469 C 142.84375 81.839844 142.789062 81.832031 142.734375 81.832031 C 142.476562 81.832031 142.234375 82 142.140625 82.242188 C 141.515625 83.882812 141.042969 85.589844 140.738281 87.328125 C 140.441406 89.035156 140.304688 90.777344 140.332031 92.511719 C 140.339844 92.84375 140.601562 93.117188 140.933594 93.132812 L 143.777344 93.292969 L 144.296875 93.320312 L 144.164062 93.824219 L 142.195312 101.1875 L 142.085938 101.59375 L 141.679688 101.488281 L 129.140625 98.214844 L 128.726562 98.109375 L 128.839844 97.695312 L 135.65625 72.816406 L 135.773438 72.402344 L 136.1875 72.523438 L 148.449219 76.128906 L 148.84375 76.246094 Z M 148.84375 76.25 " fill-opacity="1" fill-rule="nonzero"/><g clip-path="url(#ec429ffb13)"><path fill="#000000" d="M 89.460938 31.878906 C 88.601562 31.878906 87.90625 32.636719 87.90625 33.570312 C 87.90625 34.507812 88.601562 35.265625 89.460938 35.265625 C 90.320312 35.265625 91.015625 34.507812 91.015625 33.570312 C 91.015625 32.636719 90.320312 31.878906 89.460938 31.878906 Z M 82.164062 31.878906 C 81.304688 31.878906 80.609375 32.636719 80.609375 33.570312 C 80.609375 34.507812 81.304688 35.265625 82.164062 35.265625 C 83.023438 35.265625 83.71875 34.507812 83.71875 33.570312 C 83.71875 32.636719 83.023438 31.878906 82.164062 31.878906 Z M 91.734375 38.921875 C 91.160156 38.808594 90.601562 39.183594 90.492188 39.757812 C 90.46875 39.871094 89.914062 42.574219 87.535156 43.460938 C 86.316406 43.914062 85.167969 43.679688 84.59375 43.503906 C 84.035156 43.328125 83.441406 43.640625 83.265625 44.199219 C 83.09375 44.757812 83.402344 45.351562 83.960938 45.527344 C 84.433594 45.671875 85.167969 45.84375 86.042969 45.84375 C 86.722656 45.84375 87.484375 45.742188 88.273438 45.445312 C 91.695312 44.175781 92.492188 40.570312 92.570312 40.164062 C 92.683594 39.589844 92.308594 39.03125 91.734375 38.921875 Z M 87.085938 39.449219 L 85.546875 39 C 85.714844 38.769531 85.875 38.507812 86.015625 38.210938 C 86.476562 37.230469 86.519531 36.289062 86.476562 35.667969 C 86.4375 35.085938 85.925781 34.644531 85.347656 34.6875 C 84.761719 34.726562 84.320312 35.234375 84.363281 35.816406 C 84.382812 36.117188 84.378906 36.710938 84.097656 37.308594 C 83.738281 38.070312 83.152344 38.375 82.917969 38.472656 C 82.503906 38.644531 82.242188 39.058594 82.265625 39.507812 C 82.289062 39.957031 82.59375 40.34375 83.027344 40.46875 L 86.492188 41.484375 C 86.589844 41.515625 86.691406 41.527344 86.789062 41.527344 C 87.25 41.527344 87.671875 41.226562 87.804688 40.765625 C 87.96875 40.203125 87.648438 39.613281 87.085938 39.449219 Z M 82.164062 31.878906 C 81.304688 31.878906 80.609375 32.636719 80.609375 33.570312 C 80.609375 34.507812 81.304688 35.265625 82.164062 35.265625 C 83.023438 35.265625 83.71875 34.507812 83.71875 33.570312 C 83.71875 32.636719 83.023438 31.878906 82.164062 31.878906 Z M 87.085938 39.449219 L 85.546875 39 C 85.714844 38.769531 85.875 38.507812 86.015625 38.210938 C 86.476562 37.230469 86.519531 36.289062 86.476562 35.667969 C 86.4375 35.085938 85.925781 34.644531 85.347656 34.6875 C 84.761719 34.726562 84.320312 35.234375 84.363281 35.816406 C 84.382812 36.117188 84.378906 36.710938 84.097656 37.308594 C 83.738281 38.070312 83.152344 38.375 82.917969 38.472656 C 82.503906 38.644531 82.242188 39.058594 82.265625 39.507812 C 82.289062 39.957031 82.59375 40.34375 83.027344 40.46875 L 86.492188 41.484375 C 86.589844 41.515625 86.691406 41.527344 86.789062 41.527344 C 87.25 41.527344 87.671875 41.226562 87.804688 40.765625 C 87.96875 40.203125 87.648438 39.613281 87.085938 39.449219 Z M 89.460938 31.878906 C 88.601562 31.878906 87.90625 32.636719 87.90625 33.570312 C 87.90625 34.507812 88.601562 35.265625 89.460938 35.265625 C 90.320312 35.265625 91.015625 34.507812 91.015625 33.570312 C 91.015625 32.636719 90.320312 31.878906 89.460938 31.878906 Z M 91.734375 38.921875 C 91.160156 38.808594 90.601562 39.183594 90.492188 39.757812 C 90.46875 39.871094 89.914062 42.574219 87.535156 43.460938 C 86.316406 43.914062 85.167969 43.679688 84.59375 43.503906 C 84.035156 43.328125 83.441406 43.640625 83.265625 44.199219 C 83.09375 44.757812 83.402344 45.351562 83.960938 45.527344 C 84.433594 45.671875 85.167969 45.84375 86.042969 45.84375 C 86.722656 45.84375 87.484375 45.742188 88.273438 45.445312 C 91.695312 44.175781 92.492188 40.570312 92.570312 40.164062 C 92.683594 39.589844 92.308594 39.03125 91.734375 38.921875 Z M 91.734375 38.921875 C 91.160156 38.808594 90.601562 39.183594 90.492188 39.757812 C 90.46875 39.871094 89.914062 42.574219 87.535156 43.460938 C 86.316406 43.914062 85.167969 43.679688 84.59375 43.503906 C 84.035156 43.328125 83.441406 43.640625 83.265625 44.199219 C 83.09375 44.757812 83.402344 45.351562 83.960938 45.527344 C 84.433594 45.671875 85.167969 45.84375 86.042969 45.84375 C 86.722656 45.84375 87.484375 45.742188 88.273438 45.445312 C 91.695312 44.175781 92.492188 40.570312 92.570312 40.164062 C 92.683594 39.589844 92.308594 39.03125 91.734375 38.921875 Z M 89.460938 31.878906 C 88.601562 31.878906 87.90625 32.636719 87.90625 33.570312 C 87.90625 34.507812 88.601562 35.265625 89.460938 35.265625 C 90.320312 35.265625 91.015625 34.507812 91.015625 33.570312 C 91.015625 32.636719 90.320312 31.878906 89.460938 31.878906 Z M 87.085938 39.449219 L 85.546875 39 C 85.714844 38.769531 85.875 38.507812 86.015625 38.210938 C 86.476562 37.230469 86.519531 36.289062 86.476562 35.667969 C 86.4375 35.085938 85.925781 34.644531 85.347656 34.6875 C 84.761719 34.726562 84.320312 35.234375 84.363281 35.816406 C 84.382812 36.117188 84.378906 36.710938 84.097656 37.308594 C 83.738281 38.070312 83.152344 38.375 82.917969 38.472656 C 82.503906 38.644531 82.242188 39.058594 82.265625 39.507812 C 82.289062 39.957031 82.59375 40.34375 83.027344 40.46875 L 86.492188 41.484375 C 86.589844 41.515625 86.691406 41.527344 86.789062 41.527344 C 87.25 41.527344 87.671875 41.226562 87.804688 40.765625 C 87.96875 40.203125 87.648438 39.613281 87.085938 39.449219 Z M 82.164062 31.878906 C 81.304688 31.878906 80.609375 32.636719 80.609375 33.570312 C 80.609375 34.507812 81.304688 35.265625 82.164062 35.265625 C 83.023438 35.265625 83.71875 34.507812 83.71875 33.570312 C 83.71875 32.636719 83.023438 31.878906 82.164062 31.878906 Z M 82.164062 31.878906 C 81.304688 31.878906 80.609375 32.636719 80.609375 33.570312 C 80.609375 34.507812 81.304688 35.265625 82.164062 35.265625 C 83.023438 35.265625 83.71875 34.507812 83.71875 33.570312 C 83.71875 32.636719 83.023438 31.878906 82.164062 31.878906 Z M 87.085938 39.449219 L 85.546875 39 C 85.714844 38.769531 85.875 38.507812 86.015625 38.210938 C 86.476562 37.230469 86.519531 36.289062 86.476562 35.667969 C 86.4375 35.085938 85.925781 34.644531 85.347656 34.6875 C 84.761719 34.726562 84.320312 35.234375 84.363281 35.816406 C 84.382812 36.117188 84.378906 36.710938 84.097656 37.308594 C 83.738281 38.070312 83.152344 38.375 82.917969 38.472656 C 82.503906 38.644531 82.242188 39.058594 82.265625 39.507812 C 82.289062 39.957031 82.59375 40.34375 83.027344 40.46875 L 86.492188 41.484375 C 86.589844 41.515625 86.691406 41.527344 86.789062 41.527344 C 87.25 41.527344 87.671875 41.226562 87.804688 40.765625 C 87.96875 40.203125 87.648438 39.613281 87.085938 39.449219 Z M 89.460938 31.878906 C 88.601562 31.878906 87.90625 32.636719 87.90625 33.570312 C 87.90625 34.507812 88.601562 35.265625 89.460938 35.265625 C 90.320312 35.265625 91.015625 34.507812 91.015625 33.570312 C 91.015625 32.636719 90.320312 31.878906 89.460938 31.878906 Z M 91.734375 38.921875 C 91.160156 38.808594 90.601562 39.183594 90.492188 39.757812 C 90.46875 39.871094 89.914062 42.574219 87.535156 43.460938 C 86.316406 43.914062 85.167969 43.679688 84.59375 43.503906 C 84.035156 43.328125 83.441406 43.640625 83.265625 44.199219 C 83.09375 44.757812 83.402344 45.351562 83.960938 45.527344 C 84.433594 45.671875 85.167969 45.84375 86.042969 45.84375 C 86.722656 45.84375 87.484375 45.742188 88.273438 45.445312 C 91.695312 44.175781 92.492188 40.570312 92.570312 40.164062 C 92.683594 39.589844 92.308594 39.03125 91.734375 38.921875 Z M 91.734375 38.921875 C 91.160156 38.808594 90.601562 39.183594 90.492188 39.757812 C 90.46875 39.871094 89.914062 42.574219 87.535156 43.460938 C 86.316406 43.914062 85.167969 43.679688 84.59375 43.503906 C 84.035156 43.328125 83.441406 43.640625 83.265625 44.199219 C 83.09375 44.757812 83.402344 45.351562 83.960938 45.527344 C 84.433594 45.671875 85.167969 45.84375 86.042969 45.84375 C 86.722656 45.84375 87.484375 45.742188 88.273438 45.445312 C 91.695312 44.175781 92.492188 40.570312 92.570312 40.164062 C 92.683594 39.589844 92.308594 39.03125 91.734375 38.921875 Z M 89.460938 31.878906 C 88.601562 31.878906 87.90625 32.636719 87.90625 33.570312 C 87.90625 34.507812 88.601562 35.265625 89.460938 35.265625 C 90.320312 35.265625 91.015625 34.507812 91.015625 33.570312 C 91.015625 32.636719 90.320312 31.878906 89.460938 31.878906 Z M 87.085938 39.449219 L 85.546875 39 C 85.714844 38.769531 85.875 38.507812 86.015625 38.210938 C 86.476562 37.230469 86.519531 36.289062 86.476562 35.667969 C 86.4375 35.085938 85.925781 34.644531 85.347656 34.6875 C 84.761719 34.726562 84.320312 35.234375 84.363281 35.816406 C 84.382812 36.117188 84.378906 36.710938 84.097656 37.308594 C 83.738281 38.070312 83.152344 38.375 82.917969 38.472656 C 82.503906 38.644531 82.242188 39.058594 82.265625 39.507812 C 82.289062 39.957031 82.59375 40.34375 83.027344 40.46875 L 86.492188 41.484375 C 86.589844 41.515625 86.691406 41.527344 86.789062 41.527344 C 87.25 41.527344 87.671875 41.226562 87.804688 40.765625 C 87.96875 40.203125 87.648438 39.613281 87.085938 39.449219 Z M 82.164062 31.878906 C 81.304688 31.878906 80.609375 32.636719 80.609375 33.570312 C 80.609375 34.507812 81.304688 35.265625 82.164062 35.265625 C 83.023438 35.265625 83.71875 34.507812 83.71875 33.570312 C 83.71875 32.636719 83.023438 31.878906 82.164062 31.878906 Z M 82.164062 31.878906 C 81.304688 31.878906 80.609375 32.636719 80.609375 33.570312 C 80.609375 34.507812 81.304688 35.265625 82.164062 35.265625 C 83.023438 35.265625 83.71875 34.507812 83.71875 33.570312 C 83.71875 32.636719 83.023438 31.878906 82.164062 31.878906 Z M 87.085938 39.449219 L 85.546875 39 C 85.714844 38.769531 85.875 38.507812 86.015625 38.210938 C 86.476562 37.230469 86.519531 36.289062 86.476562 35.667969 C 86.4375 35.085938 85.925781 34.644531 85.347656 34.6875 C 84.761719 34.726562 84.320312 35.234375 84.363281 35.816406 C 84.382812 36.117188 84.378906 36.710938 84.097656 37.308594 C 83.738281 38.070312 83.152344 38.375 82.917969 38.472656 C 82.503906 38.644531 82.242188 39.058594 82.265625 39.507812 C 82.289062 39.957031 82.59375 40.34375 83.027344 40.46875 L 86.492188 41.484375 C 86.589844 41.515625 86.691406 41.527344 86.789062 41.527344 C 87.25 41.527344 87.671875 41.226562 87.804688 40.765625 C 87.96875 40.203125 87.648438 39.613281 87.085938 39.449219 Z M 89.460938 31.878906 C 88.601562 31.878906 87.90625 32.636719 87.90625 33.570312 C 87.90625 34.507812 88.601562 35.265625 89.460938 35.265625 C 90.320312 35.265625 91.015625 34.507812 91.015625 33.570312 C 91.015625 32.636719 90.320312 31.878906 89.460938 31.878906 Z M 91.734375 38.921875 C 91.160156 38.808594 90.601562 39.183594 90.492188 39.757812 C 90.46875 39.871094 89.914062 42.574219 87.535156 43.460938 C 86.316406 43.914062 85.167969 43.679688 84.59375 43.503906 C 84.035156 43.328125 83.441406 43.640625 83.265625 44.199219 C 83.09375 44.757812 83.402344 45.351562 83.960938 45.527344 C 84.433594 45.671875 85.167969 45.84375 86.042969 45.84375 C 86.722656 45.84375 87.484375 45.742188 88.273438 45.445312 C 91.695312 44.175781 92.492188 40.570312 92.570312 40.164062 C 92.683594 39.589844 92.308594 39.03125 91.734375 38.921875 Z M 91.734375 38.921875 C 91.160156 38.808594 90.601562 39.183594 90.492188 39.757812 C 90.46875 39.871094 89.914062 42.574219 87.535156 43.460938 C 86.316406 43.914062 85.167969 43.679688 84.59375 43.503906 C 84.035156 43.328125 83.441406 43.640625 83.265625 44.199219 C 83.09375 44.757812 83.402344 45.351562 83.960938 45.527344 C 84.433594 45.671875 85.167969 45.84375 86.042969 45.84375 C 86.722656 45.84375 87.484375 45.742188 88.273438 45.445312 C 91.695312 44.175781 92.492188 40.570312 92.570312 40.164062 C 92.683594 39.589844 92.308594 39.03125 91.734375 38.921875 Z M 89.460938 31.878906 C 88.601562 31.878906 87.90625 32.636719 87.90625 33.570312 C 87.90625 34.507812 88.601562 35.265625 89.460938 35.265625 C 90.320312 35.265625 91.015625 34.507812 91.015625 33.570312 C 91.015625 32.636719 90.320312 31.878906 89.460938 31.878906 Z M 87.085938 39.449219 L 85.546875 39 C 85.714844 38.769531 85.875 38.507812 86.015625 38.210938 C 86.476562 37.230469 86.519531 36.289062 86.476562 35.667969 C 86.4375 35.085938 85.925781 34.644531 85.347656 34.6875 C 84.761719 34.726562 84.320312 35.234375 84.363281 35.816406 C 84.382812 36.117188 84.378906 36.710938 84.097656 37.308594 C 83.738281 38.070312 83.152344 38.375 82.917969 38.472656 C 82.503906 38.644531 82.242188 39.058594 82.265625 39.507812 C 82.289062 39.957031 82.59375 40.34375 83.027344 40.46875 L 86.492188 41.484375 C 86.589844 41.515625 86.691406 41.527344 86.789062 41.527344 C 87.25 41.527344 87.671875 41.226562 87.804688 40.765625 C 87.96875 40.203125 87.648438 39.613281 87.085938 39.449219 Z M 82.164062 31.878906 C 81.304688 31.878906 80.609375 32.636719 80.609375 33.570312 C 80.609375 34.507812 81.304688 35.265625 82.164062 35.265625 C 83.023438 35.265625 83.71875 34.507812 83.71875 33.570312 C 83.71875 32.636719 83.023438 31.878906 82.164062 31.878906 Z M 82.164062 31.878906 C 81.304688 31.878906 80.609375 32.636719 80.609375 33.570312 C 80.609375 34.507812 81.304688 35.265625 82.164062 35.265625 C 83.023438 35.265625 83.71875 34.507812 83.71875 33.570312 C 83.71875 32.636719 83.023438 31.878906 82.164062 31.878906 Z M 87.085938 39.449219 L 85.546875 39 C 85.714844 38.769531 85.875 38.507812 86.015625 38.210938 C 86.476562 37.230469 86.519531 36.289062 86.476562 35.667969 C 86.4375 35.085938 85.925781 34.644531 85.347656 34.6875 C 84.761719 34.726562 84.320312 35.234375 84.363281 35.816406 C 84.382812 36.117188 84.378906 36.710938 84.097656 37.308594 C 83.738281 38.070312 83.152344 38.375 82.917969 38.472656 C 82.503906 38.644531 82.242188 39.058594 82.265625 39.507812 C 82.289062 39.957031 82.59375 40.34375 83.027344 40.46875 L 86.492188 41.484375 C 86.589844 41.515625 86.691406 41.527344 86.789062 41.527344 C 87.25 41.527344 87.671875 41.226562 87.804688 40.765625 C 87.96875 40.203125 87.648438 39.613281 87.085938 39.449219 Z M 89.460938 31.878906 C 88.601562 31.878906 87.90625 32.636719 87.90625 33.570312 C 87.90625 34.507812 88.601562 35.265625 89.460938 35.265625 C 90.320312 35.265625 91.015625 34.507812 91.015625 33.570312 C 91.015625 32.636719 90.320312 31.878906 89.460938 31.878906 Z M 91.734375 38.921875 C 91.160156 38.808594 90.601562 39.183594 90.492188 39.757812 C 90.46875 39.871094 89.914062 42.574219 87.535156 43.460938 C 86.316406 43.914062 85.167969 43.679688 84.59375 43.503906 C 84.035156 43.328125 83.441406 43.640625 83.265625 44.199219 C 83.09375 44.757812 83.402344 45.351562 83.960938 45.527344 C 84.433594 45.671875 85.167969 45.84375 86.042969 45.84375 C 86.722656 45.84375 87.484375 45.742188 88.273438 45.445312 C 91.695312 44.175781 92.492188 40.570312 92.570312 40.164062 C 92.683594 39.589844 92.308594 39.03125 91.734375 38.921875 Z M 91.734375 38.921875 C 91.160156 38.808594 90.601562 39.183594 90.492188 39.757812 C 90.46875 39.871094 89.914062 42.574219 87.535156 43.460938 C 86.316406 43.914062 85.167969 43.679688 84.59375 43.503906 C 84.035156 43.328125 83.441406 43.640625 83.265625 44.199219 C 83.09375 44.757812 83.402344 45.351562 83.960938 45.527344 C 84.433594 45.671875 85.167969 45.84375 86.042969 45.84375 C 86.722656 45.84375 87.484375 45.742188 88.273438 45.445312 C 91.695312 44.175781 92.492188 40.570312 92.570312 40.164062 C 92.683594 39.589844 92.308594 39.03125 91.734375 38.921875 Z M 89.460938 35.265625 C 90.320312 35.265625 91.015625 34.507812 91.015625 33.570312 C 91.015625 32.636719 90.320312 31.878906 89.460938 31.878906 C 88.601562 31.878906 87.90625 32.636719 87.90625 33.570312 C 87.90625 34.507812 88.601562 35.265625 89.460938 35.265625 Z M 86.789062 41.527344 C 87.25 41.527344 87.671875 41.226562 87.804688 40.765625 C 87.96875 40.203125 87.648438 39.613281 87.085938 39.449219 L 85.546875 39 C 85.714844 38.769531 85.875 38.507812 86.015625 38.210938 C 86.476562 37.230469 86.519531 36.289062 86.476562 35.667969 C 86.4375 35.085938 85.925781 34.644531 85.347656 34.6875 C 84.761719 34.726562 84.320312 35.234375 84.363281 35.816406 C 84.382812 36.117188 84.378906 36.710938 84.097656 37.308594 C 83.738281 38.070312 83.152344 38.375 82.917969 38.472656 C 82.503906 38.644531 82.242188 39.058594 82.265625 39.507812 C 82.289062 39.957031 82.59375 40.34375 83.027344 40.46875 L 86.492188 41.484375 C 86.589844 41.515625 86.691406 41.527344 86.789062 41.527344 Z M 83.71875 33.570312 C 83.71875 32.636719 83.023438 31.878906 82.164062 31.878906 C 81.304688 31.878906 80.609375 32.636719 80.609375 33.570312 C 80.609375 34.507812 81.304688 35.265625 82.164062 35.265625 C 83.023438 35.265625 83.71875 34.507812 83.71875 33.570312 Z M 151.914062 83.753906 L 148.824219 82.953125 L 150.644531 76.085938 C 150.789062 75.527344 150.46875 74.957031 149.917969 74.796875 L 135.628906 70.59375 C 135.359375 70.511719 135.0625 70.546875 134.816406 70.683594 C 134.566406 70.824219 134.382812 71.054688 134.308594 71.328125 L 131.746094 80.679688 C 129.027344 73.054688 123.28125 61.835938 111.605469 53.777344 C 106.832031 50.484375 101.511719 48.023438 95.792969 46.457031 C 96.863281 44.726562 97.675781 43.089844 98.148438 42.070312 C 98.359375 42.140625 98.578125 42.199219 98.800781 42.238281 C 99.082031 42.289062 99.363281 42.316406 99.648438 42.316406 C 100.914062 42.316406 102.164062 41.800781 103.242188 40.816406 C 104.476562 39.6875 105.34375 38.0625 105.675781 36.238281 C 106.085938 34.027344 105.640625 31.8125 104.515625 30.242188 C 105.667969 28.253906 107.390625 24.3125 106.238281 19.890625 C 105.15625 15.734375 102.207031 13.496094 99.023438 11.390625 C 99.011719 11.382812 99 11.375 98.988281 11.367188 C 98.839844 11.269531 98.6875 11.171875 98.539062 11.070312 C 95.894531 9.328125 93.234375 8.011719 90.632812 7.160156 C 85.535156 5.492188 81.027344 5.683594 77.238281 7.726562 C 75.070312 8.898438 73.222656 10.640625 71.746094 12.90625 C 71.097656 13.394531 69.300781 14.890625 68.0625 17.355469 C 67.203125 19.070312 66.792969 20.902344 66.84375 22.796875 C 67 28.496094 71.210938 31.691406 72.546875 32.5625 C 73.179688 37.519531 75.03125 43.285156 77.683594 47.589844 C 73.851562 45.792969 70.136719 43.746094 66.601562 41.480469 C 53.925781 33.363281 43.332031 22.441406 35.109375 9.015625 C 34.949219 8.753906 34.6875 8.574219 34.386719 8.523438 C 34.085938 8.472656 33.777344 8.550781 33.542969 8.738281 L 31.230469 10.589844 C 31.050781 9.285156 30.785156 7.691406 30.410156 6.144531 C 29.4375 2.132812 28.164062 0.1875 26.40625 0.015625 C 24.707031 -0.148438 23.039062 1.496094 21.324219 5.046875 C 19.699219 4.910156 18.070312 4.707031 16.46875 4.4375 C 12.769531 3.8125 9.101562 2.820312 5.570312 1.484375 C 5.222656 1.355469 4.835938 1.414062 4.546875 1.640625 C 3.449219 2.492188 1.476562 4.378906 0.601562 7.488281 C -0.292969 10.660156 0.445312 13.34375 0.960938 14.664062 C 1.085938 14.980469 1.355469 15.21875 1.683594 15.304688 L 19.605469 19.898438 L 16.167969 22.648438 C 15.765625 22.972656 15.652344 23.542969 15.90625 23.992188 C 23.167969 37.003906 32.339844 48.691406 43.171875 58.730469 C 49.140625 64.265625 55.625 69.292969 62.496094 73.726562 C 60.640625 82.640625 59.078125 91.722656 57.851562 100.738281 C 56.867188 107.988281 56.074219 115.359375 55.5 122.652344 C 55.476562 122.949219 55.578125 123.238281 55.777344 123.457031 C 55.980469 123.671875 56.261719 123.796875 56.554688 123.796875 L 120.042969 123.796875 C 120.625 123.796875 121.101562 123.320312 121.101562 122.738281 L 121.101562 116.148438 C 122.890625 117.347656 124.804688 118.1875 127.113281 118.585938 C 127.679688 118.683594 128.832031 118.839844 130.304688 118.839844 C 131.175781 118.839844 132.160156 118.785156 133.199219 118.628906 C 137.070312 118.042969 140.203125 116.339844 142.503906 113.5625 C 146.007812 109.34375 146.894531 103.421875 144.871094 98.007812 C 146.609375 97.039062 148.109375 95.777344 149.335938 94.246094 C 152.164062 90.722656 152.664062 86.816406 152.707031 84.804688 C 152.71875 84.3125 152.390625 83.875 151.914062 83.753906 Z M 136.066406 72.929688 L 148.332031 76.539062 L 146.773438 82.421875 L 143.003906 81.445312 C 142.480469 81.308594 141.9375 81.585938 141.746094 82.089844 C 141.109375 83.757812 140.628906 85.496094 140.320312 87.253906 C 140.019531 88.988281 139.878906 90.757812 139.910156 92.519531 C 139.917969 93.074219 140.355469 93.527344 140.910156 93.558594 L 143.753906 93.71875 L 141.785156 101.082031 L 129.25 97.808594 Z M 72.78125 30.101562 C 71.332031 28.902344 69.0625 26.445312 68.960938 22.738281 C 68.917969 21.199219 69.253906 19.707031 69.957031 18.304688 C 71.136719 15.964844 72.9375 14.65625 73.140625 14.515625 C 73.253906 14.433594 73.351562 14.332031 73.425781 14.214844 C 74.722656 12.175781 76.34375 10.621094 78.246094 9.59375 C 85.289062 5.789062 93.96875 10.597656 97.367188 12.839844 C 97.527344 12.945312 97.691406 13.050781 97.855469 13.15625 C 97.863281 13.164062 97.871094 13.167969 97.878906 13.175781 C 100.804688 15.113281 103.296875 17 104.1875 20.421875 C 105.074219 23.835938 103.882812 26.960938 102.917969 28.761719 C 102.4375 28.476562 101.921875 28.28125 101.382812 28.183594 C 100.988281 28.113281 100.585938 28.09375 100.1875 28.125 C 100.179688 28.125 100.175781 28.125 100.167969 28.125 C 100.152344 28.125 100.132812 28.125 100.117188 28.128906 C 100.109375 28.128906 100.105469 28.128906 100.101562 28.128906 C 100.082031 28.132812 100.0625 28.136719 100.042969 28.136719 C 100.023438 28.140625 100.007812 28.144531 99.992188 28.148438 C 99.976562 28.152344 99.960938 28.15625 99.945312 28.160156 C 99.925781 28.164062 99.90625 28.167969 99.882812 28.175781 C 99.878906 28.175781 99.875 28.179688 99.871094 28.179688 C 98.222656 28.746094 96.519531 28.960938 94.816406 28.820312 C 92.140625 28.601562 90.0625 27.550781 88.664062 26.574219 C 88.984375 25.128906 89.269531 22.429688 87.652344 20.492188 C 86.644531 19.28125 85.039062 18.539062 83.128906 18.402344 C 80.328125 18.199219 77.335938 19.320312 74.921875 21.480469 C 74.710938 21.667969 74.585938 21.929688 74.570312 22.210938 L 74.328125 26.582031 Z M 74.546875 31.351562 L 76.34375 27.261719 C 76.394531 27.144531 76.425781 27.019531 76.433594 26.894531 L 76.660156 22.777344 C 78.585938 21.183594 80.863281 20.363281 82.976562 20.515625 C 84.285156 20.609375 85.398438 21.097656 86.027344 21.847656 C 87.339844 23.421875 86.605469 26.164062 86.445312 26.695312 C 86.320312 27.117188 86.464844 27.566406 86.808594 27.835938 C 88.40625 29.085938 91.0625 30.636719 94.644531 30.933594 C 96.59375 31.09375 98.53125 30.855469 100.414062 30.230469 C 100.613281 30.222656 100.808594 30.234375 101 30.269531 C 101.542969 30.367188 102.03125 30.640625 102.457031 31.074219 C 103.5 32.152344 103.9375 33.984375 103.59375 35.855469 C 103.339844 37.226562 102.707031 38.433594 101.8125 39.25 C 100.996094 39.996094 100.0625 40.316406 99.183594 40.152344 C 98.839844 40.089844 98.515625 39.957031 98.21875 39.757812 C 98.210938 39.753906 98.207031 39.75 98.203125 39.746094 C 98.179688 39.730469 98.152344 39.714844 98.128906 39.703125 C 98.097656 39.683594 98.066406 39.671875 98.035156 39.65625 C 97.964844 39.628906 97.898438 39.609375 97.828125 39.59375 C 97.824219 39.59375 97.824219 39.59375 97.820312 39.59375 C 97.789062 39.589844 97.757812 39.582031 97.726562 39.582031 C 97.703125 39.578125 97.683594 39.578125 97.660156 39.578125 C 97.648438 39.578125 97.636719 39.578125 97.625 39.578125 C 97.601562 39.578125 97.578125 39.578125 97.554688 39.582031 C 97.542969 39.582031 97.53125 39.582031 97.523438 39.582031 C 97.5 39.585938 97.480469 39.589844 97.460938 39.589844 L 97.421875 39.597656 C 97.40625 39.601562 97.390625 39.605469 97.375 39.609375 C 97.355469 39.613281 97.339844 39.617188 97.320312 39.621094 C 97.308594 39.625 97.300781 39.628906 97.289062 39.632812 C 97.265625 39.640625 97.246094 39.648438 97.222656 39.65625 C 97.21875 39.660156 97.214844 39.664062 97.207031 39.664062 C 97.179688 39.675781 97.15625 39.6875 97.128906 39.699219 C 97.128906 39.703125 97.128906 39.703125 97.128906 39.703125 C 97.070312 39.734375 97.011719 39.769531 96.960938 39.8125 C 96.953125 39.820312 96.949219 39.824219 96.941406 39.832031 C 96.921875 39.847656 96.902344 39.863281 96.882812 39.878906 C 96.832031 39.929688 96.789062 39.984375 96.75 40.042969 C 96.75 40.042969 96.75 40.046875 96.746094 40.046875 C 96.746094 40.050781 96.742188 40.050781 96.742188 40.054688 C 96.726562 40.082031 96.707031 40.109375 96.691406 40.136719 C 96.675781 40.164062 96.664062 40.195312 96.648438 40.226562 C 96.648438 40.230469 96.648438 40.230469 96.648438 40.230469 C 96.648438 40.234375 96.648438 40.234375 96.644531 40.238281 C 96.492188 40.609375 95.203125 43.640625 93.207031 46.550781 C 93.121094 46.636719 93.054688 46.734375 93.003906 46.839844 C 91.316406 49.230469 88.78125 51.980469 86.105469 51.894531 C 83.664062 51.816406 80.945312 49.300781 78.652344 44.996094 C 76.503906 40.96875 74.980469 35.890625 74.546875 31.351562 Z M 93.882812 51.894531 C 93.601562 52.996094 92.933594 53.894531 92.09375 54.300781 C 91.042969 54.808594 89.480469 54.648438 88.195312 53.699219 C 90.078125 53.09375 91.953125 51.625 93.800781 49.304688 C 94.066406 50.144531 94.101562 51.039062 93.882812 51.894531 Z M 2.753906 13.390625 C 2.375 12.214844 2.015625 10.285156 2.644531 8.0625 C 3.246094 5.917969 4.492188 4.488281 5.398438 3.683594 C 8.882812 4.957031 12.484375 5.914062 16.117188 6.527344 C 18.023438 6.847656 19.96875 7.078125 21.898438 7.214844 C 22.339844 7.246094 22.753906 7 22.9375 6.597656 C 24.941406 2.195312 26.15625 2.125 26.199219 2.125 C 26.574219 2.164062 27.503906 3.152344 28.351562 6.644531 C 28.839844 8.660156 29.136719 10.773438 29.292969 12.140625 L 21.675781 18.238281 Z M 140.875 112.210938 C 136.324219 117.695312 128.914062 116.742188 127.472656 116.496094 C 122.859375 115.707031 120.015625 112.824219 115.707031 108.460938 C 111.726562 104.425781 108.367188 99.710938 105.726562 94.445312 C 105.464844 93.917969 104.828125 93.707031 104.304688 93.972656 C 103.78125 94.234375 103.570312 94.871094 103.832031 95.394531 C 106.570312 100.859375 110.058594 105.757812 114.199219 109.949219 C 115.914062 111.6875 117.445312 113.234375 118.980469 114.535156 L 118.980469 121.675781 L 57.707031 121.675781 C 58.269531 114.796875 59.023438 107.855469 59.953125 101.023438 C 61.136719 92.320312 62.632812 83.550781 64.40625 74.933594 C 65.386719 75.542969 66.367188 76.140625 67.359375 76.726562 C 67.53125 76.824219 67.714844 76.871094 67.898438 76.871094 C 68.261719 76.871094 68.613281 76.6875 68.8125 76.351562 C 69.109375 75.847656 68.941406 75.195312 68.4375 74.898438 C 59.878906 69.859375 51.863281 63.898438 44.613281 57.175781 C 34.160156 47.488281 25.277344 36.246094 18.195312 23.742188 L 22.269531 20.480469 C 22.617188 20.417969 22.914062 20.183594 23.054688 19.851562 L 30.828125 13.628906 C 31.007812 13.554688 31.164062 13.425781 31.277344 13.269531 L 33.933594 11.144531 C 37.332031 16.5625 41.179688 21.644531 45.378906 26.265625 C 51.351562 32.839844 58.105469 38.558594 65.457031 43.265625 C 70.164062 46.28125 75.183594 48.917969 80.375 51.109375 C 81.929688 52.699219 83.652344 53.742188 85.488281 53.96875 C 86.808594 55.710938 88.820312 56.710938 90.757812 56.710938 C 91.539062 56.710938 92.308594 56.550781 93.015625 56.207031 C 94.433594 55.523438 95.496094 54.140625 95.9375 52.421875 C 96.253906 51.175781 96.207031 49.878906 95.824219 48.664062 C 101.089844 50.175781 105.988281 52.476562 110.402344 55.523438 C 123.261719 64.402344 128.640625 77.304688 130.726562 84.398438 L 126.921875 98.28125 C 126.84375 98.554688 126.882812 98.847656 127.023438 99.09375 C 127.167969 99.339844 127.402344 99.515625 127.675781 99.589844 L 142.269531 103.398438 C 142.359375 103.421875 142.449219 103.433594 142.539062 103.433594 C 143.007812 103.433594 143.4375 103.121094 143.5625 102.644531 L 143.710938 102.09375 C 144.167969 105.765625 143.183594 109.425781 140.875 112.210938 Z M 145.613281 94.972656 L 145.917969 93.839844 L 146.71875 93.882812 C 146.753906 93.886719 146.792969 93.886719 146.828125 93.882812 C 146.445312 94.273438 146.042969 94.636719 145.613281 94.972656 Z M 147.832031 92.730469 C 147.785156 92.214844 147.367188 91.796875 146.835938 91.765625 L 145.183594 91.675781 C 145.183594 91.675781 145.175781 91.675781 145.171875 91.675781 L 142.03125 91.496094 C 142.058594 90.199219 142.183594 88.898438 142.410156 87.621094 C 142.640625 86.304688 142.972656 85.003906 143.402344 83.738281 L 147.253906 84.734375 C 147.257812 84.738281 147.257812 84.738281 147.261719 84.738281 L 150.542969 85.589844 C 150.390625 87.40625 149.804688 90.171875 147.832031 92.730469 Z M 90.492188 39.757812 C 90.46875 39.871094 89.914062 42.574219 87.535156 43.460938 C 86.316406 43.914062 85.167969 43.679688 84.59375 43.503906 C 84.035156 43.328125 83.441406 43.640625 83.265625 44.199219 C 83.09375 44.757812 83.402344 45.351562 83.960938 45.527344 C 84.433594 45.671875 85.167969 45.84375 86.042969 45.84375 C 86.722656 45.84375 87.484375 45.742188 88.273438 45.445312 C 91.695312 44.175781 92.492188 40.570312 92.570312 40.164062 C 92.683594 39.589844 92.308594 39.03125 91.734375 38.921875 C 91.160156 38.808594 90.601562 39.183594 90.492188 39.757812 Z M 89.460938 35.265625 C 90.320312 35.265625 91.015625 34.507812 91.015625 33.570312 C 91.015625 32.636719 90.320312 31.878906 89.460938 31.878906 C 88.601562 31.878906 87.90625 32.636719 87.90625 33.570312 C 87.90625 34.507812 88.601562 35.265625 89.460938 35.265625 Z M 82.917969 38.472656 C 82.503906 38.644531 82.242188 39.058594 82.265625 39.507812 C 82.289062 39.957031 82.59375 40.34375 83.027344 40.46875 L 86.492188 41.484375 C 86.589844 41.515625 86.691406 41.527344 86.789062 41.527344 C 87.25 41.527344 87.671875 41.226562 87.804688 40.765625 C 87.96875 40.203125 87.648438 39.613281 87.085938 39.449219 L 85.546875 39 C 85.714844 38.769531 85.875 38.507812 86.015625 38.210938 C 86.476562 37.230469 86.519531 36.289062 86.476562 35.667969 C 86.4375 35.085938 85.925781 34.644531 85.347656 34.6875 C 84.761719 34.726562 84.320312 35.234375 84.363281 35.816406 C 84.382812 36.117188 84.378906 36.710938 84.097656 37.308594 C 83.738281 38.070312 83.152344 38.375 82.917969 38.472656 Z M 82.164062 35.265625 C 83.023438 35.265625 83.71875 34.507812 83.71875 33.570312 C 83.71875 32.636719 83.023438 31.878906 82.164062 31.878906 C 81.304688 31.878906 80.609375 32.636719 80.609375 33.570312 C 80.609375 34.507812 81.304688 35.265625 82.164062 35.265625 Z M 82.164062 31.878906 C 81.304688 31.878906 80.609375 32.636719 80.609375 33.570312 C 80.609375 34.507812 81.304688 35.265625 82.164062 35.265625 C 83.023438 35.265625 83.71875 34.507812 83.71875 33.570312 C 83.71875 32.636719 83.023438 31.878906 82.164062 31.878906 Z M 87.085938 39.449219 L 85.546875 39 C 85.714844 38.769531 85.875 38.507812 86.015625 38.210938 C 86.476562 37.230469 86.519531 36.289062 86.476562 35.667969 C 86.4375 35.085938 85.925781 34.644531 85.347656 34.6875 C 84.761719 34.726562 84.320312 35.234375 84.363281 35.816406 C 84.382812 36.117188 84.378906 36.710938 84.097656 37.308594 C 83.738281 38.070312 83.152344 38.375 82.917969 38.472656 C 82.503906 38.644531 82.242188 39.058594 82.265625 39.507812 C 82.289062 39.957031 82.59375 40.34375 83.027344 40.46875 L 86.492188 41.484375 C 86.589844 41.515625 86.691406 41.527344 86.789062 41.527344 C 87.25 41.527344 87.671875 41.226562 87.804688 40.765625 C 87.96875 40.203125 87.648438 39.613281 87.085938 39.449219 Z M 89.460938 31.878906 C 88.601562 31.878906 87.90625 32.636719 87.90625 33.570312 C 87.90625 34.507812 88.601562 35.265625 89.460938 35.265625 C 90.320312 35.265625 91.015625 34.507812 91.015625 33.570312 C 91.015625 32.636719 90.320312 31.878906 89.460938 31.878906 Z M 91.734375 38.921875 C 91.160156 38.808594 90.601562 39.183594 90.492188 39.757812 C 90.46875 39.871094 89.914062 42.574219 87.535156 43.460938 C 86.316406 43.914062 85.167969 43.679688 84.59375 43.503906 C 84.035156 43.328125 83.441406 43.640625 83.265625 44.199219 C 83.09375 44.757812 83.402344 45.351562 83.960938 45.527344 C 84.433594 45.671875 85.167969 45.84375 86.042969 45.84375 C 86.722656 45.84375 87.484375 45.742188 88.273438 45.445312 C 91.695312 44.175781 92.492188 40.570312 92.570312 40.164062 C 92.683594 39.589844 92.308594 39.03125 91.734375 38.921875 Z M 91.734375 38.921875 C 91.160156 38.808594 90.601562 39.183594 90.492188 39.757812 C 90.46875 39.871094 89.914062 42.574219 87.535156 43.460938 C 86.316406 43.914062 85.167969 43.679688 84.59375 43.503906 C 84.035156 43.328125 83.441406 43.640625 83.265625 44.199219 C 83.09375 44.757812 83.402344 45.351562 83.960938 45.527344 C 84.433594 45.671875 85.167969 45.84375 86.042969 45.84375 C 86.722656 45.84375 87.484375 45.742188 88.273438 45.445312 C 91.695312 44.175781 92.492188 40.570312 92.570312 40.164062 C 92.683594 39.589844 92.308594 39.03125 91.734375 38.921875 Z M 89.460938 31.878906 C 88.601562 31.878906 87.90625 32.636719 87.90625 33.570312 C 87.90625 34.507812 88.601562 35.265625 89.460938 35.265625 C 90.320312 35.265625 91.015625 34.507812 91.015625 33.570312 C 91.015625 32.636719 90.320312 31.878906 89.460938 31.878906 Z M 87.085938 39.449219 L 85.546875 39 C 85.714844 38.769531 85.875 38.507812 86.015625 38.210938 C 86.476562 37.230469 86.519531 36.289062 86.476562 35.667969 C 86.4375 35.085938 85.925781 34.644531 85.347656 34.6875 C 84.761719 34.726562 84.320312 35.234375 84.363281 35.816406 C 84.382812 36.117188 84.378906 36.710938 84.097656 37.308594 C 83.738281 38.070312 83.152344 38.375 82.917969 38.472656 C 82.503906 38.644531 82.242188 39.058594 82.265625 39.507812 C 82.289062 39.957031 82.59375 40.34375 83.027344 40.46875 L 86.492188 41.484375 C 86.589844 41.515625 86.691406 41.527344 86.789062 41.527344 C 87.25 41.527344 87.671875 41.226562 87.804688 40.765625 C 87.96875 40.203125 87.648438 39.613281 87.085938 39.449219 Z M 82.164062 31.878906 C 81.304688 31.878906 80.609375 32.636719 80.609375 33.570312 C 80.609375 34.507812 81.304688 35.265625 82.164062 35.265625 C 83.023438 35.265625 83.71875 34.507812 83.71875 33.570312 C 83.71875 32.636719 83.023438 31.878906 82.164062 31.878906 Z M 82.164062 31.878906 C 81.304688 31.878906 80.609375 32.636719 80.609375 33.570312 C 80.609375 34.507812 81.304688 35.265625 82.164062 35.265625 C 83.023438 35.265625 83.71875 34.507812 83.71875 33.570312 C 83.71875 32.636719 83.023438 31.878906 82.164062 31.878906 Z M 87.085938 39.449219 L 85.546875 39 C 85.714844 38.769531 85.875 38.507812 86.015625 38.210938 C 86.476562 37.230469 86.519531 36.289062 86.476562 35.667969 C 86.4375 35.085938 85.925781 34.644531 85.347656 34.6875 C 84.761719 34.726562 84.320312 35.234375 84.363281 35.816406 C 84.382812 36.117188 84.378906 36.710938 84.097656 37.308594 C 83.738281 38.070312 83.152344 38.375 82.917969 38.472656 C 82.503906 38.644531 82.242188 39.058594 82.265625 39.507812 C 82.289062 39.957031 82.59375 40.34375 83.027344 40.46875 L 86.492188 41.484375 C 86.589844 41.515625 86.691406 41.527344 86.789062 41.527344 C 87.25 41.527344 87.671875 41.226562 87.804688 40.765625 C 87.96875 40.203125 87.648438 39.613281 87.085938 39.449219 Z M 89.460938 31.878906 C 88.601562 31.878906 87.90625 32.636719 87.90625 33.570312 C 87.90625 34.507812 88.601562 35.265625 89.460938 35.265625 C 90.320312 35.265625 91.015625 34.507812 91.015625 33.570312 C 91.015625 32.636719 90.320312 31.878906 89.460938 31.878906 Z M 91.734375 38.921875 C 91.160156 38.808594 90.601562 39.183594 90.492188 39.757812 C 90.46875 39.871094 89.914062 42.574219 87.535156 43.460938 C 86.316406 43.914062 85.167969 43.679688 84.59375 43.503906 C 84.035156 43.328125 83.441406 43.640625 83.265625 44.199219 C 83.09375 44.757812 83.402344 45.351562 83.960938 45.527344 C 84.433594 45.671875 85.167969 45.84375 86.042969 45.84375 C 86.722656 45.84375 87.484375 45.742188 88.273438 45.445312 C 91.695312 44.175781 92.492188 40.570312 92.570312 40.164062 C 92.683594 39.589844 92.308594 39.03125 91.734375 38.921875 Z M 91.734375 38.921875 C 91.160156 38.808594 90.601562 39.183594 90.492188 39.757812 C 90.46875 39.871094 89.914062 42.574219 87.535156 43.460938 C 86.316406 43.914062 85.167969 43.679688 84.59375 43.503906 C 84.035156 43.328125 83.441406 43.640625 83.265625 44.199219 C 83.09375 44.757812 83.402344 45.351562 83.960938 45.527344 C 84.433594 45.671875 85.167969 45.84375 86.042969 45.84375 C 86.722656 45.84375 87.484375 45.742188 88.273438 45.445312 C 91.695312 44.175781 92.492188 40.570312 92.570312 40.164062 C 92.683594 39.589844 92.308594 39.03125 91.734375 38.921875 Z M 89.460938 31.878906 C 88.601562 31.878906 87.90625 32.636719 87.90625 33.570312 C 87.90625 34.507812 88.601562 35.265625 89.460938 35.265625 C 90.320312 35.265625 91.015625 34.507812 91.015625 33.570312 C 91.015625 32.636719 90.320312 31.878906 89.460938 31.878906 Z M 87.085938 39.449219 L 85.546875 39 C 85.714844 38.769531 85.875 38.507812 86.015625 38.210938 C 86.476562 37.230469 86.519531 36.289062 86.476562 35.667969 C 86.4375 35.085938 85.925781 34.644531 85.347656 34.6875 C 84.761719 34.726562 84.320312 35.234375 84.363281 35.816406 C 84.382812 36.117188 84.378906 36.710938 84.097656 37.308594 C 83.738281 38.070312 83.152344 38.375 82.917969 38.472656 C 82.503906 38.644531 82.242188 39.058594 82.265625 39.507812 C 82.289062 39.957031 82.59375 40.34375 83.027344 40.46875 L 86.492188 41.484375 C 86.589844 41.515625 86.691406 41.527344 86.789062 41.527344 C 87.25 41.527344 87.671875 41.226562 87.804688 40.765625 C 87.96875 40.203125 87.648438 39.613281 87.085938 39.449219 Z M 82.164062 31.878906 C 81.304688 31.878906 80.609375 32.636719 80.609375 33.570312 C 80.609375 34.507812 81.304688 35.265625 82.164062 35.265625 C 83.023438 35.265625 83.71875 34.507812 83.71875 33.570312 C 83.71875 32.636719 83.023438 31.878906 82.164062 31.878906 Z M 82.164062 31.878906 C 81.304688 31.878906 80.609375 32.636719 80.609375 33.570312 C 80.609375 34.507812 81.304688 35.265625 82.164062 35.265625 C 83.023438 35.265625 83.71875 34.507812 83.71875 33.570312 C 83.71875 32.636719 83.023438 31.878906 82.164062 31.878906 Z M 87.085938 39.449219 L 85.546875 39 C 85.714844 38.769531 85.875 38.507812 86.015625 38.210938 C 86.476562 37.230469 86.519531 36.289062 86.476562 35.667969 C 86.4375 35.085938 85.925781 34.644531 85.347656 34.6875 C 84.761719 34.726562 84.320312 35.234375 84.363281 35.816406 C 84.382812 36.117188 84.378906 36.710938 84.097656 37.308594 C 83.738281 38.070312 83.152344 38.375 82.917969 38.472656 C 82.503906 38.644531 82.242188 39.058594 82.265625 39.507812 C 82.289062 39.957031 82.59375 40.34375 83.027344 40.46875 L 86.492188 41.484375 C 86.589844 41.515625 86.691406 41.527344 86.789062 41.527344 C 87.25 41.527344 87.671875 41.226562 87.804688 40.765625 C 87.96875 40.203125 87.648438 39.613281 87.085938 39.449219 Z M 89.460938 31.878906 C 88.601562 31.878906 87.90625 32.636719 87.90625 33.570312 C 87.90625 34.507812 88.601562 35.265625 89.460938 35.265625 C 90.320312 35.265625 91.015625 34.507812 91.015625 33.570312 C 91.015625 32.636719 90.320312 31.878906 89.460938 31.878906 Z M 91.734375 38.921875 C 91.160156 38.808594 90.601562 39.183594 90.492188 39.757812 C 90.46875 39.871094 89.914062 42.574219 87.535156 43.460938 C 86.316406 43.914062 85.167969 43.679688 84.59375 43.503906 C 84.035156 43.328125 83.441406 43.640625 83.265625 44.199219 C 83.09375 44.757812 83.402344 45.351562 83.960938 45.527344 C 84.433594 45.671875 85.167969 45.84375 86.042969 45.84375 C 86.722656 45.84375 87.484375 45.742188 88.273438 45.445312 C 91.695312 44.175781 92.492188 40.570312 92.570312 40.164062 C 92.683594 39.589844 92.308594 39.03125 91.734375 38.921875 Z M 91.734375 38.921875 C 91.160156 38.808594 90.601562 39.183594 90.492188 39.757812 C 90.46875 39.871094 89.914062 42.574219 87.535156 43.460938 C 86.316406 43.914062 85.167969 43.679688 84.59375 43.503906 C 84.035156 43.328125 83.441406 43.640625 83.265625 44.199219 C 83.09375 44.757812 83.402344 45.351562 83.960938 45.527344 C 84.433594 45.671875 85.167969 45.84375 86.042969 45.84375 C 86.722656 45.84375 87.484375 45.742188 88.273438 45.445312 C 91.695312 44.175781 92.492188 40.570312 92.570312 40.164062 C 92.683594 39.589844 92.308594 39.03125 91.734375 38.921875 Z M 89.460938 31.878906 C 88.601562 31.878906 87.90625 32.636719 87.90625 33.570312 C 87.90625 34.507812 88.601562 35.265625 89.460938 35.265625 C 90.320312 35.265625 91.015625 34.507812 91.015625 33.570312 C 91.015625 32.636719 90.320312 31.878906 89.460938 31.878906 Z M 87.085938 39.449219 L 85.546875 39 C 85.714844 38.769531 85.875 38.507812 86.015625 38.210938 C 86.476562 37.230469 86.519531 36.289062 86.476562 35.667969 C 86.4375 35.085938 85.925781 34.644531 85.347656 34.6875 C 84.761719 34.726562 84.320312 35.234375 84.363281 35.816406 C 84.382812 36.117188 84.378906 36.710938 84.097656 37.308594 C 83.738281 38.070312 83.152344 38.375 82.917969 38.472656 C 82.503906 38.644531 82.242188 39.058594 82.265625 39.507812 C 82.289062 39.957031 82.59375 40.34375 83.027344 40.46875 L 86.492188 41.484375 C 86.589844 41.515625 86.691406 41.527344 86.789062 41.527344 C 87.25 41.527344 87.671875 41.226562 87.804688 40.765625 C 87.96875 40.203125 87.648438 39.613281 87.085938 39.449219 Z M 82.164062 31.878906 C 81.304688 31.878906 80.609375 32.636719 80.609375 33.570312 C 80.609375 34.507812 81.304688 35.265625 82.164062 35.265625 C 83.023438 35.265625 83.71875 34.507812 83.71875 33.570312 C 83.71875 32.636719 83.023438 31.878906 82.164062 31.878906 Z M 82.164062 31.878906 C 81.304688 31.878906 80.609375 32.636719 80.609375 33.570312 C 80.609375 34.507812 81.304688 35.265625 82.164062 35.265625 C 83.023438 35.265625 83.71875 34.507812 83.71875 33.570312 C 83.71875 32.636719 83.023438 31.878906 82.164062 31.878906 Z M 87.085938 39.449219 L 85.546875 39 C 85.714844 38.769531 85.875 38.507812 86.015625 38.210938 C 86.476562 37.230469 86.519531 36.289062 86.476562 35.667969 C 86.4375 35.085938 85.925781 34.644531 85.347656 34.6875 C 84.761719 34.726562 84.320312 35.234375 84.363281 35.816406 C 84.382812 36.117188 84.378906 36.710938 84.097656 37.308594 C 83.738281 38.070312 83.152344 38.375 82.917969 38.472656 C 82.503906 38.644531 82.242188 39.058594 82.265625 39.507812 C 82.289062 39.957031 82.59375 40.34375 83.027344 40.46875 L 86.492188 41.484375 C 86.589844 41.515625 86.691406 41.527344 86.789062 41.527344 C 87.25 41.527344 87.671875 41.226562 87.804688 40.765625 C 87.96875 40.203125 87.648438 39.613281 87.085938 39.449219 Z M 89.460938 31.878906 C 88.601562 31.878906 87.90625 32.636719 87.90625 33.570312 C 87.90625 34.507812 88.601562 35.265625 89.460938 35.265625 C 90.320312 35.265625 91.015625 34.507812 91.015625 33.570312 C 91.015625 32.636719 90.320312 31.878906 89.460938 31.878906 Z M 91.734375 38.921875 C 91.160156 38.808594 90.601562 39.183594 90.492188 39.757812 C 90.46875 39.871094 89.914062 42.574219 87.535156 43.460938 C 86.316406 43.914062 85.167969 43.679688 84.59375 43.503906 C 84.035156 43.328125 83.441406 43.640625 83.265625 44.199219 C 83.09375 44.757812 83.402344 45.351562 83.960938 45.527344 C 84.433594 45.671875 85.167969 45.84375 86.042969 45.84375 C 86.722656 45.84375 87.484375 45.742188 88.273438 45.445312 C 91.695312 44.175781 92.492188 40.570312 92.570312 40.164062 C 92.683594 39.589844 92.308594 39.03125 91.734375 38.921875 Z M 91.734375 38.921875 " fill-opacity="1" fill-rule="nonzero"/></g></svg>