<svg xmlns="http://www.w3.org/2000/svg" xmlns:xlink="http://www.w3.org/1999/xlink" width="345" zoomAndPan="magnify" viewBox="0 0 258.75 256.499992" height="342" preserveAspectRatio="xMidYMid meet" version="1.0"><defs><clipPath id="94faa75568"><path d="M 0.125 1 L 258 1 L 258 255.253906 L 0.125 255.253906 Z M 0.125 1 " clip-rule="nonzero"/></clipPath><clipPath id="e2ab6aba02"><path d="M 0.125 54 L 227 54 L 227 255.253906 L 0.125 255.253906 Z M 0.125 54 " clip-rule="nonzero"/></clipPath></defs><g clip-path="url(#94faa75568)"><path fill="#ffffff" d="M 236.859375 192.214844 C 237.6875 193.003906 237.8125 194.214844 237.160156 195.101562 L 234.050781 199.316406 C 233.640625 199.875 232.984375 200.203125 232.292969 200.203125 C 231.78125 200.203125 231.292969 200.015625 230.917969 199.679688 C 226.5 195.71875 223.398438 190.585938 221.949219 184.832031 C 221.804688 184.253906 221.90625 183.660156 222.242188 183.152344 C 222.582031 182.640625 223.128906 182.292969 223.734375 182.203125 L 228.902344 181.421875 C 229.011719 181.40625 229.117188 181.394531 229.226562 181.394531 C 230.1875 181.394531 231.046875 182.066406 231.320312 183.035156 C 232.304688 186.539062 234.21875 189.714844 236.859375 192.214844 Z M 6.617188 146.101562 C 3.382812 146.101562 0.753906 148.734375 0.753906 151.96875 C 0.753906 155.203125 3.382812 157.832031 6.617188 157.832031 C 9.851562 157.832031 12.480469 155.203125 12.480469 151.96875 C 12.480469 148.734375 9.851562 146.101562 6.617188 146.101562 Z M 257.367188 138.832031 C 257.367188 140.144531 257.351562 141.34375 257.179688 142.472656 C 257.078125 143.546875 256.84375 144.746094 256.46875 146.066406 C 255.441406 149.65625 253.523438 153.078125 250.765625 156.234375 C 250.429688 156.621094 249.9375 156.84375 249.414062 156.84375 C 248.9375 156.84375 248.488281 156.660156 248.144531 156.328125 L 246.675781 154.898438 C 246.015625 154.25 245.953125 153.214844 246.53125 152.484375 C 248.566406 149.921875 250.011719 147.152344 250.710938 144.46875 C 251.230469 142.492188 251.285156 140.480469 251.238281 139.144531 C 251.113281 137.363281 250.65625 135.761719 249.886719 134.375 C 248.488281 131.78125 245.6875 129.582031 241.785156 128.015625 C 238.757812 126.773438 235.09375 125.867188 230.257812 125.148438 C 226.335938 124.578125 222.414062 124.300781 218.261719 124.011719 L 217.890625 123.984375 L 215.761719 123.84375 L 215.636719 124.222656 C 205.183594 155.816406 192.851562 182.949219 178.96875 204.859375 L 178.910156 204.949219 L 169.953125 255.019531 L 75.460938 255.019531 L 66.503906 204.949219 L 66.449219 204.859375 C 59.199219 193.414062 52.277344 180.335938 45.859375 165.988281 L 45.5 165.1875 L 44.96875 165.890625 C 43.574219 167.730469 42.117188 169.511719 40.710938 171.234375 C 39.105469 173.199219 37.582031 175.0625 36.144531 177.007812 C 33.511719 180.457031 31.523438 183.804688 30.082031 187.242188 C 28.554688 190.828125 27.710938 194.6875 27.648438 198.414062 C 27.546875 204.875 30.4375 211.355469 35.1875 215.324219 C 36.074219 216.066406 36.246094 217.335938 35.570312 218.210938 L 33.21875 221.289062 C 32.824219 221.804688 32.21875 222.101562 31.566406 222.101562 C 30.996094 222.101562 30.476562 221.878906 30.089844 221.472656 C 24.246094 215.273438 21.15625 206.554688 21.839844 198.152344 C 22.4375 190.226562 25.953125 182.125 32.289062 174.070312 C 33.558594 172.410156 34.882812 170.808594 36.160156 169.265625 C 37.566406 167.570312 38.890625 165.96875 40.152344 164.289062 C 41.058594 163.078125 42.117188 161.644531 43.070312 160.195312 L 43.21875 159.960938 L 43.109375 159.703125 C 31.660156 132.820312 24.007812 106.675781 19.597656 89.472656 C 16.210938 76.265625 14.636719 67.914062 14.570312 67.5625 L 14.476562 67.0625 L 14.453125 67.066406 C 11.578125 53.304688 10.488281 35.949219 10.375 33.992188 C 10.1875 32.726562 10.59375 31.484375 11.464844 30.617188 C 12.195312 29.890625 13.160156 29.496094 14.1875 29.496094 C 14.589844 29.496094 14.992188 29.558594 15.378906 29.679688 L 15.460938 29.703125 C 15.386719 29.53125 15.414062 29.335938 15.535156 29.183594 C 15.550781 29.167969 15.554688 29.148438 15.570312 29.132812 C 15.773438 28.925781 16.101562 28.925781 16.304688 29.132812 L 15.695312 28.515625 C 14.964844 27.78125 14.570312 26.808594 14.574219 25.769531 C 14.578125 24.734375 14.984375 23.769531 15.714844 23.039062 C 16.445312 22.3125 17.410156 21.914062 18.441406 21.914062 C 18.792969 21.914062 19.148438 21.964844 19.492188 22.0625 L 19.859375 22.167969 C 19.648438 22.042969 19.554688 21.796875 19.632812 21.5625 C 19.640625 21.550781 19.632812 21.539062 19.640625 21.53125 C 19.664062 21.46875 19.703125 21.410156 19.75 21.367188 C 19.78125 21.335938 19.820312 21.3125 19.859375 21.289062 C 19.875 21.28125 19.886719 21.269531 19.902344 21.265625 C 20.011719 21.210938 20.140625 21.203125 20.265625 21.238281 C 20.285156 21.242188 20.300781 21.242188 20.324219 21.25 C 20.613281 21.367188 20.890625 21.519531 21.152344 21.691406 L 20.710938 20.964844 C 19.773438 19.433594 20.011719 17.476562 21.289062 16.207031 C 22.019531 15.484375 22.984375 15.085938 24.011719 15.085938 C 24.511719 15.085938 24.996094 15.179688 25.460938 15.367188 L 26.132812 15.640625 L 26.132812 15.621094 L 25.800781 15.285156 C 25.691406 15.175781 25.644531 15.03125 25.65625 14.890625 C 25.660156 14.828125 25.671875 14.769531 25.695312 14.710938 C 25.722656 14.652344 25.753906 14.597656 25.804688 14.550781 C 26.007812 14.347656 26.339844 14.347656 26.542969 14.550781 L 26.171875 14.179688 L 25.351562 13.355469 C 24.621094 12.621094 24.226562 11.648438 24.230469 10.609375 C 24.234375 9.574219 24.644531 8.609375 25.371094 7.878906 C 26.101562 7.152344 27.074219 6.753906 28.101562 6.753906 C 29.140625 6.753906 30.113281 7.164062 30.851562 7.898438 L 36.410156 13.5 L 36.710938 13.417969 C 64.527344 5.378906 93.3125 1.304688 122.265625 1.304688 C 151.453125 1.304688 180.464844 5.441406 208.496094 13.605469 L 208.792969 13.695312 L 214.550781 7.886719 C 215.28125 7.152344 216.257812 6.746094 217.300781 6.746094 C 218.328125 6.746094 219.300781 7.148438 220.03125 7.867188 C 220.765625 8.597656 221.171875 9.566406 221.171875 10.601562 C 221.175781 11.632812 220.773438 12.609375 220.050781 13.34375 L 218.867188 14.539062 C 219.070312 14.335938 219.398438 14.335938 219.601562 14.539062 C 219.648438 14.585938 219.683594 14.644531 219.710938 14.699219 C 219.738281 14.757812 219.746094 14.820312 219.753906 14.878906 C 219.761719 15.019531 219.714844 15.164062 219.605469 15.273438 L 219.277344 15.609375 L 219.277344 15.636719 L 219.945312 15.363281 C 220.40625 15.175781 220.894531 15.082031 221.394531 15.082031 C 222.425781 15.082031 223.394531 15.476562 224.121094 16.203125 C 225.390625 17.472656 225.632812 19.421875 224.699219 20.960938 L 224.261719 21.6875 C 224.519531 21.515625 224.796875 21.367188 225.089844 21.242188 C 225.109375 21.238281 225.125 21.238281 225.148438 21.234375 C 225.273438 21.195312 225.398438 21.210938 225.511719 21.257812 C 225.527344 21.265625 225.539062 21.273438 225.554688 21.285156 C 225.597656 21.304688 225.632812 21.332031 225.664062 21.363281 C 225.710938 21.410156 225.746094 21.460938 225.773438 21.523438 C 225.777344 21.535156 225.777344 21.546875 225.777344 21.554688 C 225.855469 21.789062 225.757812 22.035156 225.554688 22.160156 L 225.917969 22.058594 C 226.261719 21.964844 226.617188 21.910156 226.972656 21.910156 C 228 21.910156 228.964844 22.308594 229.695312 23.03125 C 230.433594 23.761719 230.839844 24.734375 230.839844 25.765625 C 230.839844 26.800781 230.441406 27.773438 229.71875 28.511719 L 229.101562 29.125 C 229.304688 28.921875 229.632812 28.921875 229.835938 29.121094 C 229.835938 29.121094 229.835938 29.125 229.84375 29.125 C 229.859375 29.140625 229.863281 29.15625 229.875 29.171875 C 229.992188 29.324219 230.019531 29.527344 229.945312 29.695312 L 230.03125 29.667969 C 230.417969 29.542969 230.8125 29.480469 231.21875 29.480469 C 232.246094 29.480469 233.210938 29.875 233.941406 30.601562 C 234.8125 31.46875 235.222656 32.710938 235.039062 33.929688 C 234.917969 35.953125 233.808594 53.679688 230.847656 67.539062 L 231.421875 67.128906 L 231.148438 68.125 L 230.84375 67.554688 C 230.828125 67.636719 229.222656 76.167969 225.816406 89.464844 C 223.488281 98.546875 220.878906 107.703125 218.0625 116.683594 L 217.863281 117.328125 L 218.53125 117.363281 C 223.058594 117.621094 227.214844 118.035156 231.230469 118.636719 C 235.121094 119.257812 239.71875 120.15625 244.257812 122.046875 C 246.691406 123.070312 248.734375 124.234375 250.496094 125.601562 C 252.640625 127.261719 254.351562 129.269531 255.445312 131.40625 C 256.597656 133.621094 257.261719 136.1875 257.367188 138.832031 Z M 167.730469 151.078125 L 160.230469 151.90625 L 160.21875 152.363281 C 160.023438 162.007812 152.941406 169.9375 143.371094 171.226562 C 142.636719 171.335938 141.917969 171.347656 141.375 171.347656 L 140.460938 171.335938 C 140.734375 171.363281 140.941406 171.585938 140.9375 171.859375 C 140.9375 171.859375 140.9375 171.859375 140.9375 171.863281 C 140.9375 171.863281 140.9375 171.863281 140.9375 171.871094 C 140.9375 171.9375 140.921875 171.996094 140.894531 172.050781 C 140.875 172.105469 140.84375 172.144531 140.804688 172.1875 C 140.800781 172.191406 140.800781 172.199219 140.796875 172.207031 C 140.710938 172.296875 140.597656 172.355469 140.46875 172.363281 C 140.453125 172.363281 140.429688 172.375 140.414062 172.375 C 140.410156 172.375 140.410156 172.375 140.40625 172.375 C 140.25 172.371094 140.097656 172.355469 139.941406 172.347656 L 139.945312 172.410156 L 141.136719 185.507812 L 151.871094 178.472656 L 151.933594 178.371094 C 152.007812 178.246094 159.507812 165.472656 167.222656 151.972656 Z M 187.789062 110.316406 C 189.796875 104.191406 192.582031 95.417969 195.855469 84.9375 C 199.414062 73.519531 202.433594 63.714844 202.460938 63.613281 L 202.035156 63.980469 L 202.058594 62.941406 L 202.476562 63.402344 C 202.46875 63.363281 202.082031 59.535156 201.640625 53.890625 L 201.601562 53.4375 L 201.144531 53.410156 C 200.730469 53.390625 200.339844 53.320312 199.976562 53.210938 C 174.761719 45.570312 148.621094 41.699219 122.269531 41.699219 C 95.921875 41.699219 69.785156 45.570312 44.570312 53.210938 C 44.441406 53.25 44.316406 53.28125 44.183594 53.304688 L 43.804688 53.390625 L 43.773438 53.773438 C 43.324219 59.484375 42.933594 63.367188 42.925781 63.40625 L 42.917969 63.511719 L 42.949219 63.609375 C 42.980469 63.707031 45.996094 73.515625 49.554688 84.929688 C 53.777344 98.46875 59.214844 115.617188 61.09375 120.40625 C 64.40625 128.835938 92.292969 176.339844 93.480469 178.359375 L 93.542969 178.464844 L 104.460938 185.617188 L 102.523438 165.148438 L 99.207031 130.191406 C 97.75 114.335938 109.464844 100.246094 125.324219 98.792969 C 126.210938 98.714844 127.105469 98.671875 127.988281 98.671875 C 142.328125 98.671875 154.621094 109.371094 156.578125 123.5625 C 156.640625 123.996094 156.6875 124.4375 156.738281 124.875 L 159.847656 147.882812 L 170.199219 146.746094 L 170.328125 146.511719 C 178.386719 132.292969 183.09375 123.515625 184.316406 120.410156 C 184.582031 119.726562 184.9375 118.757812 185.367188 117.515625 L 185.515625 117.097656 L 185.125 116.882812 C 183.203125 115.84375 181.445312 114.6875 179.890625 113.449219 C 176.113281 110.503906 173.074219 106.570312 171.328125 102.359375 C 170.324219 99.953125 169.691406 97.765625 169.394531 95.660156 C 169.007812 93.324219 168.894531 91.003906 169.050781 88.757812 C 169.132812 87.164062 169.359375 85.539062 169.722656 83.9375 L 169.832031 83.464844 L 169.363281 83.324219 C 167.839844 82.871094 166.503906 82.21875 165.398438 81.394531 L 164.574219 80.835938 C 164.460938 80.734375 164.308594 80.59375 164.15625 80.453125 C 164.15625 80.453125 163.671875 80 163.542969 79.875 C 163.25 79.605469 162.953125 79.320312 162.679688 79.039062 C 162.632812 78.988281 162.585938 78.9375 162.539062 78.878906 C 162.398438 78.703125 162.253906 78.519531 162.113281 78.339844 C 161.523438 77.609375 160.917969 76.855469 160.484375 76.066406 C 159.097656 73.96875 158.265625 71.730469 157.535156 69.617188 C 156.460938 66.207031 155.835938 62.585938 155.632812 58.5625 C 155.605469 58.058594 155.785156 57.578125 156.132812 57.214844 C 156.476562 56.847656 156.945312 56.648438 157.441406 56.648438 C 157.511719 56.648438 157.578125 56.65625 157.644531 56.660156 L 161.433594 57.074219 C 161.925781 57.125 162.355469 57.371094 162.65625 57.753906 C 162.957031 58.148438 163.082031 58.632812 163.015625 59.121094 C 162.59375 62.054688 162.625 65.191406 163.09375 68.199219 C 163.972656 72.742188 165.628906 76 168.007812 77.902344 C 168.710938 78.542969 169.570312 79.078125 170.542969 79.464844 L 171.023438 79.65625 L 171.214844 79.175781 C 171.714844 77.945312 172.28125 76.78125 172.890625 75.726562 L 173.40625 74.847656 C 173.519531 74.652344 173.625 74.46875 173.8125 74.226562 C 174.195312 73.683594 174.605469 73.230469 175.164062 72.738281 C 176.109375 71.910156 177.125 71.261719 178.269531 70.757812 C 179.191406 70.363281 180.464844 69.910156 182.007812 69.875 C 182.097656 69.871094 182.160156 69.871094 182.226562 69.871094 C 182.476562 69.871094 182.753906 69.894531 183.058594 69.953125 C 183.40625 69.988281 183.75 70.089844 184.160156 70.253906 C 184.878906 70.519531 185.582031 71.042969 186.058594 71.652344 C 186.308594 71.917969 186.4375 72.175781 186.585938 72.46875 L 186.671875 72.632812 C 186.839844 72.929688 186.953125 73.230469 187.039062 73.589844 C 187.292969 74.445312 187.382812 75.175781 187.304688 75.796875 C 187.15625 77.121094 186.554688 78.378906 185.492188 79.535156 C 184.707031 80.40625 183.777344 81.132812 182.582031 81.828125 C 182.125 82.078125 181.558594 82.375 180.898438 82.613281 L 179.238281 83.097656 L 177.710938 83.542969 C 177.632812 83.5625 177.546875 83.585938 177.464844 83.59375 L 175.835938 83.828125 C 175.4375 83.914062 175.027344 83.953125 174.558594 83.976562 L 174.121094 83.992188 L 174.0625 84.429688 C 173.871094 85.894531 173.808594 87.382812 173.886719 88.847656 C 173.945312 90.726562 174.242188 92.65625 174.761719 94.566406 C 175.257812 96.460938 175.929688 98.25 176.769531 99.886719 C 178.378906 103.15625 180.757812 106.046875 183.835938 108.46875 C 184.804688 109.226562 185.847656 109.929688 187.023438 110.617188 L 187.582031 110.945312 Z M 175.804688 80.128906 C 176.652344 80.058594 177.507812 79.917969 178.351562 79.707031 L 179.722656 79.363281 C 180.09375 79.25 180.476562 79.082031 180.957031 78.84375 C 181.558594 78.519531 182.414062 77.992188 183.089844 77.289062 C 183.648438 76.730469 184.039062 76.066406 184.128906 75.507812 C 184.261719 74.957031 183.851562 73.917969 183.578125 73.628906 C 183.261719 73.246094 182.8125 73.074219 182.0625 73.066406 L 182.054688 73.066406 C 181.355469 73.066406 180.480469 73.3125 179.644531 73.730469 C 178.875 74.109375 178.105469 74.652344 177.484375 75.253906 C 177.296875 75.429688 176.949219 75.789062 176.734375 76.15625 C 176.652344 76.277344 176.566406 76.449219 176.441406 76.703125 L 176.101562 77.414062 C 175.816406 78.011719 175.546875 78.675781 175.269531 79.433594 L 174.988281 80.203125 Z M 89.183594 71.882812 L 84.554688 69.4375 C 84.246094 69.273438 83.910156 69.191406 83.566406 69.191406 C 82.851562 69.191406 82.167969 69.554688 81.742188 70.167969 C 79.652344 73.152344 76.800781 75.515625 73.484375 77.007812 C 72.4375 77.476562 71.917969 78.578125 72.242188 79.628906 L 73.78125 84.628906 C 74.054688 85.535156 74.90625 86.167969 75.847656 86.167969 C 76.121094 86.167969 76.386719 86.113281 76.648438 86.003906 C 82.128906 83.71875 86.742188 79.890625 90.003906 74.933594 C 90.328125 74.445312 90.421875 73.855469 90.277344 73.28125 C 90.128906 72.675781 89.726562 72.171875 89.183594 71.882812 Z M 122.707031 55.441406 C 119.472656 55.441406 116.84375 58.070312 116.84375 61.304688 C 116.84375 64.539062 119.472656 67.167969 122.707031 67.167969 C 125.945312 67.167969 128.574219 64.539062 128.574219 61.304688 C 128.574219 58.074219 125.9375 55.441406 122.707031 55.441406 Z M 122.707031 55.441406 " fill-opacity="1" fill-rule="nonzero"/></g><g clip-path="url(#e2ab6aba02)"><path fill="#2a4dcc" d="M 195.359375 84.785156 C 195.203125 85.28125 195.050781 85.777344 194.894531 86.277344 C 194.851562 86.410156 194.8125 86.546875 194.765625 86.6875 C 194.644531 87.070312 194.523438 87.457031 194.402344 87.839844 C 194.355469 87.996094 194.304688 88.15625 194.257812 88.3125 C 194.148438 88.660156 194.039062 89.003906 193.929688 89.355469 C 193.871094 89.53125 193.820312 89.703125 193.761719 89.882812 C 193.433594 90.917969 193.109375 91.960938 192.78125 93.007812 C 192.777344 93.03125 192.765625 93.054688 192.761719 93.078125 C 192.605469 93.585938 192.441406 94.085938 192.285156 94.59375 C 192.261719 94.675781 192.234375 94.757812 192.207031 94.84375 C 192.066406 95.292969 191.925781 95.738281 191.785156 96.1875 C 191.757812 96.277344 191.726562 96.367188 191.703125 96.453125 C 191.539062 96.960938 191.382812 97.460938 191.222656 97.960938 C 191.214844 97.972656 191.214844 97.984375 191.210938 97.992188 C 190.695312 99.632812 190.179688 101.238281 189.675781 102.804688 C 188.84375 105.417969 188.039062 107.898438 187.296875 110.152344 C 186.375 112.976562 185.550781 115.445312 184.882812 117.34375 C 184.785156 117.617188 184.695312 117.886719 184.601562 118.136719 C 184.585938 118.183594 184.570312 118.230469 184.554688 118.269531 C 184.480469 118.476562 184.414062 118.667969 184.347656 118.855469 C 184.324219 118.917969 184.304688 118.976562 184.277344 119.039062 C 184.214844 119.203125 184.160156 119.367188 184.101562 119.519531 C 184.078125 119.570312 184.058594 119.628906 184.042969 119.679688 C 183.96875 119.871094 183.902344 120.054688 183.835938 120.222656 C 183.789062 120.347656 183.730469 120.484375 183.671875 120.625 C 183.652344 120.671875 183.632812 120.71875 183.609375 120.765625 C 183.570312 120.863281 183.523438 120.96875 183.476562 121.074219 C 183.449219 121.128906 183.421875 121.191406 183.390625 121.253906 C 183.34375 121.359375 183.296875 121.464844 183.246094 121.578125 C 183.214844 121.648438 183.183594 121.710938 183.152344 121.777344 C 183.097656 121.890625 183.042969 122.015625 182.980469 122.140625 C 182.949219 122.210938 182.917969 122.273438 182.886719 122.34375 C 182.816406 122.488281 182.746094 122.636719 182.671875 122.785156 C 182.644531 122.839844 182.621094 122.894531 182.589844 122.949219 C 182.484375 123.160156 182.378906 123.375 182.269531 123.597656 C 182.242188 123.644531 182.21875 123.695312 182.195312 123.75 C 182.109375 123.925781 182.019531 124.105469 181.925781 124.292969 C 181.882812 124.378906 181.835938 124.46875 181.789062 124.558594 C 181.710938 124.707031 181.632812 124.867188 181.554688 125.023438 C 181.503906 125.125 181.449219 125.230469 181.394531 125.335938 C 181.316406 125.484375 181.238281 125.644531 181.152344 125.800781 C 181.097656 125.910156 181.039062 126.019531 180.980469 126.128906 C 180.898438 126.289062 180.808594 126.460938 180.71875 126.628906 C 180.664062 126.738281 180.609375 126.84375 180.554688 126.953125 C 180.445312 127.15625 180.335938 127.363281 180.226562 127.574219 C 180.183594 127.652344 180.148438 127.722656 180.105469 127.800781 C 179.953125 128.085938 179.800781 128.371094 179.644531 128.664062 C 179.582031 128.78125 179.515625 128.910156 179.449219 129.035156 C 179.355469 129.210938 179.253906 129.386719 179.160156 129.570312 C 179.082031 129.710938 179.003906 129.859375 178.925781 130.003906 C 178.832031 130.175781 178.742188 130.34375 178.648438 130.519531 C 178.566406 130.671875 178.480469 130.824219 178.402344 130.980469 C 178.316406 131.144531 178.222656 131.3125 178.128906 131.484375 C 178.042969 131.640625 177.957031 131.796875 177.867188 131.960938 C 177.769531 132.136719 177.667969 132.320312 177.570312 132.503906 C 177.484375 132.660156 177.402344 132.8125 177.3125 132.96875 C 177.203125 133.171875 177.089844 133.375 176.980469 133.578125 C 176.832031 133.847656 176.683594 134.113281 176.53125 134.390625 C 176.421875 134.589844 176.316406 134.78125 176.207031 134.980469 C 176.109375 135.15625 176.015625 135.335938 175.914062 135.511719 C 175.820312 135.683594 175.722656 135.863281 175.628906 136.035156 C 175.519531 136.226562 175.414062 136.425781 175.304688 136.617188 C 175.214844 136.777344 175.128906 136.9375 175.039062 137.09375 C 174.925781 137.300781 174.804688 137.511719 174.691406 137.726562 C 174.613281 137.867188 174.53125 138.007812 174.453125 138.148438 C 174.324219 138.378906 174.199219 138.605469 174.070312 138.835938 C 174.011719 138.945312 173.949219 139.050781 173.886719 139.160156 C 173.40625 140.019531 172.914062 140.890625 172.425781 141.769531 C 172.375 141.863281 172.320312 141.957031 172.265625 142.054688 C 172.117188 142.308594 171.976562 142.566406 171.832031 142.820312 C 171.757812 142.953125 171.683594 143.082031 171.613281 143.207031 C 171.472656 143.453125 171.328125 143.703125 171.195312 143.949219 C 171.125 144.070312 171.058594 144.1875 170.992188 144.308594 C 170.839844 144.574219 170.6875 144.847656 170.535156 145.113281 C 170.484375 145.199219 170.4375 145.289062 170.386719 145.378906 C 170.21875 145.671875 170.050781 145.96875 169.886719 146.257812 L 183.855469 144.71875 L 186.019531 144.480469 C 186.835938 144.390625 187.570312 144.046875 188.160156 143.527344 C 188.734375 143.015625 189.160156 142.335938 189.347656 141.558594 L 194.289062 142.757812 C 193.960938 144.109375 193.324219 145.332031 192.46875 146.355469 C 191.703125 147.273438 190.746094 148.011719 189.683594 148.566406 C 188.726562 149.0625 187.683594 149.40625 186.578125 149.53125 L 185.382812 149.660156 L 180.109375 150.238281 L 166.777344 151.707031 C 160.246094 163.136719 153.9375 173.917969 152.058594 177.128906 C 152.039062 177.160156 152.015625 177.195312 152 177.226562 C 151.898438 177.410156 151.808594 177.554688 151.734375 177.679688 C 151.703125 177.734375 151.679688 177.785156 151.652344 177.828125 C 151.554688 178 151.496094 178.09375 151.496094 178.09375 L 141.589844 184.582031 L 140.613281 202.847656 C 140.550781 204.035156 139.042969 204.503906 138.3125 203.566406 L 137.296875 202.253906 L 132.34375 222.628906 L 119.230469 205.109375 L 118.054688 206.375 C 117.460938 207.011719 116.421875 206.890625 115.996094 206.128906 L 103.855469 184.582031 L 93.949219 178.09375 C 93.949219 178.09375 64.933594 128.699219 61.597656 120.210938 C 59.769531 115.539062 54.46875 98.84375 50.074219 84.773438 L 19.113281 89.59375 C 19.242188 90.09375 19.375 90.605469 19.503906 91.117188 C 19.539062 91.269531 19.582031 91.421875 19.617188 91.566406 C 19.71875 91.941406 19.816406 92.316406 19.917969 92.699219 C 19.964844 92.871094 20.003906 93.042969 20.050781 93.21875 C 20.15625 93.621094 20.265625 94.027344 20.375 94.441406 C 20.410156 94.578125 20.449219 94.707031 20.484375 94.847656 C 20.628906 95.402344 20.78125 95.957031 20.933594 96.523438 C 20.949219 96.585938 20.96875 96.652344 20.984375 96.714844 C 21.121094 97.210938 21.257812 97.71875 21.398438 98.222656 C 21.4375 98.378906 21.488281 98.535156 21.527344 98.691406 C 21.648438 99.136719 21.773438 99.585938 21.898438 100.03125 C 21.941406 100.179688 21.980469 100.324219 22.019531 100.472656 C 22.175781 101.035156 22.335938 101.597656 22.5 102.171875 C 22.503906 102.199219 22.515625 102.222656 22.519531 102.253906 C 22.695312 102.886719 22.878906 103.523438 23.0625 104.164062 C 23.082031 104.238281 23.105469 104.3125 23.125 104.382812 C 23.285156 104.9375 23.449219 105.496094 23.609375 106.058594 C 23.644531 106.183594 23.683594 106.308594 23.71875 106.433594 C 23.882812 106.988281 24.042969 107.539062 24.210938 108.097656 C 24.234375 108.1875 24.261719 108.28125 24.289062 108.371094 C 24.683594 109.707031 25.085938 111.0625 25.507812 112.433594 C 25.523438 112.492188 25.546875 112.546875 25.5625 112.609375 C 25.753906 113.238281 25.945312 113.867188 26.140625 114.503906 C 26.164062 114.59375 26.195312 114.683594 26.222656 114.769531 C 26.875 116.882812 27.558594 119.042969 28.273438 121.246094 C 28.289062 121.285156 28.300781 121.328125 28.316406 121.371094 C 28.542969 122.074219 28.773438 122.785156 29.007812 123.5 C 29.019531 123.535156 29.035156 123.570312 29.046875 123.609375 C 29.785156 125.867188 30.5625 128.164062 31.367188 130.488281 C 31.378906 130.515625 31.386719 130.542969 31.394531 130.574219 C 32.46875 133.6875 33.601562 136.859375 34.785156 140.074219 C 34.789062 140.089844 34.800781 140.109375 34.804688 140.125 C 35.996094 143.347656 37.242188 146.613281 38.546875 149.90625 C 38.550781 149.910156 38.550781 149.921875 38.554688 149.925781 C 39.53125 152.390625 40.539062 154.867188 41.578125 157.351562 C 41.59375 157.382812 41.601562 157.417969 41.617188 157.449219 C 41.957031 158.265625 42.300781 159.082031 42.652344 159.898438 C 42.652344 159.898438 42.652344 159.898438 42.652344 159.902344 C 42.832031 159.625 43.015625 159.34375 43.195312 159.066406 C 44.195312 157.386719 45.117188 155.6875 45.769531 153.945312 C 46.484375 152.21875 46.902344 150.433594 47.066406 148.671875 C 47.304688 146.910156 47.152344 145.152344 46.835938 143.34375 C 46.335938 140.558594 45.335938 137.746094 44.113281 134.871094 C 43.515625 133.472656 44.238281 131.867188 45.683594 131.402344 L 49.199219 130.257812 C 50.652344 129.785156 52.203125 130.675781 52.515625 132.175781 C 53.210938 135.460938 53.925781 138.894531 54.144531 142.535156 C 54.457031 147.226562 53.519531 152.265625 51.519531 156.378906 C 49.792969 160.011719 47.652344 163.203125 45.394531 166.191406 C 46.121094 167.8125 46.855469 169.429688 47.605469 171.046875 C 47.648438 171.128906 47.683594 171.210938 47.726562 171.296875 C 48.472656 172.902344 49.234375 174.507812 50.011719 176.117188 C 50.011719 176.121094 50.015625 176.125 50.015625 176.132812 C 50.789062 177.734375 51.582031 179.328125 52.386719 180.925781 C 52.4375 181.03125 52.488281 181.128906 52.542969 181.234375 C 53.339844 182.820312 54.15625 184.394531 54.980469 185.96875 C 54.984375 185.980469 54.988281 185.992188 54.996094 186 C 55.820312 187.570312 56.664062 189.136719 57.519531 190.695312 C 57.582031 190.8125 57.644531 190.933594 57.710938 191.046875 C 58.566406 192.597656 59.433594 194.140625 60.316406 195.671875 C 60.320312 195.683594 60.324219 195.695312 60.332031 195.703125 C 61.210938 197.238281 62.109375 198.757812 63.019531 200.269531 C 63.089844 200.394531 63.167969 200.515625 63.242188 200.640625 C 64.15625 202.152344 65.082031 203.65625 66.027344 205.148438 L 75.042969 255.546875 C 75.042969 255.546875 89.058594 255.546875 103.296875 255.546875 C 108.945312 255.546875 112.527344 255.546875 112.527344 255.546875 L 170.40625 255.546875 L 179.421875 205.148438 C 180.40625 203.59375 181.371094 202.023438 182.328125 200.441406 C 182.394531 200.328125 182.460938 200.21875 182.53125 200.101562 C 183.464844 198.546875 184.386719 196.976562 185.289062 195.402344 C 185.34375 195.3125 185.394531 195.21875 185.445312 195.125 C 186.34375 193.554688 187.230469 191.96875 188.101562 190.378906 C 188.140625 190.316406 188.175781 190.25 188.207031 190.1875 C 189.082031 188.578125 189.945312 186.96875 190.792969 185.34375 C 190.855469 185.222656 190.917969 185.097656 190.988281 184.980469 C 191.832031 183.355469 192.667969 181.722656 193.484375 180.089844 C 193.511719 180.042969 193.53125 179.992188 193.558594 179.945312 C 194.371094 178.316406 195.164062 176.691406 195.949219 175.058594 C 195.996094 174.957031 196.046875 174.851562 196.09375 174.753906 C 196.878906 173.121094 197.644531 171.484375 198.394531 169.84375 C 198.445312 169.734375 198.496094 169.625 198.546875 169.515625 C 199.308594 167.863281 200.054688 166.203125 200.785156 164.550781 C 200.789062 164.535156 200.792969 164.523438 200.800781 164.507812 C 201.535156 162.84375 202.25 161.179688 202.960938 159.519531 C 203.007812 159.410156 203.054688 159.300781 203.101562 159.1875 C 203.792969 157.542969 204.476562 155.90625 205.144531 154.273438 C 205.175781 154.199219 205.203125 154.132812 205.234375 154.058594 C 205.902344 152.425781 206.554688 150.796875 207.191406 149.179688 C 207.210938 149.125 207.238281 149.066406 207.257812 149.003906 C 207.898438 147.375 208.527344 145.753906 209.136719 144.140625 C 209.171875 144.039062 209.214844 143.9375 209.25 143.832031 C 209.867188 142.207031 210.472656 140.589844 211.0625 138.980469 C 211.0625 138.976562 211.0625 138.976562 211.066406 138.972656 C 211.65625 137.355469 212.234375 135.753906 212.800781 134.15625 C 212.824219 134.078125 212.851562 134.003906 212.882812 133.925781 C 213.441406 132.351562 213.984375 130.792969 214.511719 129.246094 C 214.535156 129.179688 214.558594 129.105469 214.582031 129.039062 C 215.121094 127.472656 215.640625 125.917969 216.148438 124.386719 C 217 121.820312 217.808594 119.304688 218.578125 116.84375 C 218.777344 116.214844 218.96875 115.601562 219.15625 114.984375 C 219.175781 114.925781 219.195312 114.871094 219.210938 114.8125 C 219.382812 114.253906 219.554688 113.703125 219.722656 113.148438 C 219.746094 113.058594 219.773438 112.972656 219.804688 112.882812 C 219.96875 112.359375 220.125 111.839844 220.28125 111.324219 C 220.3125 111.222656 220.335938 111.128906 220.367188 111.03125 C 220.523438 110.515625 220.675781 110.003906 220.828125 109.496094 C 220.855469 109.40625 220.878906 109.320312 220.90625 109.230469 C 221.0625 108.699219 221.21875 108.167969 221.375 107.640625 C 221.390625 107.582031 221.40625 107.523438 221.425781 107.472656 C 222.121094 105.109375 222.777344 102.820312 223.394531 100.613281 C 223.421875 100.523438 223.445312 100.433594 223.46875 100.339844 C 223.585938 99.902344 223.710938 99.464844 223.832031 99.03125 C 223.875 98.878906 223.914062 98.734375 223.957031 98.582031 C 224.0625 98.207031 224.160156 97.835938 224.265625 97.464844 C 224.3125 97.300781 224.355469 97.132812 224.402344 96.972656 C 224.496094 96.621094 224.589844 96.273438 224.683594 95.925781 C 224.730469 95.75 224.777344 95.578125 224.824219 95.40625 C 224.914062 95.082031 224.996094 94.757812 225.085938 94.4375 C 225.132812 94.253906 225.183594 94.066406 225.230469 93.882812 C 225.3125 93.558594 225.398438 93.242188 225.480469 92.921875 C 225.523438 92.753906 225.570312 92.589844 225.613281 92.421875 C 225.699219 92.078125 225.789062 91.738281 225.878906 91.398438 C 225.914062 91.265625 225.949219 91.121094 225.988281 90.988281 C 226.105469 90.519531 226.226562 90.054688 226.347656 89.59375 Z M 53.085938 98.660156 L 24.371094 103.757812 C 24.339844 103.761719 24.308594 103.769531 24.277344 103.769531 C 24.027344 103.769531 23.808594 103.589844 23.765625 103.335938 C 23.714844 103.054688 23.90625 102.78125 24.1875 102.730469 L 52.902344 97.632812 C 53.183594 97.582031 53.457031 97.773438 53.507812 98.054688 C 53.554688 98.34375 53.367188 98.613281 53.085938 98.660156 Z M 148.761719 187.285156 L 134.90625 237.203125 C 134.855469 237.398438 134.699219 237.539062 134.5 237.574219 C 134.46875 237.582031 134.4375 237.585938 134.398438 237.585938 C 134.238281 237.585938 134.082031 237.507812 133.984375 237.378906 L 99.003906 190.828125 C 98.832031 190.597656 98.878906 190.269531 99.109375 190.097656 C 99.335938 189.925781 99.667969 189.972656 99.839844 190.203125 L 134.179688 235.902344 L 147.753906 187.003906 C 147.832031 186.726562 148.121094 186.566406 148.398438 186.636719 C 148.671875 186.722656 148.839844 187.007812 148.761719 187.285156 Z M 221.121094 103.761719 C 221.089844 103.761719 221.058594 103.761719 221.027344 103.753906 L 192.527344 98.691406 C 192.246094 98.640625 192.050781 98.367188 192.105469 98.085938 C 192.15625 97.804688 192.421875 97.613281 192.707031 97.664062 L 221.207031 102.726562 C 221.488281 102.777344 221.683594 103.046875 221.632812 103.332031 C 221.589844 103.585938 221.371094 103.761719 221.121094 103.761719 Z M 142.835938 150.136719 L 142.789062 149.71875 L 154.695312 148.410156 L 154.824219 149.574219 L 155.148438 152.53125 L 143.292969 153.835938 C 143.355469 152.582031 143.195312 151.332031 142.835938 150.136719 Z M 116.316406 61.304688 C 116.316406 57.777344 119.175781 54.917969 122.703125 54.917969 C 126.230469 54.917969 129.089844 57.777344 129.089844 61.304688 C 129.089844 64.828125 126.230469 67.6875 122.703125 67.6875 C 119.175781 67.6875 116.316406 64.828125 116.316406 61.304688 Z M 13.003906 151.96875 C 13.003906 155.492188 10.144531 158.351562 6.617188 158.351562 C 3.089844 158.351562 0.234375 155.492188 0.234375 151.96875 C 0.234375 148.441406 3.089844 145.582031 6.617188 145.582031 C 10.144531 145.582031 13.003906 148.441406 13.003906 151.96875 Z M 13.003906 151.96875 " fill-opacity="1" fill-rule="nonzero"/></g><path fill="#fc7f74" d="M 146.347656 116.769531 C 147.46875 118.484375 150.128906 123.289062 145.917969 125.074219 C 140.75 127.253906 133.800781 116.160156 133.800781 116.160156 C 130.71875 130.449219 114.753906 134.003906 114.726562 134.011719 C 109.589844 131.246094 103.898438 131.65625 101.445312 135.214844 C 98.738281 139.144531 101.007812 145.402344 106.511719 149.195312 C 108.59375 150.632812 110.835938 151.496094 112.96875 151.820312 L 112.953125 151.960938 C 112.953125 151.960938 112.03125 163.257812 102.003906 165.207031 L 98.683594 130.25 C 97.199219 114.082031 109.101562 99.765625 125.269531 98.28125 C 140.988281 96.84375 154.960938 108.039062 157.09375 123.5 C 151.394531 122.832031 147.582031 118.402344 146.347656 116.769531 Z M 163.046875 147.003906 L 169.691406 151.367188 L 174.964844 150.789062 L 168.320312 146.425781 Z M 154.640625 147.929688 L 154.695312 148.402344 L 154.824219 149.566406 L 159.304688 152.507812 L 164.578125 151.929688 L 157.933594 147.570312 Z M 173.4375 145.867188 L 180.097656 150.238281 L 185.375 149.660156 L 178.71875 145.289062 Z M 186.011719 144.476562 L 183.84375 144.714844 L 183.824219 144.726562 L 189.671875 148.566406 C 190.738281 148.011719 191.695312 147.273438 192.457031 146.355469 L 188.144531 143.527344 C 187.566406 144.042969 186.824219 144.386719 186.011719 144.476562 Z M 237.21875 191.839844 C 234.648438 189.402344 232.78125 186.308594 231.824219 182.898438 C 231.453125 181.574219 230.191406 180.703125 228.832031 180.910156 C 227.109375 181.171875 225.382812 181.433594 223.660156 181.691406 C 222.109375 181.925781 221.0625 183.445312 221.449219 184.96875 C 222.914062 190.800781 226.097656 196.066406 230.574219 200.078125 C 231.730469 201.113281 233.550781 200.886719 234.476562 199.632812 C 235.511719 198.230469 236.546875 196.820312 237.585938 195.417969 C 238.402344 194.308594 238.21875 192.785156 237.21875 191.839844 Z M 89.429688 71.417969 C 87.886719 70.605469 86.34375 69.785156 84.796875 68.972656 C 83.582031 68.332031 82.105469 68.730469 81.320312 69.863281 C 79.289062 72.769531 76.507812 75.070312 73.273438 76.527344 C 72.015625 77.089844 71.34375 78.464844 71.75 79.78125 C 72.261719 81.445312 72.777344 83.113281 73.289062 84.777344 C 73.753906 86.277344 75.40625 87.085938 76.859375 86.484375 C 82.410156 84.167969 87.144531 80.246094 90.449219 75.222656 C 91.304688 73.914062 90.808594 72.148438 89.429688 71.417969 Z M 89.429688 71.417969 " fill-opacity="1" fill-rule="nonzero"/><path fill="#f4d7d3" d="M 155.148438 152.523438 L 143.292969 153.828125 C 143.257812 154.496094 143.164062 155.160156 143.003906 155.8125 C 142.945312 156.050781 142.730469 156.207031 142.496094 156.207031 C 142.453125 156.207031 142.414062 156.203125 142.371094 156.191406 C 142.089844 156.125 141.921875 155.84375 141.992188 155.5625 C 142.574219 153.191406 142.21875 150.621094 141.019531 148.496094 C 140.878906 148.246094 140.96875 147.929688 141.21875 147.789062 C 141.46875 147.648438 141.785156 147.734375 141.929688 147.988281 C 142.3125 148.664062 142.605469 149.390625 142.835938 150.128906 L 142.789062 149.714844 L 154.695312 148.402344 L 154.640625 147.929688 L 157.933594 147.5625 L 160.292969 147.304688 L 157.261719 124.859375 C 157.207031 124.394531 157.160156 123.9375 157.09375 123.488281 C 151.394531 122.824219 147.582031 118.402344 146.339844 116.769531 C 147.464844 118.484375 150.125 123.289062 145.914062 125.074219 C 140.742188 127.253906 133.792969 116.160156 133.792969 116.160156 C 130.710938 130.449219 114.75 134.003906 114.722656 134.011719 C 109.582031 131.246094 103.890625 131.65625 101.441406 135.214844 C 98.730469 139.144531 101 145.402344 106.503906 149.195312 C 108.585938 150.632812 110.832031 151.496094 112.964844 151.820312 L 112.949219 151.960938 C 112.949219 151.960938 112.023438 163.257812 102 165.207031 L 103.828125 184.59375 L 130.070312 193.507812 L 141.5625 184.59375 L 140.453125 172.363281 C 140.4375 172.363281 140.414062 172.375 140.398438 172.375 C 140.394531 172.375 140.394531 172.375 140.390625 172.375 C 132.222656 172.214844 127.035156 167.382812 126.816406 167.179688 C 126.605469 166.980469 126.59375 166.652344 126.792969 166.445312 C 126.992188 166.234375 127.320312 166.222656 127.53125 166.421875 C 127.582031 166.46875 132.664062 171.179688 140.40625 171.332031 C 140.691406 171.335938 140.921875 171.578125 140.914062 171.863281 C 140.914062 171.863281 140.914062 171.863281 140.914062 171.871094 C 141.058594 171.871094 141.203125 171.871094 141.34375 171.871094 C 141.457031 171.871094 141.566406 171.871094 141.683594 171.871094 C 141.792969 171.871094 141.90625 171.863281 142.015625 171.863281 C 142.164062 171.859375 142.308594 171.855469 142.453125 171.84375 C 142.542969 171.835938 142.625 171.832031 142.714844 171.828125 C 142.949219 171.804688 143.183594 171.785156 143.425781 171.75 C 143.753906 171.707031 144.078125 171.65625 144.394531 171.59375 C 144.5 171.570312 144.605469 171.550781 144.707031 171.53125 C 144.921875 171.488281 145.136719 171.441406 145.34375 171.394531 C 145.46875 171.363281 145.589844 171.332031 145.714844 171.300781 C 145.902344 171.253906 146.089844 171.203125 146.277344 171.148438 C 146.410156 171.113281 146.535156 171.070312 146.664062 171.035156 C 146.84375 170.980469 147.019531 170.925781 147.195312 170.863281 C 147.328125 170.820312 147.453125 170.773438 147.582031 170.726562 C 147.753906 170.664062 147.925781 170.601562 148.09375 170.535156 C 148.21875 170.480469 148.34375 170.433594 148.46875 170.382812 C 148.636719 170.316406 148.804688 170.242188 148.964844 170.164062 C 149.085938 170.105469 149.210938 170.054688 149.332031 169.996094 C 149.496094 169.917969 149.660156 169.835938 149.820312 169.75 C 149.9375 169.695312 150.050781 169.636719 150.164062 169.574219 C 150.332031 169.484375 150.5 169.390625 150.667969 169.292969 C 150.769531 169.234375 150.875 169.175781 150.980469 169.113281 C 151.167969 169 151.355469 168.886719 151.539062 168.765625 C 151.609375 168.71875 151.6875 168.671875 151.765625 168.625 C 152.023438 168.457031 152.273438 168.28125 152.519531 168.101562 C 152.589844 168.046875 152.664062 167.988281 152.742188 167.9375 C 152.914062 167.804688 153.082031 167.679688 153.25 167.542969 C 153.347656 167.464844 153.441406 167.382812 153.535156 167.304688 C 153.675781 167.191406 153.8125 167.074219 153.949219 166.953125 C 154.046875 166.867188 154.144531 166.773438 154.25 166.683594 C 154.375 166.570312 154.5 166.453125 154.621094 166.335938 C 154.71875 166.234375 154.820312 166.136719 154.917969 166.035156 C 155.03125 165.921875 155.148438 165.800781 155.261719 165.683594 C 155.359375 165.578125 155.457031 165.472656 155.554688 165.367188 C 155.664062 165.25 155.769531 165.128906 155.878906 165.003906 C 155.972656 164.894531 156.066406 164.785156 156.152344 164.675781 C 156.257812 164.550781 156.359375 164.425781 156.457031 164.292969 C 156.546875 164.179688 156.632812 164.070312 156.722656 163.949219 C 156.820312 163.820312 156.914062 163.6875 157.007812 163.554688 C 157.09375 163.4375 157.175781 163.324219 157.261719 163.203125 C 157.355469 163.066406 157.441406 162.925781 157.535156 162.785156 C 157.609375 162.671875 157.6875 162.558594 157.761719 162.4375 C 157.859375 162.273438 157.960938 162.101562 158.054688 161.9375 C 158.164062 161.75 158.261719 161.566406 158.367188 161.371094 C 158.453125 161.207031 158.546875 161.035156 158.632812 160.863281 C 158.695312 160.730469 158.757812 160.59375 158.820312 160.464844 C 158.886719 160.320312 158.957031 160.179688 159.023438 160.03125 C 159.085938 159.890625 159.144531 159.75 159.199219 159.609375 C 159.257812 159.46875 159.320312 159.328125 159.371094 159.183594 C 159.429688 159.035156 159.484375 158.890625 159.535156 158.742188 C 159.585938 158.601562 159.640625 158.460938 159.6875 158.316406 C 159.738281 158.164062 159.785156 158.019531 159.832031 157.867188 C 159.878906 157.726562 159.921875 157.582031 159.960938 157.433594 C 160.003906 157.28125 160.046875 157.125 160.085938 156.976562 C 160.125 156.828125 160.160156 156.683594 160.195312 156.535156 C 160.234375 156.378906 160.269531 156.222656 160.300781 156.066406 C 160.332031 155.921875 160.359375 155.773438 160.390625 155.625 C 160.421875 155.46875 160.449219 155.304688 160.472656 155.148438 C 160.5 154.996094 160.515625 154.851562 160.535156 154.699219 C 160.558594 154.539062 160.582031 154.382812 160.597656 154.21875 C 160.613281 154.070312 160.628906 153.914062 160.640625 153.757812 C 160.65625 153.601562 160.671875 153.4375 160.683594 153.28125 C 160.703125 152.980469 160.714844 152.675781 160.71875 152.375 L 155.179688 152.984375 Z M 147.984375 133.886719 L 151.886719 130.78125 C 152.109375 130.597656 152.441406 130.640625 152.617188 130.863281 C 152.792969 131.089844 152.757812 131.417969 152.535156 131.59375 L 149.226562 134.230469 L 152.867188 136.378906 C 153.117188 136.523438 153.195312 136.84375 153.050781 137.09375 C 152.949219 137.261719 152.777344 137.347656 152.601562 137.347656 C 152.511719 137.347656 152.417969 137.328125 152.335938 137.277344 L 148.035156 134.746094 C 147.890625 134.65625 147.792969 134.507812 147.78125 134.332031 C 147.777344 134.15625 147.847656 133.996094 147.984375 133.886719 Z M 143.246094 144.964844 C 143.957031 144.898438 144.59375 144.523438 144.988281 143.929688 C 145.386719 143.332031 145.492188 142.601562 145.277344 141.917969 L 144.417969 139.15625 C 144.332031 138.878906 144.484375 138.585938 144.761719 138.503906 C 145.035156 138.417969 145.328125 138.570312 145.414062 138.847656 L 146.273438 141.613281 C 146.582031 142.597656 146.429688 143.652344 145.855469 144.511719 C 145.28125 145.367188 144.371094 145.914062 143.339844 146.007812 C 143.324219 146.007812 143.308594 146.007812 143.292969 146.007812 C 143.027344 146.007812 142.800781 145.804688 142.773438 145.535156 C 142.746094 145.246094 142.960938 144.992188 143.246094 144.964844 Z M 106.671875 139.367188 C 106.410156 139.25 106.296875 138.933594 106.421875 138.675781 C 106.542969 138.414062 106.855469 138.296875 107.117188 138.425781 L 113.5625 141.433594 C 113.824219 141.554688 113.9375 141.867188 113.8125 142.128906 C 113.726562 142.316406 113.539062 142.429688 113.339844 142.429688 C 113.265625 142.429688 113.1875 142.414062 113.121094 142.382812 Z M 137.59375 135.753906 L 133.480469 138.582031 C 133.394531 138.644531 133.289062 138.675781 133.183594 138.675781 C 133.015625 138.675781 132.855469 138.597656 132.75 138.449219 C 132.589844 138.210938 132.648438 137.886719 132.886719 137.726562 L 136.371094 135.332031 L 132.886719 132.9375 C 132.648438 132.773438 132.589844 132.445312 132.75 132.210938 C 132.914062 131.972656 133.242188 131.914062 133.476562 132.074219 L 137.585938 134.902344 C 137.726562 135 137.8125 135.164062 137.8125 135.332031 C 137.8125 135.496094 137.734375 135.660156 137.59375 135.753906 Z M 43.449219 63.464844 C 43.449219 63.464844 46.453125 73.238281 50.054688 84.785156 L 19.09375 89.605469 C 18.980469 89.183594 18.878906 88.769531 18.773438 88.359375 C 18.773438 88.347656 18.769531 88.34375 18.769531 88.332031 C 18.628906 87.773438 18.492188 87.230469 18.355469 86.695312 C 18.234375 86.21875 18.121094 85.75 18.007812 85.289062 C 17.964844 85.128906 17.929688 84.96875 17.886719 84.804688 C 17.855469 84.683594 17.828125 84.574219 17.804688 84.457031 C 17.742188 84.195312 17.671875 83.933594 17.609375 83.679688 C 17.59375 83.609375 17.578125 83.542969 17.558594 83.46875 C 17.484375 83.171875 17.410156 82.875 17.34375 82.582031 C 17.339844 82.550781 17.328125 82.519531 17.324219 82.492188 C 17.246094 82.164062 17.167969 81.84375 17.089844 81.523438 C 17.082031 81.503906 17.078125 81.488281 17.074219 81.464844 C 16.996094 81.144531 16.921875 80.824219 16.847656 80.511719 C 16.832031 80.433594 16.8125 80.359375 16.796875 80.28125 C 16.734375 80.019531 16.675781 79.765625 16.613281 79.515625 C 16.601562 79.464844 16.59375 79.417969 16.578125 79.363281 C 16.515625 79.097656 16.453125 78.832031 16.394531 78.570312 C 16.367188 78.464844 16.347656 78.363281 16.320312 78.261719 C 16.273438 78.054688 16.226562 77.851562 16.179688 77.648438 C 16.164062 77.578125 16.148438 77.523438 16.140625 77.453125 C 16.085938 77.214844 16.03125 76.980469 15.976562 76.75 C 15.976562 76.746094 15.972656 76.734375 15.972656 76.730469 C 15.910156 76.453125 15.847656 76.175781 15.789062 75.910156 C 15.785156 75.878906 15.777344 75.851562 15.769531 75.828125 C 15.652344 75.304688 15.539062 74.808594 15.433594 74.335938 C 15.425781 74.296875 15.417969 74.261719 15.410156 74.21875 C 15.363281 74.011719 15.320312 73.804688 15.273438 73.605469 C 15.261719 73.5625 15.257812 73.519531 15.246094 73.480469 C 15.207031 73.28125 15.164062 73.089844 15.121094 72.898438 C 15.117188 72.882812 15.117188 72.875 15.113281 72.859375 C 15.015625 72.425781 14.929688 72.011719 14.851562 71.632812 C 14.851562 71.621094 14.84375 71.613281 14.84375 71.601562 C 14.804688 71.414062 14.765625 71.230469 14.730469 71.058594 C 14.730469 71.054688 14.730469 71.046875 14.726562 71.042969 C 14.609375 70.5 14.511719 70.019531 14.429688 69.601562 C 14.421875 69.585938 14.421875 69.578125 14.417969 69.5625 C 14.390625 69.4375 14.367188 69.3125 14.34375 69.195312 C 14.296875 68.949219 14.25 68.738281 14.214844 68.550781 C 14.207031 68.519531 14.203125 68.492188 14.199219 68.464844 C 14.1875 68.402344 14.171875 68.335938 14.160156 68.277344 C 14.15625 68.257812 14.152344 68.238281 14.152344 68.214844 C 14.140625 68.164062 14.128906 68.109375 14.125 68.070312 C 14.121094 68.039062 14.113281 68.011719 14.109375 67.984375 C 14.105469 67.953125 14.097656 67.921875 14.09375 67.902344 C 14.089844 67.886719 14.089844 67.871094 14.082031 67.855469 C 14.078125 67.820312 14.066406 67.78125 14.0625 67.757812 C 14.050781 67.710938 14.046875 67.679688 14.046875 67.671875 L 14.035156 67.671875 C 13.941406 67.222656 13.847656 66.769531 13.753906 66.316406 C 13.722656 66.164062 13.691406 66.007812 13.667969 65.851562 C 13.605469 65.550781 13.546875 65.246094 13.488281 64.9375 C 13.453125 64.757812 13.421875 64.570312 13.382812 64.386719 C 13.332031 64.109375 13.28125 63.828125 13.226562 63.550781 C 13.191406 63.351562 13.15625 63.148438 13.125 62.953125 C 13.078125 62.6875 13.03125 62.417969 12.984375 62.148438 C 12.945312 61.945312 12.914062 61.734375 12.878906 61.527344 C 12.832031 61.261719 12.789062 60.996094 12.75 60.730469 C 12.71875 60.527344 12.679688 60.316406 12.648438 60.109375 C 12.605469 59.84375 12.566406 59.578125 12.523438 59.304688 C 12.492188 59.097656 12.460938 58.886719 12.429688 58.683594 C 12.386719 58.417969 12.351562 58.15625 12.308594 57.890625 C 12.277344 57.683594 12.246094 57.46875 12.214844 57.261719 C 12.179688 57 12.136719 56.734375 12.101562 56.472656 C 12.070312 56.269531 12.042969 56.058594 12.011719 55.855469 C 11.976562 55.589844 11.941406 55.324219 11.902344 55.058594 C 11.875 54.855469 11.851562 54.65625 11.820312 54.453125 C 11.78125 54.1875 11.746094 53.917969 11.714844 53.648438 C 11.6875 53.457031 11.664062 53.257812 11.640625 53.066406 C 11.605469 52.792969 11.574219 52.523438 11.539062 52.253906 C 11.515625 52.0625 11.492188 51.882812 11.46875 51.695312 C 11.433594 51.40625 11.402344 51.125 11.367188 50.84375 C 11.34375 50.683594 11.324219 50.515625 11.308594 50.347656 C 11.273438 50.039062 11.234375 49.738281 11.203125 49.433594 C 11.1875 49.300781 11.171875 49.160156 11.15625 49.023438 C 11.117188 48.65625 11.078125 48.292969 11.035156 47.9375 C 11.03125 47.871094 11.019531 47.796875 11.015625 47.730469 C 10.96875 47.296875 10.921875 46.867188 10.878906 46.445312 C 10.875 46.414062 10.875 46.378906 10.871094 46.347656 C 10.828125 45.964844 10.792969 45.589844 10.753906 45.21875 C 10.746094 45.105469 10.734375 44.996094 10.722656 44.886719 C 10.699219 44.597656 10.667969 44.3125 10.640625 44.03125 C 10.628906 43.898438 10.613281 43.769531 10.605469 43.640625 C 10.578125 43.386719 10.558594 43.136719 10.535156 42.894531 C 10.519531 42.753906 10.511719 42.617188 10.5 42.476562 C 10.480469 42.25 10.457031 42.023438 10.4375 41.800781 C 10.425781 41.65625 10.410156 41.515625 10.402344 41.375 C 10.386719 41.171875 10.363281 40.96875 10.347656 40.765625 C 10.339844 40.625 10.324219 40.484375 10.3125 40.34375 C 10.296875 40.152344 10.28125 39.964844 10.265625 39.785156 C 10.253906 39.648438 10.242188 39.511719 10.234375 39.375 C 10.21875 39.195312 10.203125 39.015625 10.191406 38.84375 C 10.179688 38.726562 10.171875 38.597656 10.164062 38.484375 C 10.148438 38.3125 10.140625 38.152344 10.128906 37.988281 C 10.117188 37.875 10.113281 37.757812 10.101562 37.648438 C 10.09375 37.5 10.082031 37.347656 10.070312 37.207031 C 10.0625 37.097656 10.054688 36.992188 10.050781 36.886719 C 10.039062 36.742188 10.03125 36.601562 10.019531 36.460938 C 10.015625 36.378906 10.007812 36.292969 10.003906 36.214844 C 9.992188 36.078125 9.984375 35.949219 9.976562 35.824219 C 9.972656 35.746094 9.96875 35.664062 9.960938 35.589844 C 9.957031 35.480469 9.945312 35.378906 9.941406 35.277344 C 9.9375 35.203125 9.929688 35.128906 9.925781 35.0625 C 9.921875 34.96875 9.914062 34.890625 9.910156 34.808594 C 9.90625 34.746094 9.898438 34.671875 9.898438 34.613281 C 9.882812 34.359375 9.875 34.160156 9.863281 34.019531 C 9.835938 33.851562 9.820312 33.683594 9.816406 33.519531 C 9.816406 33.511719 9.816406 33.511719 9.816406 33.507812 C 9.800781 33.007812 9.867188 32.507812 10.019531 32.019531 C 10.023438 32.003906 10.03125 31.988281 10.035156 31.96875 C 10.078125 31.839844 10.128906 31.707031 10.1875 31.578125 C 10.203125 31.535156 10.222656 31.5 10.242188 31.457031 C 10.296875 31.351562 10.347656 31.25 10.40625 31.148438 C 10.433594 31.101562 10.457031 31.0625 10.484375 31.015625 C 10.546875 30.914062 10.613281 30.820312 10.683594 30.726562 C 10.714844 30.683594 10.738281 30.648438 10.769531 30.605469 C 10.875 30.476562 10.984375 30.351562 11.105469 30.230469 C 11.242188 30.097656 11.382812 29.976562 11.53125 29.867188 C 11.574219 29.835938 11.617188 29.808594 11.652344 29.777344 C 11.773438 29.6875 11.898438 29.609375 12.027344 29.539062 C 12.058594 29.523438 12.089844 29.5 12.121094 29.480469 C 12.285156 29.390625 12.445312 29.320312 12.617188 29.25 C 12.644531 29.242188 12.675781 29.230469 12.703125 29.226562 C 12.847656 29.171875 13 29.125 13.148438 29.089844 C 13.1875 29.078125 13.21875 29.074219 13.253906 29.0625 C 13.613281 28.984375 13.984375 28.949219 14.355469 28.964844 C 14.375 28.964844 14.398438 28.964844 14.421875 28.96875 C 14.605469 28.980469 14.78125 28.996094 14.964844 29.027344 C 14.96875 29.027344 14.96875 29.027344 14.976562 29.027344 C 15.167969 29.0625 15.363281 29.109375 15.550781 29.167969 C 15.386719 29.371094 15.394531 29.664062 15.582031 29.851562 L 21.171875 35.484375 C 21.0625 35.59375 21 35.742188 21.015625 35.90625 C 21.148438 37.09375 20.742188 38.246094 19.894531 39.085938 C 19.164062 39.808594 18.195312 40.207031 17.167969 40.207031 C 17.160156 40.207031 17.15625 40.207031 17.152344 40.207031 C 16.117188 40.199219 15.148438 39.792969 14.417969 39.0625 L 13.382812 38.019531 C 13.179688 37.816406 12.851562 37.816406 12.648438 38.015625 C 12.445312 38.21875 12.445312 38.546875 12.648438 38.75 L 13.683594 39.792969 C 14.605469 40.726562 15.839844 41.238281 17.152344 41.246094 C 17.15625 41.246094 17.160156 41.246094 17.171875 41.246094 C 18.476562 41.246094 19.707031 40.738281 20.636719 39.820312 C 20.746094 39.710938 20.84375 39.597656 20.9375 39.480469 C 21.589844 40.210938 26.949219 46.472656 27.21875 54.765625 C 27.230469 55.046875 27.460938 55.273438 27.742188 55.273438 C 27.746094 55.273438 27.75 55.273438 27.757812 55.273438 C 28.042969 55.261719 28.269531 55.023438 28.261719 54.734375 C 27.949219 45.570312 21.878906 38.992188 21.621094 38.714844 C 21.589844 38.679688 21.550781 38.65625 21.507812 38.636719 C 21.867188 37.957031 22.058594 37.203125 22.070312 36.425781 L 22.328125 36.679688 C 23.25 37.613281 24.484375 38.125 25.796875 38.128906 C 25.800781 38.128906 25.804688 38.128906 25.816406 38.128906 C 27.121094 38.128906 28.351562 37.625 29.28125 36.707031 C 30.214844 35.78125 30.726562 34.546875 30.730469 33.238281 C 30.730469 32.6875 30.640625 32.160156 30.476562 31.65625 C 30.242188 30.945312 29.84375 30.300781 29.304688 29.75 L 21.933594 22.328125 C 21.472656 21.859375 20.929688 21.5 20.328125 21.25 C 20.308594 21.242188 20.292969 21.242188 20.269531 21.238281 C 19.890625 20.605469 19.675781 19.902344 19.640625 19.191406 C 19.640625 19.175781 19.640625 19.160156 19.640625 19.144531 C 19.628906 18.917969 19.632812 18.6875 19.660156 18.457031 C 19.660156 18.453125 19.660156 18.441406 19.664062 18.4375 C 19.691406 18.210938 19.738281 17.988281 19.800781 17.761719 C 19.804688 17.753906 19.804688 17.742188 19.804688 17.730469 C 19.871094 17.523438 19.949219 17.316406 20.042969 17.117188 C 20.058594 17.085938 20.074219 17.046875 20.089844 17.015625 C 20.183594 16.824219 20.292969 16.636719 20.417969 16.460938 C 20.4375 16.429688 20.457031 16.402344 20.484375 16.371094 C 20.621094 16.1875 20.765625 16.003906 20.933594 15.839844 C 21.074219 15.699219 21.230469 15.574219 21.386719 15.453125 C 21.429688 15.421875 21.464844 15.394531 21.507812 15.363281 C 21.664062 15.253906 21.820312 15.148438 21.988281 15.066406 C 21.992188 15.066406 21.992188 15.0625 21.996094 15.0625 C 22.167969 14.972656 22.347656 14.898438 22.523438 14.832031 C 22.566406 14.816406 22.609375 14.800781 22.648438 14.789062 C 22.828125 14.730469 23.007812 14.679688 23.191406 14.644531 C 23.191406 14.644531 23.199219 14.644531 23.199219 14.644531 C 23.386719 14.605469 23.578125 14.585938 23.765625 14.574219 C 23.800781 14.574219 23.84375 14.570312 23.882812 14.570312 C 24.261719 14.558594 24.648438 14.589844 25.023438 14.679688 C 25.058594 14.683594 25.089844 14.695312 25.121094 14.707031 C 25.308594 14.753906 25.492188 14.8125 25.671875 14.882812 C 25.660156 15.023438 25.707031 15.171875 25.816406 15.28125 L 33.742188 23.246094 C 33.84375 23.351562 33.976562 23.398438 34.109375 23.398438 C 34.242188 23.398438 34.378906 23.34375 34.476562 23.246094 L 36.347656 25.136719 C 38.058594 26.855469 38.050781 29.636719 36.328125 31.347656 C 35.21875 32.449219 33.671875 32.828125 32.253906 32.507812 C 34.171875 38.40625 36.089844 44.308594 38.007812 50.210938 C 38.875 52.878906 41.617188 54.402344 44.308594 53.816406 C 44.308594 53.816406 44.308594 53.824219 44.308594 53.824219 C 44.054688 57.066406 43.820312 59.707031 43.664062 61.398438 C 43.664062 61.40625 43.664062 61.414062 43.664062 61.421875 C 43.625 61.789062 43.601562 62.113281 43.570312 62.386719 C 43.570312 62.386719 43.570312 62.394531 43.570312 62.394531 C 43.515625 62.921875 43.484375 63.257812 43.46875 63.394531 C 43.453125 63.4375 43.449219 63.464844 43.449219 63.464844 Z M 205.695312 22.3125 C 203.972656 20.601562 203.960938 17.820312 205.671875 16.097656 L 208.644531 13.105469 L 214.1875 7.523438 C 215.898438 5.800781 218.679688 5.789062 220.398438 7.5 C 222.121094 9.214844 222.132812 11.992188 220.421875 13.714844 L 219.601562 14.539062 C 219.398438 14.335938 219.070312 14.335938 218.867188 14.539062 L 210.941406 22.503906 C 210.785156 22.660156 210.753906 22.890625 210.835938 23.085938 C 209.183594 23.957031 207.085938 23.699219 205.695312 22.3125 Z M 225.773438 21.5625 C 225.945312 21.515625 226.121094 21.476562 226.300781 21.453125 C 226.320312 21.445312 226.339844 21.445312 226.363281 21.441406 C 226.722656 21.390625 227.085938 21.382812 227.449219 21.425781 C 227.46875 21.425781 227.488281 21.429688 227.511719 21.4375 C 227.660156 21.457031 227.816406 21.484375 227.96875 21.519531 C 228.007812 21.53125 228.042969 21.535156 228.078125 21.546875 C 228.246094 21.585938 228.40625 21.640625 228.570312 21.703125 C 228.574219 21.703125 228.578125 21.707031 228.585938 21.707031 C 228.746094 21.769531 228.910156 21.847656 229.066406 21.9375 C 229.105469 21.957031 229.144531 21.984375 229.179688 22.003906 C 229.292969 22.074219 229.410156 22.144531 229.523438 22.230469 C 229.566406 22.261719 229.609375 22.285156 229.648438 22.316406 C 229.789062 22.425781 229.929688 22.546875 230.0625 22.671875 C 231.78125 24.382812 231.792969 27.164062 230.082031 28.886719 L 229.835938 29.132812 C 229.632812 28.925781 229.304688 28.925781 229.101562 29.136719 L 222.34375 35.945312 C 221.617188 36.679688 220.644531 37.085938 219.613281 37.085938 C 219.605469 37.085938 219.601562 37.085938 219.597656 37.085938 C 218.570312 37.085938 217.597656 36.691406 216.867188 35.964844 C 216.132812 35.234375 215.726562 34.265625 215.726562 33.230469 C 215.71875 32.199219 216.121094 31.222656 216.847656 30.488281 L 224.214844 23.0625 C 224.578125 22.691406 225.007812 22.40625 225.480469 22.214844 C 225.738281 22.097656 225.855469 21.816406 225.773438 21.5625 Z M 235.601562 33.511719 C 235.601562 33.511719 235.601562 33.519531 235.601562 33.519531 C 235.597656 33.683594 235.582031 33.851562 235.554688 34.019531 C 235.542969 34.203125 235.523438 34.5 235.503906 34.875 C 235.496094 34.933594 235.496094 34.984375 235.492188 35.046875 C 235.488281 35.128906 235.480469 35.222656 235.476562 35.3125 C 235.472656 35.394531 235.464844 35.480469 235.460938 35.574219 C 235.457031 35.65625 235.449219 35.75 235.445312 35.835938 C 235.433594 35.953125 235.429688 36.070312 235.417969 36.199219 C 235.414062 36.289062 235.410156 36.378906 235.398438 36.472656 C 235.386719 36.601562 235.378906 36.738281 235.367188 36.878906 C 235.363281 36.988281 235.351562 37.097656 235.339844 37.210938 C 235.332031 37.351562 235.320312 37.492188 235.308594 37.644531 C 235.300781 37.757812 235.292969 37.878906 235.285156 37.996094 C 235.273438 38.152344 235.257812 38.3125 235.246094 38.480469 C 235.238281 38.597656 235.226562 38.726562 235.214844 38.851562 C 235.199219 39.023438 235.191406 39.195312 235.175781 39.375 C 235.164062 39.511719 235.152344 39.648438 235.144531 39.789062 C 235.128906 39.972656 235.109375 40.160156 235.09375 40.351562 C 235.085938 40.488281 235.074219 40.617188 235.058594 40.757812 C 235.042969 40.96875 235.023438 41.183594 235 41.394531 C 234.992188 41.53125 234.976562 41.667969 234.964844 41.800781 C 234.945312 42.027344 234.921875 42.25 234.902344 42.480469 C 234.890625 42.621094 234.875 42.757812 234.867188 42.898438 C 234.84375 43.144531 234.820312 43.394531 234.796875 43.644531 C 234.789062 43.773438 234.773438 43.90625 234.761719 44.039062 C 234.734375 44.316406 234.710938 44.605469 234.679688 44.890625 C 234.667969 45.003906 234.65625 45.117188 234.648438 45.230469 C 234.609375 45.59375 234.574219 45.972656 234.53125 46.347656 C 234.527344 46.382812 234.527344 46.417969 234.523438 46.457031 C 234.480469 46.878906 234.433594 47.304688 234.386719 47.738281 C 234.382812 47.800781 234.371094 47.871094 234.367188 47.9375 C 234.324219 48.304688 234.285156 48.667969 234.246094 49.039062 C 234.230469 49.175781 234.214844 49.308594 234.199219 49.445312 C 234.160156 49.746094 234.128906 50.054688 234.09375 50.363281 C 234.074219 50.519531 234.058594 50.683594 234.035156 50.84375 C 234 51.128906 233.96875 51.421875 233.933594 51.714844 C 233.910156 51.890625 233.890625 52.0625 233.863281 52.242188 C 233.828125 52.519531 233.796875 52.800781 233.761719 53.082031 C 233.734375 53.269531 233.714844 53.460938 233.6875 53.65625 C 233.652344 53.921875 233.621094 54.191406 233.582031 54.464844 C 233.558594 54.667969 233.53125 54.867188 233.5 55.070312 C 233.460938 55.335938 233.425781 55.601562 233.390625 55.867188 C 233.363281 56.070312 233.332031 56.273438 233.304688 56.476562 C 233.269531 56.742188 233.226562 57.015625 233.191406 57.28125 C 233.160156 57.484375 233.132812 57.6875 233.101562 57.898438 C 233.0625 58.167969 233.023438 58.433594 232.984375 58.707031 C 232.953125 58.910156 232.921875 59.113281 232.890625 59.316406 C 232.847656 59.585938 232.804688 59.859375 232.757812 60.128906 C 232.726562 60.332031 232.695312 60.535156 232.660156 60.738281 C 232.617188 61.011719 232.570312 61.277344 232.523438 61.546875 C 232.488281 61.75 232.457031 61.957031 232.417969 62.160156 C 232.371094 62.429688 232.324219 62.703125 232.277344 62.972656 C 232.242188 63.171875 232.210938 63.367188 232.175781 63.566406 C 232.121094 63.847656 232.070312 64.128906 232.019531 64.414062 C 231.988281 64.59375 231.949219 64.777344 231.917969 64.953125 C 231.859375 65.261719 231.796875 65.570312 231.742188 65.875 C 231.710938 66.023438 231.683594 66.179688 231.652344 66.332031 C 231.558594 66.785156 231.46875 67.238281 231.371094 67.6875 L 231.359375 67.6875 L 231.367188 67.695312 C 231.367188 67.695312 229.78125 76.167969 226.332031 89.640625 L 195.371094 84.820312 C 198.96875 73.277344 201.972656 63.5 201.972656 63.5 L 201.996094 63.496094 L 201.96875 63.488281 C 201.96875 63.488281 201.964844 63.464844 201.964844 63.417969 C 201.964844 63.410156 201.964844 63.410156 201.964844 63.40625 C 201.957031 63.367188 201.953125 63.316406 201.949219 63.257812 C 201.941406 63.226562 201.941406 63.191406 201.9375 63.148438 C 201.933594 63.125 201.933594 63.09375 201.925781 63.066406 C 201.910156 62.910156 201.890625 62.71875 201.871094 62.480469 C 201.871094 62.457031 201.863281 62.429688 201.863281 62.402344 C 201.839844 62.152344 201.8125 61.867188 201.78125 61.539062 C 201.777344 61.496094 201.769531 61.453125 201.769531 61.414062 C 201.738281 61.070312 201.703125 60.6875 201.667969 60.269531 C 201.660156 60.238281 201.660156 60.207031 201.65625 60.175781 C 201.632812 59.960938 201.613281 59.742188 201.597656 59.507812 C 201.597656 59.5 201.597656 59.484375 201.59375 59.46875 C 201.570312 59.246094 201.550781 59.023438 201.535156 58.789062 C 201.53125 58.746094 201.53125 58.707031 201.523438 58.660156 C 201.503906 58.40625 201.476562 58.148438 201.457031 57.875 C 201.457031 57.867188 201.457031 57.855469 201.453125 57.84375 C 201.429688 57.589844 201.40625 57.324219 201.382812 57.046875 C 201.378906 57 201.378906 56.953125 201.375 56.910156 C 201.347656 56.625 201.328125 56.328125 201.300781 56.023438 C 201.300781 56.019531 201.300781 56.011719 201.300781 56.007812 C 201.273438 55.722656 201.253906 55.421875 201.226562 55.121094 C 201.222656 55.0625 201.21875 55.007812 201.210938 54.949219 C 201.1875 54.632812 201.160156 54.3125 201.132812 53.984375 C 201.132812 53.980469 201.132812 53.980469 201.132812 53.972656 C 203.527344 54.097656 205.796875 52.632812 206.570312 50.253906 C 208.472656 44.386719 210.382812 38.519531 212.289062 32.652344 C 211.140625 32.671875 209.980469 32.253906 209.105469 31.378906 C 207.382812 29.667969 207.375 26.886719 209.085938 25.167969 L 210.957031 23.277344 C 211.0625 23.375 211.191406 23.429688 211.324219 23.429688 C 211.457031 23.429688 211.589844 23.375 211.691406 23.277344 L 219.617188 15.3125 C 219.726562 15.203125 219.773438 15.054688 219.761719 14.914062 C 219.941406 14.84375 220.128906 14.785156 220.316406 14.738281 C 220.347656 14.726562 220.382812 14.722656 220.414062 14.710938 C 220.789062 14.621094 221.171875 14.589844 221.558594 14.601562 C 221.59375 14.601562 221.636719 14.605469 221.671875 14.605469 C 221.867188 14.617188 222.054688 14.636719 222.242188 14.675781 C 222.242188 14.675781 222.242188 14.675781 222.246094 14.675781 C 222.429688 14.710938 222.613281 14.765625 222.789062 14.820312 C 222.832031 14.835938 222.871094 14.847656 222.914062 14.863281 C 223.089844 14.925781 223.269531 15.003906 223.441406 15.09375 C 223.445312 15.09375 223.445312 15.097656 223.453125 15.097656 C 223.617188 15.1875 223.773438 15.285156 223.929688 15.394531 C 223.972656 15.421875 224.011719 15.453125 224.050781 15.484375 C 224.207031 15.605469 224.359375 15.730469 224.503906 15.871094 C 224.671875 16.035156 224.820312 16.214844 224.953125 16.402344 C 224.976562 16.433594 225 16.460938 225.023438 16.492188 C 225.148438 16.667969 225.257812 16.855469 225.351562 17.046875 C 225.367188 17.078125 225.382812 17.117188 225.398438 17.148438 C 225.492188 17.351562 225.570312 17.554688 225.632812 17.761719 C 225.636719 17.773438 225.636719 17.785156 225.636719 17.792969 C 225.699219 18.015625 225.742188 18.238281 225.773438 18.46875 C 225.773438 18.472656 225.773438 18.484375 225.777344 18.488281 C 225.804688 18.71875 225.808594 18.949219 225.800781 19.175781 C 225.800781 19.191406 225.800781 19.207031 225.800781 19.222656 C 225.761719 19.9375 225.546875 20.644531 225.167969 21.269531 C 225.148438 21.273438 225.132812 21.273438 225.109375 21.28125 C 224.503906 21.53125 223.964844 21.894531 223.503906 22.359375 L 216.105469 29.746094 C 215.5625 30.289062 215.171875 30.941406 214.9375 31.652344 C 214.769531 32.152344 214.675781 32.683594 214.683594 33.230469 C 214.6875 34.546875 215.203125 35.777344 216.136719 36.699219 C 217.066406 37.617188 218.292969 38.125 219.601562 38.125 C 219.605469 38.125 219.613281 38.125 219.621094 38.125 C 220.9375 38.121094 222.167969 37.601562 223.089844 36.675781 L 223.347656 36.417969 C 223.359375 37.195312 223.554688 37.953125 223.910156 38.628906 C 223.867188 38.65625 223.832031 38.679688 223.796875 38.710938 C 223.535156 38.984375 217.46875 45.558594 217.164062 54.746094 C 217.15625 55.03125 217.378906 55.273438 217.671875 55.28125 C 217.675781 55.28125 217.683594 55.28125 217.6875 55.28125 C 217.96875 55.28125 218.199219 55.058594 218.207031 54.777344 C 218.480469 46.488281 223.84375 40.222656 224.488281 39.492188 C 224.589844 39.605469 224.6875 39.722656 224.792969 39.832031 C 225.722656 40.75 226.945312 41.253906 228.257812 41.253906 C 228.261719 41.253906 228.265625 41.253906 228.277344 41.253906 C 229.59375 41.25 230.824219 40.734375 231.746094 39.804688 L 232.785156 38.761719 C 232.988281 38.558594 232.988281 38.230469 232.785156 38.027344 C 232.582031 37.820312 232.253906 37.820312 232.050781 38.03125 L 231.011719 39.074219 C 230.28125 39.808594 229.308594 40.214844 228.277344 40.214844 C 228.273438 40.214844 228.265625 40.214844 228.261719 40.214844 C 227.234375 40.214844 226.261719 39.820312 225.53125 39.09375 C 224.6875 38.261719 224.28125 37.101562 224.410156 35.917969 C 224.425781 35.757812 224.363281 35.605469 224.253906 35.496094 L 229.847656 29.859375 C 230.035156 29.671875 230.039062 29.382812 229.878906 29.179688 C 230.066406 29.117188 230.257812 29.066406 230.453125 29.035156 C 230.457031 29.035156 230.457031 29.035156 230.464844 29.035156 C 230.640625 29.003906 230.824219 28.984375 231.003906 28.980469 C 231.027344 28.980469 231.046875 28.980469 231.066406 28.972656 C 231.4375 28.957031 231.804688 28.996094 232.167969 29.074219 C 232.207031 29.078125 232.238281 29.089844 232.273438 29.097656 C 232.425781 29.136719 232.574219 29.183594 232.726562 29.234375 C 232.753906 29.246094 232.785156 29.25 232.8125 29.261719 C 232.976562 29.324219 233.144531 29.402344 233.304688 29.492188 C 233.335938 29.507812 233.367188 29.527344 233.398438 29.546875 C 233.53125 29.621094 233.65625 29.699219 233.777344 29.789062 C 233.816406 29.820312 233.859375 29.84375 233.894531 29.875 C 234.042969 29.992188 234.1875 30.113281 234.324219 30.242188 C 234.445312 30.363281 234.554688 30.488281 234.65625 30.617188 C 234.6875 30.652344 234.714844 30.695312 234.746094 30.738281 C 234.8125 30.832031 234.882812 30.925781 234.945312 31.023438 C 234.96875 31.066406 234.996094 31.113281 235.023438 31.160156 C 235.078125 31.257812 235.136719 31.363281 235.183594 31.46875 C 235.207031 31.511719 235.222656 31.546875 235.242188 31.589844 C 235.300781 31.71875 235.347656 31.84375 235.394531 31.980469 C 235.398438 31.996094 235.402344 32.011719 235.410156 32.03125 C 235.550781 32.507812 235.617188 33.011719 235.601562 33.511719 Z M 24.992188 13.71875 C 23.28125 12 23.292969 9.21875 25.011719 7.507812 C 26.734375 5.796875 29.515625 5.804688 31.226562 7.527344 L 36.566406 12.910156 L 39.738281 16.109375 C 41.453125 17.832031 41.441406 20.613281 39.71875 22.324219 C 38.320312 23.710938 36.230469 23.964844 34.574219 23.089844 C 34.660156 22.898438 34.628906 22.667969 34.472656 22.511719 L 26.546875 14.542969 C 26.34375 14.339844 26.015625 14.339844 25.8125 14.542969 Z M 15.324219 28.886719 C 13.613281 27.164062 13.625 24.382812 15.347656 22.671875 C 15.476562 22.542969 15.617188 22.425781 15.757812 22.316406 C 15.800781 22.285156 15.839844 22.253906 15.882812 22.230469 C 15.992188 22.152344 16.109375 22.074219 16.226562 22.003906 C 16.265625 21.984375 16.304688 21.957031 16.34375 21.9375 C 16.5 21.851562 16.660156 21.773438 16.824219 21.707031 C 16.828125 21.707031 16.832031 21.703125 16.832031 21.703125 C 16.996094 21.640625 17.15625 21.585938 17.324219 21.546875 C 17.359375 21.535156 17.394531 21.53125 17.433594 21.519531 C 17.585938 21.484375 17.734375 21.457031 17.890625 21.4375 C 17.914062 21.4375 17.933594 21.429688 17.953125 21.425781 C 18.316406 21.382812 18.679688 21.390625 19.042969 21.441406 C 19.066406 21.445312 19.085938 21.445312 19.109375 21.453125 C 19.285156 21.476562 19.460938 21.515625 19.632812 21.5625 C 19.546875 21.816406 19.671875 22.105469 19.925781 22.207031 C 20.402344 22.40625 20.828125 22.691406 21.195312 23.058594 L 28.558594 30.488281 C 30.0625 32 30.058594 34.457031 28.539062 35.964844 C 27.808594 36.691406 26.839844 37.085938 25.8125 37.085938 C 25.804688 37.085938 25.800781 37.085938 25.796875 37.085938 C 24.761719 37.082031 23.792969 36.675781 23.0625 35.945312 L 16.3125 29.136719 C 16.109375 28.933594 15.777344 28.933594 15.574219 29.132812 Z M 15.324219 28.886719 " fill-opacity="1" fill-rule="nonzero"/><path fill="#00b7ed" d="M 103.839844 184.585938 L 115.980469 206.132812 C 116.40625 206.890625 117.449219 207.015625 118.039062 206.378906 L 119.214844 205.117188 L 132.328125 222.632812 L 137.28125 202.257812 L 138.296875 203.570312 C 139.027344 204.515625 140.535156 204.046875 140.597656 202.851562 L 141.574219 184.585938 L 130.082031 193.503906 Z M 127.566406 196.894531 L 120.121094 204.90625 C 120.015625 205.015625 119.882812 205.074219 119.742188 205.074219 C 119.617188 205.074219 119.484375 205.027344 119.386719 204.933594 C 119.175781 204.734375 119.160156 204.40625 119.359375 204.199219 L 126.804688 196.183594 C 127.003906 195.972656 127.332031 195.960938 127.539062 196.160156 C 127.753906 196.351562 127.765625 196.6875 127.566406 196.894531 Z M 132.003906 195.433594 C 132.203125 195.28125 132.464844 195.304688 132.648438 195.449219 C 132.679688 195.476562 132.710938 195.492188 132.734375 195.527344 L 136.894531 200.90625 C 137.070312 201.136719 137.027344 201.460938 136.800781 201.636719 C 136.707031 201.710938 136.589844 201.746094 136.480469 201.746094 C 136.324219 201.746094 136.171875 201.679688 136.070312 201.542969 L 131.910156 196.164062 C 131.734375 195.941406 131.777344 195.609375 132.003906 195.433594 Z M 161.496094 56.554688 L 157.707031 56.144531 C 156.28125 55.988281 155.046875 57.15625 155.121094 58.59375 C 155.320312 62.417969 155.910156 66.148438 157.058594 69.792969 C 157.835938 72.027344 158.679688 74.261719 160.039062 76.316406 C 160.597656 77.339844 161.40625 78.269531 162.144531 79.203125 C 162.195312 79.269531 162.253906 79.335938 162.316406 79.402344 C 162.722656 79.824219 163.171875 80.226562 163.59375 80.625 C 163.828125 80.839844 164.050781 81.058594 164.296875 81.261719 L 165.101562 81.804688 C 165.394531 82.019531 165.691406 82.222656 166 82.40625 C 166.082031 82.457031 166.164062 82.5 166.25 82.546875 C 166.488281 82.683594 166.730469 82.816406 166.972656 82.9375 C 167.058594 82.980469 167.136719 83.015625 167.21875 83.050781 C 167.492188 83.175781 167.761719 83.296875 168.039062 83.402344 C 168.09375 83.421875 168.148438 83.445312 168.207031 83.46875 C 168.539062 83.59375 168.878906 83.714844 169.222656 83.8125 C 169.222656 83.820312 169.222656 83.824219 169.21875 83.828125 C 169.070312 84.464844 168.957031 85.109375 168.851562 85.753906 C 168.804688 86.042969 168.761719 86.332031 168.726562 86.625 C 168.699219 86.820312 168.679688 87.015625 168.660156 87.210938 C 168.605469 87.710938 168.558594 88.210938 168.535156 88.71875 C 168.371094 91.050781 168.496094 93.402344 168.878906 95.730469 C 169.210938 98.066406 169.925781 100.351562 170.851562 102.554688 C 172.675781 106.964844 175.835938 110.945312 179.566406 113.851562 C 180 114.195312 180.449219 114.53125 180.898438 114.855469 C 181.195312 115.066406 181.492188 115.265625 181.796875 115.46875 C 181.9375 115.5625 182.070312 115.664062 182.210938 115.75 C 182.613281 116.011719 183.019531 116.261719 183.429688 116.507812 C 183.460938 116.527344 183.496094 116.550781 183.527344 116.570312 C 183.96875 116.835938 184.417969 117.085938 184.871094 117.332031 C 185.535156 115.429688 186.359375 112.964844 187.289062 110.144531 C 186.789062 109.851562 186.296875 109.542969 185.824219 109.226562 C 185.75 109.179688 185.671875 109.125 185.597656 109.078125 C 185.109375 108.746094 184.628906 108.402344 184.160156 108.035156 C 181.222656 105.730469 178.867188 102.953125 177.234375 99.625 C 176.394531 97.984375 175.742188 96.226562 175.269531 94.402344 C 174.773438 92.589844 174.46875 90.699219 174.414062 88.800781 C 174.390625 88.375 174.382812 87.945312 174.386719 87.519531 C 174.386719 87.382812 174.390625 87.246094 174.390625 87.109375 C 174.398438 86.808594 174.40625 86.511719 174.429688 86.207031 C 174.4375 86.0625 174.445312 85.910156 174.453125 85.765625 C 174.480469 85.414062 174.515625 85.0625 174.558594 84.710938 C 174.570312 84.632812 174.574219 84.554688 174.585938 84.476562 C 174.785156 84.472656 174.980469 84.457031 175.179688 84.433594 C 175.226562 84.429688 175.273438 84.425781 175.320312 84.417969 C 175.519531 84.398438 175.722656 84.367188 175.914062 84.324219 L 177.542969 84.089844 C 177.648438 84.074219 177.753906 84.054688 177.855469 84.023438 L 179.390625 83.578125 L 181.082031 83.082031 C 181.71875 82.855469 182.289062 82.566406 182.847656 82.257812 C 183.949219 81.621094 184.972656 80.875 185.886719 79.871094 C 186.777344 78.890625 187.636719 77.558594 187.824219 75.847656 C 187.933594 74.992188 187.746094 74.101562 187.550781 73.453125 C 187.464844 73.105469 187.347656 72.75 187.136719 72.378906 C 186.945312 72.011719 186.789062 71.652344 186.46875 71.320312 C 185.941406 70.636719 185.15625 70.050781 184.355469 69.753906 C 183.949219 69.585938 183.542969 69.460938 183.152344 69.421875 C 182.75 69.347656 182.359375 69.3125 181.992188 69.335938 C 180.5 69.375 179.234375 69.769531 178.054688 70.265625 C 176.878906 70.78125 175.816406 71.460938 174.816406 72.332031 C 174.3125 72.769531 173.839844 73.253906 173.394531 73.890625 C 173.140625 74.21875 173.019531 74.453125 172.875 74.707031 L 172.4375 75.457031 C 172.195312 75.875 171.964844 76.308594 171.746094 76.734375 C 171.675781 76.875 171.601562 77.015625 171.535156 77.15625 C 171.371094 77.492188 171.21875 77.824219 171.070312 78.164062 C 170.953125 78.429688 170.839844 78.695312 170.730469 78.96875 C 170.515625 78.882812 170.3125 78.789062 170.109375 78.691406 C 170.09375 78.6875 170.078125 78.675781 170.0625 78.671875 C 169.878906 78.578125 169.703125 78.480469 169.523438 78.371094 C 169.492188 78.351562 169.460938 78.335938 169.429688 78.316406 C 169.273438 78.214844 169.117188 78.113281 168.96875 78.003906 C 168.929688 77.976562 168.886719 77.949219 168.851562 77.917969 C 168.667969 77.785156 168.492188 77.636719 168.324219 77.480469 C 165.714844 75.390625 164.308594 71.742188 163.605469 68.101562 C 163.144531 65.167969 163.101562 62.117188 163.527344 59.175781 C 163.722656 57.898438 162.800781 56.695312 161.496094 56.554688 Z M 175.757812 79.609375 C 175.875 79.289062 175.992188 78.976562 176.125 78.671875 C 176.265625 78.324219 176.417969 77.980469 176.574219 77.640625 L 176.886719 76.992188 C 176.992188 76.769531 177.101562 76.527344 177.171875 76.4375 C 177.308594 76.1875 177.5625 75.890625 177.847656 75.625 C 178.414062 75.074219 179.128906 74.558594 179.878906 74.1875 C 180.621094 73.8125 181.425781 73.582031 182.054688 73.578125 C 182.714844 73.582031 182.984375 73.71875 183.199219 73.980469 C 183.40625 74.203125 183.710938 75.113281 183.617188 75.394531 C 183.558594 75.800781 183.261719 76.375 182.707031 76.921875 C 182.179688 77.476562 181.460938 77.976562 180.71875 78.371094 C 180.34375 78.5625 179.957031 78.738281 179.597656 78.851562 L 178.226562 79.195312 C 177.824219 79.296875 177.417969 79.378906 177.015625 79.449219 C 177.007812 79.449219 176.992188 79.453125 176.980469 79.453125 C 176.566406 79.527344 176.160156 79.578125 175.757812 79.609375 Z M 257.886719 138.816406 C 257.886719 140.082031 257.878906 141.351562 257.695312 142.554688 C 257.585938 143.765625 257.308594 145.027344 256.96875 146.210938 C 255.832031 150.1875 253.71875 153.640625 251.160156 156.578125 C 250.28125 157.585938 248.734375 157.632812 247.777344 156.703125 L 246.3125 155.273438 C 245.457031 154.441406 245.378906 153.097656 246.117188 152.164062 C 248.023438 149.769531 249.484375 147.097656 250.199219 144.34375 C 250.632812 142.691406 250.765625 140.84375 250.710938 139.171875 C 250.59375 137.496094 250.167969 135.972656 249.425781 134.636719 C 247.980469 131.953125 245.066406 129.90625 241.585938 128.507812 C 238.117188 127.082031 234.171875 126.261719 230.175781 125.667969 C 226.160156 125.085938 222.039062 124.804688 217.847656 124.511719 C 217.300781 124.472656 216.753906 124.4375 216.195312 124.402344 C 216.167969 124.402344 216.148438 124.394531 216.121094 124.394531 C 216.972656 121.828125 217.78125 119.316406 218.554688 116.851562 C 219.601562 116.910156 220.648438 116.984375 221.710938 117.0625 C 221.730469 117.0625 221.746094 117.066406 221.765625 117.066406 C 222.800781 117.144531 223.835938 117.234375 224.875 117.335938 C 225.132812 117.363281 225.390625 117.394531 225.648438 117.421875 C 226.453125 117.503906 227.261719 117.585938 228.070312 117.6875 C 229.144531 117.816406 230.21875 117.964844 231.296875 118.125 C 235.660156 118.824219 240.082031 119.746094 244.449219 121.574219 C 246.625 122.488281 248.796875 123.632812 250.808594 125.195312 C 252.8125 126.742188 254.667969 128.757812 255.90625 131.171875 C 257.167969 133.574219 257.789062 136.257812 257.886719 138.816406 Z M 189.34375 141.554688 L 194.285156 142.753906 C 193.957031 144.105469 193.320312 145.324219 192.464844 146.347656 L 188.148438 143.519531 C 188.726562 143.007812 189.152344 142.332031 189.34375 141.554688 Z M 183.824219 144.726562 L 189.671875 148.566406 C 188.71875 149.0625 187.675781 149.40625 186.570312 149.53125 L 185.375 149.660156 L 178.71875 145.289062 L 173.441406 145.867188 L 180.105469 150.238281 L 166.769531 151.707031 L 160.738281 152.367188 L 155.199219 152.980469 L 155.148438 152.523438 L 154.824219 149.566406 L 159.304688 152.507812 L 164.578125 151.929688 L 157.933594 147.570312 L 160.292969 147.308594 L 163.039062 147.003906 L 169.6875 151.367188 L 174.960938 150.789062 L 168.316406 146.425781 L 169.863281 146.253906 L 183.835938 144.714844 Z M 209.070312 25.128906 L 210.941406 23.242188 C 210.894531 23.195312 210.859375 23.136719 210.835938 23.078125 C 209.183594 23.949219 207.089844 23.695312 205.695312 22.3125 C 203.972656 20.601562 203.960938 17.820312 205.671875 16.097656 L 208.644531 13.105469 C 206.933594 12.605469 205.21875 12.125 203.503906 11.65625 C 203.433594 11.632812 203.367188 11.617188 203.300781 11.597656 C 201.625 11.144531 199.949219 10.703125 198.269531 10.277344 C 198.160156 10.25 198.050781 10.21875 197.941406 10.195312 C 196.292969 9.777344 194.640625 9.375 192.980469 8.984375 C 192.84375 8.953125 192.707031 8.921875 192.574219 8.890625 C 190.933594 8.507812 189.292969 8.136719 187.652344 7.785156 C 187.503906 7.753906 187.351562 7.722656 187.203125 7.683594 C 185.566406 7.328125 183.929688 6.996094 182.285156 6.667969 C 182.132812 6.636719 181.988281 6.609375 181.835938 6.578125 C 180.1875 6.253906 178.535156 5.941406 176.878906 5.644531 C 176.746094 5.617188 176.613281 5.597656 176.480469 5.570312 C 174.804688 5.273438 173.128906 4.988281 171.457031 4.714844 C 171.351562 4.699219 171.25 4.683594 171.148438 4.667969 C 169.4375 4.394531 167.726562 4.132812 166.007812 3.886719 C 165.957031 3.882812 165.910156 3.871094 165.859375 3.867188 C 144.390625 0.804688 122.683594 0.0195312 101.089844 1.503906 C 101.011719 1.507812 100.933594 1.511719 100.851562 1.519531 C 99.195312 1.632812 97.542969 1.761719 95.890625 1.902344 C 95.703125 1.917969 95.511719 1.933594 95.332031 1.949219 C 93.75 2.09375 92.167969 2.242188 90.59375 2.40625 C 90.339844 2.429688 90.078125 2.457031 89.820312 2.484375 C 88.292969 2.644531 86.765625 2.824219 85.238281 3.003906 C 84.933594 3.042969 84.632812 3.078125 84.324219 3.113281 C 82.832031 3.296875 81.335938 3.496094 79.847656 3.703125 C 79.511719 3.75 79.179688 3.796875 78.84375 3.84375 C 77.375 4.054688 75.910156 4.273438 74.4375 4.503906 C 74.089844 4.558594 73.734375 4.613281 73.382812 4.667969 C 71.929688 4.902344 70.472656 5.148438 69.015625 5.398438 C 68.664062 5.460938 68.308594 5.523438 67.953125 5.585938 C 66.496094 5.847656 65.046875 6.113281 63.597656 6.394531 C 63.246094 6.464844 62.898438 6.53125 62.546875 6.597656 C 61.085938 6.886719 59.625 7.183594 58.171875 7.492188 C 57.84375 7.558594 57.515625 7.632812 57.183594 7.707031 C 55.707031 8.023438 54.234375 8.351562 52.757812 8.691406 C 52.457031 8.757812 52.167969 8.832031 51.875 8.898438 C 50.367188 9.253906 48.859375 9.613281 47.351562 9.992188 C 47.113281 10.046875 46.875 10.109375 46.636719 10.171875 C 45.070312 10.570312 43.511719 10.972656 41.957031 11.394531 C 41.8125 11.433594 41.660156 11.476562 41.515625 11.511719 C 39.867188 11.960938 38.222656 12.417969 36.578125 12.890625 L 39.75 16.089844 C 41.460938 17.808594 41.453125 20.589844 39.730469 22.300781 C 38.332031 23.691406 36.238281 23.945312 34.585938 23.070312 C 34.558594 23.125 34.527344 23.183594 34.480469 23.230469 L 36.355469 25.121094 C 38.066406 26.839844 38.054688 29.621094 36.332031 31.332031 C 35.222656 32.433594 33.679688 32.8125 32.257812 32.492188 C 34.179688 38.390625 36.09375 44.292969 38.011719 50.195312 C 38.878906 52.863281 41.625 54.386719 44.316406 53.800781 C 44.457031 53.769531 44.601562 53.738281 44.742188 53.695312 C 95.304688 38.371094 149.285156 38.371094 199.84375 53.695312 C 200.054688 53.757812 200.269531 53.804688 200.476562 53.84375 C 200.492188 53.847656 200.511719 53.847656 200.527344 53.855469 C 200.730469 53.886719 200.9375 53.910156 201.140625 53.921875 C 203.535156 54.046875 205.804688 52.582031 206.574219 50.203125 C 208.480469 44.332031 210.386719 38.46875 212.292969 32.601562 C 211.144531 32.621094 209.988281 32.203125 209.109375 31.328125 C 207.367188 29.632812 207.359375 26.851562 209.070312 25.128906 Z M 75.511719 16.71875 L 71.859375 36.382812 C 71.792969 36.710938 71.535156 36.964844 71.316406 37.050781 L 71.160156 37.085938 C 71.011719 37.125 70.863281 37.101562 70.722656 37.039062 L 70.6875 37.019531 C 70.648438 37.003906 70.597656 36.976562 70.554688 36.929688 C 70.503906 36.894531 70.4375 36.820312 70.394531 36.773438 L 70.34375 36.691406 L 62.988281 26.230469 L 60.628906 38.789062 C 60.632812 38.851562 60.625 38.921875 60.597656 38.980469 C 60.582031 39.085938 60.53125 39.164062 60.480469 39.234375 L 60.449219 39.28125 L 60.417969 39.289062 C 60.308594 39.414062 60.164062 39.492188 59.980469 39.527344 C 59.917969 39.542969 59.855469 39.550781 59.800781 39.550781 C 59.679688 39.550781 59.5625 39.523438 59.449219 39.46875 L 59.328125 39.386719 C 59.203125 39.308594 59.109375 39.1875 59.042969 39.03125 L 47.617188 22.796875 C 47.488281 22.636719 47.429688 22.417969 47.460938 22.199219 C 47.492188 21.972656 47.613281 21.773438 47.789062 21.648438 C 47.953125 21.519531 48.171875 21.460938 48.390625 21.492188 C 48.613281 21.523438 48.8125 21.644531 48.9375 21.820312 L 59.351562 36.636719 L 61.699219 24.117188 C 61.800781 23.773438 62.050781 23.515625 62.351562 23.453125 C 62.6875 23.382812 63.027344 23.496094 63.261719 23.761719 L 70.585938 34.179688 L 73.882812 16.375 C 74.003906 15.90625 74.417969 15.644531 74.886719 15.734375 C 75.101562 15.769531 75.289062 15.902344 75.414062 16.09375 C 75.527344 16.285156 75.5625 16.511719 75.511719 16.71875 Z M 93.550781 33.707031 L 83.304688 35.027344 C 83.289062 35.027344 83.28125 35.027344 83.265625 35.027344 C 82.839844 35.027344 82.503906 34.722656 82.449219 34.3125 L 80.070312 15.855469 C 80.015625 15.414062 80.335938 15 80.777344 14.941406 L 80.832031 14.9375 L 90.964844 13.632812 C 91.417969 13.574219 91.820312 13.882812 91.878906 14.335938 C 91.941406 14.8125 91.636719 15.21875 91.179688 15.273438 L 81.824219 16.484375 L 82.800781 24.066406 L 90.964844 23.011719 C 91.40625 22.953125 91.820312 23.28125 91.882812 23.742188 C 91.941406 24.179688 91.617188 24.597656 91.179688 24.65625 L 83.015625 25.707031 L 83.984375 33.261719 L 93.339844 32.058594 C 93.796875 32 94.195312 32.3125 94.257812 32.789062 C 94.3125 33.246094 94.003906 33.648438 93.550781 33.707031 Z M 110.703125 32.136719 C 110.554688 32.308594 110.34375 32.40625 110.117188 32.421875 L 99.863281 33.117188 C 99.847656 33.117188 99.828125 33.117188 99.8125 33.117188 C 99.394531 33.117188 99.023438 32.777344 99 32.355469 L 97.742188 13.789062 C 97.726562 13.574219 97.796875 13.367188 97.945312 13.199219 C 98.089844 13.03125 98.289062 12.933594 98.503906 12.917969 C 98.726562 12.902344 98.945312 12.972656 99.113281 13.113281 C 99.28125 13.257812 99.382812 13.453125 99.398438 13.671875 L 100.601562 31.394531 L 110.011719 30.757812 C 110.480469 30.726562 110.878906 31.070312 110.910156 31.542969 C 110.917969 31.765625 110.851562 31.972656 110.703125 32.136719 Z M 129.777344 30.003906 C 127.945312 31.421875 125.625 32.203125 123.257812 32.207031 C 123.25 32.207031 123.242188 32.207031 123.234375 32.207031 C 117.445312 32.207031 112.730469 27.644531 112.71875 22.027344 C 112.707031 16.269531 117.320312 11.726562 123.214844 11.6875 C 123.21875 11.6875 123.230469 11.6875 123.234375 11.6875 C 125.578125 11.6875 127.890625 12.46875 129.746094 13.898438 C 129.941406 14.054688 130.058594 14.292969 130.074219 14.539062 C 130.085938 14.753906 130.019531 14.953125 129.875 15.09375 C 129.773438 15.257812 129.585938 15.378906 129.367188 15.410156 C 129.140625 15.445312 128.910156 15.382812 128.734375 15.242188 C 127.128906 14.003906 125.230469 13.34375 123.234375 13.34375 C 123.230469 13.34375 123.226562 13.34375 123.21875 13.34375 C 120.839844 13.351562 118.613281 14.253906 116.949219 15.886719 C 115.285156 17.519531 114.371094 19.699219 114.378906 22.019531 C 114.382812 24.292969 115.300781 26.433594 116.96875 28.046875 C 118.640625 29.65625 120.867188 30.542969 123.234375 30.542969 C 123.242188 30.542969 123.246094 30.542969 123.257812 30.542969 C 125.316406 30.539062 127.253906 29.859375 128.703125 28.625 C 128.925781 28.472656 129.183594 28.421875 129.417969 28.480469 C 129.617188 28.527344 129.78125 28.640625 129.886719 28.8125 C 130.035156 28.953125 130.113281 29.15625 130.101562 29.382812 C 130.085938 29.632812 129.964844 29.867188 129.777344 30.003906 Z M 154.015625 23.613281 C 153.546875 29.066406 149.347656 33.089844 144.300781 33.089844 C 144.046875 33.089844 143.785156 33.078125 143.523438 33.058594 C 138.089844 32.617188 134.171875 27.78125 134.609375 22.042969 C 135.105469 16.308594 139.753906 12.160156 145.183594 12.605469 C 150.570312 13.035156 154.449219 17.871094 154.015625 23.613281 Z M 174.203125 36.355469 C 174.167969 36.570312 174.054688 36.753906 173.871094 36.882812 C 173.730469 36.980469 173.5625 37.039062 173.394531 37.039062 C 173.355469 37.039062 173.308594 37.035156 173.265625 37.027344 C 173.042969 36.992188 172.851562 36.871094 172.726562 36.695312 C 172.609375 36.523438 172.5625 36.304688 172.597656 36.09375 L 175.242188 20.28125 L 167.761719 27.695312 C 167.578125 27.898438 167.3125 27.992188 167.03125 27.945312 L 166.972656 27.9375 C 166.65625 27.882812 166.445312 27.722656 166.332031 27.449219 L 161.667969 18.039062 L 159.027344 33.824219 C 158.992188 34.039062 158.878906 34.222656 158.695312 34.351562 C 158.515625 34.476562 158.296875 34.53125 158.089844 34.492188 C 157.867188 34.457031 157.671875 34.335938 157.542969 34.160156 C 157.410156 33.984375 157.359375 33.761719 157.394531 33.554688 L 160.441406 15.316406 C 160.484375 15.070312 160.636719 14.863281 160.847656 14.75 C 160.875 14.714844 160.90625 14.707031 160.921875 14.699219 L 160.953125 14.683594 C 161.371094 14.507812 161.851562 14.679688 162.050781 15.078125 L 167.355469 25.796875 L 175.832031 17.382812 C 175.96875 17.230469 176.171875 17.144531 176.402344 17.144531 C 176.402344 17.144531 176.40625 17.144531 176.40625 17.144531 C 176.625 17.144531 176.839844 17.226562 176.996094 17.367188 C 177.085938 17.492188 177.140625 17.566406 177.1875 17.667969 C 177.25 17.867188 177.265625 18.015625 177.25 18.128906 Z M 195.328125 22.183594 C 195.277344 22.40625 195.144531 22.589844 194.96875 22.707031 C 194.785156 22.828125 194.5625 22.867188 194.335938 22.8125 L 185.164062 20.613281 L 183.382812 28.046875 L 191.382812 29.964844 C 191.820312 30.070312 192.089844 30.523438 191.976562 30.976562 C 191.875 31.40625 191.425781 31.683594 190.992188 31.582031 L 182.988281 29.664062 L 181.210938 37.070312 L 190.382812 39.273438 C 190.835938 39.382812 191.089844 39.816406 190.976562 40.285156 C 190.925781 40.492188 190.800781 40.675781 190.621094 40.785156 C 190.492188 40.867188 190.34375 40.910156 190.195312 40.910156 C 190.125 40.910156 190.0625 40.898438 189.996094 40.882812 L 179.953125 38.472656 C 179.535156 38.339844 179.304688 37.921875 179.40625 37.503906 L 183.75 19.410156 C 183.804688 19.203125 183.933594 19.027344 184.121094 18.910156 C 184.308594 18.796875 184.527344 18.761719 184.738281 18.8125 L 194.726562 21.210938 C 194.945312 21.265625 195.128906 21.394531 195.238281 21.582031 C 195.34375 21.753906 195.375 21.972656 195.328125 22.183594 Z M 152.332031 23.476562 C 151.917969 28.203125 148.019531 31.761719 143.65625 31.40625 C 141.496094 31.226562 139.539062 30.179688 138.144531 28.453125 C 136.742188 26.714844 136.074219 24.484375 136.261719 22.171875 C 136.449219 19.839844 137.472656 17.746094 139.136719 16.269531 C 140.617188 14.957031 142.464844 14.257812 144.402344 14.257812 C 144.613281 14.257812 144.832031 14.269531 145.054688 14.285156 C 149.417969 14.632812 152.683594 18.761719 152.332031 23.476562 Z M 54.128906 142.550781 C 54.441406 147.242188 53.503906 152.28125 51.503906 156.394531 C 49.777344 160.027344 47.636719 163.21875 45.378906 166.207031 C 44.65625 167.167969 43.914062 168.113281 43.167969 169.035156 C 43.121094 169.09375 43.074219 169.15625 43.027344 169.214844 C 42.691406 169.625 42.359375 170.042969 42.023438 170.449219 C 42.007812 170.472656 41.988281 170.492188 41.972656 170.511719 C 41.515625 171.078125 41.058594 171.628906 40.605469 172.1875 C 40.46875 172.355469 40.335938 172.519531 40.199219 172.683594 C 39.996094 172.929688 39.796875 173.179688 39.597656 173.425781 C 39.410156 173.660156 39.222656 173.886719 39.035156 174.121094 C 38.878906 174.320312 38.722656 174.515625 38.566406 174.710938 C 38.347656 174.988281 38.128906 175.269531 37.914062 175.546875 C 37.792969 175.703125 37.675781 175.855469 37.554688 176.011719 C 37.21875 176.445312 36.890625 176.882812 36.5625 177.320312 C 34.105469 180.535156 32.0625 183.878906 30.5625 187.445312 C 29.046875 190.996094 28.230469 194.75 28.167969 198.421875 C 28.074219 204.796875 30.917969 211.074219 35.523438 214.929688 C 36.609375 215.835938 36.851562 217.40625 35.988281 218.535156 L 33.636719 221.613281 C 32.675781 222.871094 30.796875 222.988281 29.714844 221.835938 C 23.613281 215.367188 20.640625 206.550781 21.324219 198.113281 C 22.027344 188.71875 26.578125 180.492188 31.882812 173.753906 C 34.492188 170.335938 37.289062 167.238281 39.738281 163.980469 C 39.996094 163.636719 40.25 163.296875 40.507812 162.953125 C 40.730469 162.644531 40.957031 162.339844 41.179688 162.03125 C 41.199219 162 41.222656 161.96875 41.246094 161.941406 C 41.484375 161.613281 41.710938 161.285156 41.941406 160.957031 C 41.945312 160.945312 41.957031 160.933594 41.960938 160.925781 C 42.199219 160.589844 42.421875 160.25 42.644531 159.914062 C 42.828125 159.636719 43.011719 159.355469 43.1875 159.078125 C 44.191406 157.398438 45.113281 155.695312 45.765625 153.953125 C 46.480469 152.226562 46.898438 150.445312 47.058594 148.679688 C 47.300781 146.921875 47.148438 145.164062 46.828125 143.355469 C 46.328125 140.566406 45.332031 137.757812 44.105469 134.882812 C 43.511719 133.484375 44.230469 131.875 45.675781 131.414062 L 49.191406 130.269531 C 50.648438 129.796875 52.199219 130.6875 52.511719 132.183594 C 53.195312 135.476562 53.910156 138.910156 54.128906 142.550781 Z M 54.128906 142.550781 " fill-opacity="1" fill-rule="nonzero"/></svg>